<svg width="24" height="24" viewBox="0 0 24 24" fill="none" xmlns="http://www.w3.org/2000/svg">
<path d="M20.25 13.5139V13.5139C20.25 14.9505 20.25 15.6689 20.0153 16.2355C19.7024 16.991 19.1021 17.5912 18.3466 17.9042C17.78 18.1389 17.0617 18.1389 15.625 18.1389H12.8543C12.3073 18.1389 11.7827 18.3555 11.3959 18.7409L9.93258 20.1993C9.17217 20.9572 7.875 20.4186 7.875 19.345V19.345C7.875 18.6789 7.33499 18.1389 6.66885 18.1389H5.8125C4.67341 18.1389 3.75 17.2155 3.75 16.0764V8.68333C3.75 6.95651 3.75 6.09309 4.08606 5.43353C4.38167 4.85336 4.85336 4.38167 5.43353 4.08606C6.09309 3.75 6.95651 3.75 8.68334 3.75H11.3959" stroke="#65676C" stroke-width="1.54167" stroke-linecap="round"/>
<path d="M18.3369 8.68764L17.6721 10.7136C17.5383 11.1213 16.9617 11.1213 16.8279 10.7136L16.1631 8.68764C16.031 8.28489 15.7151 7.96902 15.3124 7.83687L13.2864 7.17209C12.8787 7.03833 12.8787 6.46167 13.2864 6.32791L15.3124 5.66313C15.7151 5.53098 16.031 5.21511 16.1631 4.81236L16.8279 2.78637C16.9617 2.37872 17.5383 2.37872 17.6721 2.78637L18.3369 4.81236C18.469 5.21511 18.7849 5.53098 19.1876 5.66313L21.2136 6.32791C21.6213 6.46167 21.6213 7.03833 21.2136 7.17209L19.1876 7.83687C18.7849 7.96902 18.469 8.28489 18.3369 8.68764Z" fill="#B342FF"/>
<path d="M14 13H8" stroke="#65676C" stroke-width="1.5" stroke-linecap="round" stroke-linejoin="round"/>
<path d="M11 10H8" stroke="#65676C" stroke-width="1.5" stroke-linecap="round" stroke-linejoin="round"/>
</svg>
