<?xml version="1.0" encoding="UTF-8"?>
<!-- Generator: Adobe Illustrator 28.0.0, SVG Export Plug-In . SVG Version: 6.00 Build 0)  -->
<svg xmlns="http://www.w3.org/2000/svg" xmlns:xlink="http://www.w3.org/1999/xlink" version="1.1" id="Layer_1" x="0px" y="0px" viewBox="0 0 16 16" style="enable-background:new 0 0 16 16;" xml:space="preserve">
<style type="text/css">
	.st0{fill:#EC1218;}
</style>
<path id="Logo-Icon" class="st0" d="M13.4,9.4c0,0.5-0.3,0.9-0.8,1c-0.9,0.2-2.9,0.3-4.6,0.3s-3.7-0.1-4.6-0.3  c-0.5-0.1-0.8-0.5-0.8-1V6.3c0-0.5,0.4-0.9,0.8-1c0.3-0.1,0.9-0.1,1.4-0.1c0.2,0,0.3,0.1,0.3,0.4v2.2c1,0,1.8-0.1,2.8-0.1  s1.8,0.1,2.8,0.1V5.6c0-0.2,0.2-0.4,0.4-0.4c0.5,0,1.1,0.1,1.4,0.1c0.4,0.1,0.8,0.5,0.8,1L13.4,9.4L13.4,9.4z M8,0C3.6,0,0,3.6,0,8  s3.6,8,8,8s8-3.6,8-8S12.4,0,8,0L8,0z"></path>
</svg>
