<svg width="40" height="40" viewBox="0 0 40 40" fill="none" xmlns="http://www.w3.org/2000/svg">
<mask id="mask0_1117_48670" style="mask-type:luminance" maskUnits="userSpaceOnUse" x="5" y="5" width="30" height="30">
<path d="M35 5H5V35H35V5Z" fill="white"/>
</mask>
<g mask="url(#mask0_1117_48670)">
<path d="M35 5H5V35H35V5Z" fill="#FF3622"/>
<g clip-path="url(#clip0_1117_48670)">
<path d="M27.3657 18.4703L20.0082 22.6666L12.1287 18.1831L11.75 18.3901V21.6451L20.0075 26.3371L27.3657 22.1566V23.8793L20.0082 28.0763L12.1287 23.5921L11.75 23.7998V24.3586L20.0075 29.0498L28.25 24.3586V21.1036L27.8713 20.8958L20.0082 25.3636L12.6342 21.1831V19.4596L20.0082 23.6401L28.25 18.9488V15.7411L27.8397 15.5018L20.0082 19.9538L13.013 15.9968L20.0082 12.0233L25.7555 15.2948L26.2603 15.0076V14.6086L20.0082 11.0498L11.75 15.7411V16.2518L20.0075 20.9431L27.3657 16.7468V18.4703Z" fill="#FF3622"/>
</g>
<g clip-path="url(#clip1_1117_48670)">
<path d="M27.3657 18.4703L20.0082 22.6666L12.1287 18.1831L11.75 18.3901V21.6451L20.0075 26.3371L27.3657 22.1566V23.8793L20.0082 28.0763L12.1287 23.5921L11.75 23.7998V24.3586L20.0075 29.0498L28.25 24.3586V21.1036L27.8713 20.8958L20.0082 25.3636L12.6342 21.1831V19.4596L20.0082 23.6401L28.25 18.9488V15.7411L27.8397 15.5018L20.0082 19.9538L13.013 15.9968L20.0082 12.0233L25.7555 15.2948L26.2603 15.0076V14.6086L20.0082 11.0498L11.75 15.7411V16.2518L20.0075 20.9431L27.3657 16.7468V18.4703Z" fill="white"/>
</g>
</g>
<defs>
<clipPath id="clip0_1117_48670">
<rect width="18" height="18" fill="white" transform="translate(11 11.0498)"/>
</clipPath>
<clipPath id="clip1_1117_48670">
<rect width="18" height="18" fill="white" transform="translate(11 11.0498)"/>
</clipPath>
</defs>
</svg>

