<svg width="40" height="40" viewBox="0 0 40 40" fill="none" xmlns="http://www.w3.org/2000/svg">
<g clip-path="url(#clip0_doris)">
<g transform="translate(8.6, 5) scale(0.10974) translate(-60, -20)">
<path d="M183.847 61.7581L154.224 32.1348C146.372 24.2829 135.665 20 125.314 20C115.678 20 106.042 23.5691 98.5465 30.7072C91.0514 38.2022 86.7686 47.8387 86.7686 58.5459C86.7686 69.2532 90.6945 78.8896 98.1896 86.3847L152.082 140.278C154.224 142.419 158.15 142.419 160.648 140.278L183.847 117.079C185.275 115.294 209.901 87.4554 183.847 61.7581Z" fill="#1FCD94"/>
<path d="M232.742 109.227C227.032 103.873 221.321 98.1628 215.968 91.7385C215.968 91.7385 215.968 91.7385 215.611 91.3816C215.611 91.7385 215.254 92.4523 215.254 93.1661C213.112 106.015 207.045 117.436 197.052 127.429C165.644 158.48 133.879 190.602 103.185 221.296L99.2592 225.222C92.1211 232.36 88.1951 239.855 87.1244 247.35C85.6968 258.771 89.6227 271.62 98.1885 280.899C105.684 289.108 115.677 293.391 126.384 293.034C138.519 293.391 144.586 291.606 153.509 283.041C189.2 248.064 224.89 212.73 252.015 185.962C264.864 173.113 267.719 152.413 258.797 138.136C251.302 127.072 242.022 118.15 232.742 109.227Z" fill="#1FCD94"/>
<path d="M60 90.6677V222.366C60 225.935 62.4983 228.077 64.6398 229.148C66.7812 230.218 69.9934 230.218 72.4917 227.72L138.876 161.335C141.375 158.837 141.375 154.554 138.876 151.699L72.4917 85.3141C71.0641 83.8864 68.9227 83.1726 67.495 83.1726C66.4243 83.1726 65.3536 83.5295 64.6398 83.8864C62.4983 84.9572 60 87.0986 60 90.6677Z" fill="#1FCD94"/>
</g>
</g>
<defs>
<clipPath id="clip0_doris">
<rect width="30" height="30" fill="white" transform="translate(5 5)"/>
</clipPath>
</defs>
</svg>
