<svg xmlns="http://www.w3.org/2000/svg" width="40" height="40" viewBox="0 0 200 200" fill="none"><g clip-path="url(#clip0_459_8250)"><g clip-path="url(#clip1_459_8250)"><path d="M51.3684 63.4643L79.8234 80.5268C81.3991 81.4739 83.2491 81.8594 85.0719 81.6207C86.8948 81.3819 88.5831 80.533 89.8618 79.2121C90.7162 78.3885 91.3947 77.4001 91.856 76.3067C92.3174 75.2133 92.5521 74.0376 92.5459 72.8509V38.6537C92.6028 37.1559 92.2547 35.6704 91.5382 34.3538C90.8218 33.0372 89.7635 31.9381 88.4749 31.1725C87.1866 30.4068 85.7156 30.0027 84.217 30.0027C82.7183 30.0027 81.2473 30.4068 79.959 31.1725C78.6704 31.9381 77.6122 33.0372 76.8957 34.3538C76.1793 35.6704 75.8312 37.1559 75.8881 38.6537V58.1137L59.729 48.4231C58.7761 47.8575 57.7195 47.4886 56.6217 47.3383C55.5238 47.188 54.407 47.2594 53.3371 47.5481C51.1803 48.1278 49.3603 49.6043 48.3059 51.5818C45.9937 55.7381 47.3434 60.9443 51.3684 63.4425V63.4643ZM119.771 80.505L148.226 63.4425C152.251 60.9421 153.603 55.714 151.289 51.5775C150.766 50.6014 150.05 49.7415 149.185 49.0494C148.321 48.3574 147.325 47.8476 146.258 47.5508C145.191 47.254 144.075 47.1764 142.977 47.3225C141.879 47.4687 140.822 47.8356 139.87 48.4012L123.901 57.9606V38.6231C123.942 37.5039 123.757 36.3881 123.356 35.3421C122.956 34.2962 122.349 33.3417 121.572 32.5356C120.794 31.7295 119.862 31.0884 118.832 30.6505C117.801 30.2125 116.692 29.9868 115.573 29.9868C114.453 29.9868 113.344 30.2125 112.314 30.6505C111.283 31.0884 110.351 31.7295 109.574 32.5356C108.796 33.3417 108.189 34.2962 107.789 35.3421C107.389 36.3881 107.203 37.5039 107.244 38.6231V72.1421C107.072 73.9376 107.449 75.7429 108.324 77.32C109.379 79.2953 111.199 80.7543 113.356 81.3537C114.424 81.6526 115.543 81.7291 116.642 81.5786C117.742 81.4281 118.798 81.0538 119.747 80.4787L119.771 80.505ZM94.4446 99.9343C94.4731 99.3875 94.6809 98.8406 95.0396 98.4468L98.3646 94.9906C98.7584 94.6243 99.2672 94.4062 99.804 94.3737H99.9287C100.464 94.4054 100.972 94.6236 101.364 94.9906L104.689 98.4468C105.049 98.8626 105.258 99.3873 105.284 99.9365V100.068C105.257 100.618 105.048 101.144 104.689 101.562L101.364 105.018C100.974 105.388 100.465 105.608 99.9287 105.639H99.804C99.2659 105.609 98.754 105.388 98.3646 105.018L95.0396 101.562C94.6803 101.144 94.4709 100.618 94.4446 100.068V99.9343ZM84.3734 98.5125V101.496C84.4104 102.246 84.6968 102.962 85.1871 103.531L96.4746 115.249C97.0072 115.753 97.7006 116.052 98.4324 116.093H101.302C102.034 116.052 102.728 115.753 103.26 115.249L114.548 103.531C115.038 102.962 115.325 102.246 115.361 101.496V98.5125C115.325 97.7626 115.038 97.0466 114.548 96.4781L103.26 84.7596C102.728 84.256 102.034 83.9569 101.302 83.9153H98.4324C97.7006 83.9569 97.0072 84.256 96.4746 84.7596L85.1871 96.5C84.6982 97.0693 84.412 97.7848 84.3734 98.5343V98.5125ZM36.6465 90.4187L52.7574 100.081L36.6465 109.734C34.7102 110.941 33.3122 112.846 32.7425 115.055C32.1727 117.264 32.4748 119.607 33.5862 121.599C34.1088 122.577 34.8241 123.438 35.6888 124.131C36.5536 124.825 37.5498 125.335 38.6174 125.633C40.7743 126.232 43.0843 125.924 45.0093 124.776L73.4643 107.713C76.0893 106.046 77.6206 103.167 77.6206 100.074C77.6204 98.5554 77.2399 97.0606 76.514 95.7263C75.788 94.3921 74.7396 93.2608 73.4643 92.4356L45.0093 75.3731C44.0564 74.8075 42.9998 74.4386 41.902 74.2883C40.8041 74.138 39.6873 74.2094 38.6174 74.4981C36.4606 75.0778 34.6406 76.5543 33.5862 78.5318C31.274 82.6881 32.6237 87.89 36.6487 90.3925L36.6465 90.4187ZM121.95 100.109C121.925 101.631 122.297 103.133 123.03 104.467C123.763 105.801 124.831 106.92 126.128 107.715L154.566 124.778C156.491 125.924 158.796 126.235 160.953 125.635C163.11 125.036 164.928 123.579 165.985 121.604C167.101 119.612 167.406 117.267 166.836 115.056C166.265 112.846 164.863 110.941 162.922 109.739L146.831 100.083L162.942 90.4209C166.967 87.9206 168.316 82.699 166.004 78.5603C165.483 77.5821 164.768 76.7202 163.903 76.0268C163.038 75.3334 162.041 74.8229 160.973 74.5265C158.814 73.9271 156.506 74.2334 154.586 75.4015L126.148 92.464C124.841 93.2646 123.766 94.3947 123.033 95.7411C122.3 97.0875 121.933 98.6029 121.97 100.136L121.95 100.109ZM85.5371 118.611C83.5732 118.232 81.5386 118.594 79.8256 119.626L51.3706 136.689C47.3456 139.189 45.9981 144.411 48.3081 148.549C49.3646 150.525 51.1824 151.984 53.3393 152.581C54.4074 152.877 55.5245 152.954 56.6231 152.807C57.7216 152.659 58.779 152.291 59.7312 151.723L75.8902 142.033V161.348C75.8457 162.47 76.0281 163.589 76.4266 164.638C76.825 165.687 77.4313 166.645 78.209 167.454C78.9867 168.263 79.9198 168.907 80.9524 169.347C81.985 169.787 83.0957 170.013 84.2181 170.013C85.3404 170.013 86.4511 169.787 87.4837 169.347C88.5163 168.907 89.4494 168.263 90.2271 167.454C91.0048 166.645 91.6111 165.687 92.0095 164.638C92.408 163.589 92.5904 162.47 92.5459 161.348V127.125C92.5754 125.103 91.8873 123.135 90.6037 121.572C89.3202 120.009 87.5243 118.952 85.5349 118.587L85.5371 118.611ZM148.229 136.691L119.774 119.628C118.821 119.061 117.764 118.693 116.666 118.545C115.567 118.398 114.45 118.475 113.382 118.771C112.314 119.067 111.317 119.577 110.452 120.27C109.587 120.963 108.872 121.825 108.351 122.802C107.475 124.382 107.099 126.189 107.27 127.987V161.346C107.225 162.468 107.408 163.587 107.806 164.636C108.205 165.685 108.811 166.643 109.589 167.452C110.366 168.261 111.299 168.905 112.332 169.345C113.365 169.785 114.475 170.011 115.598 170.011C116.72 170.011 117.831 169.785 118.863 169.345C119.896 168.905 120.829 168.261 121.607 167.452C122.385 166.643 122.991 165.685 123.389 164.636C123.788 163.587 123.97 162.468 123.926 161.346V142.175L139.866 151.734C140.819 152.3 141.875 152.669 142.973 152.819C144.071 152.969 145.188 152.898 146.258 152.609C148.415 152.03 150.235 150.553 151.289 148.576C153.601 144.419 152.251 139.213 148.226 136.715" fill="#29B5E8"></path></g></g><defs><clipPath id="clip0_459_8250"><rect width="200" height="200" fill="white"></rect></clipPath><clipPath id="clip1_459_8250"><rect width="140" height="140" fill="white" transform="translate(29.7998 30)"></rect></clipPath></defs></svg>