<svg width="40" height="40" viewBox="0 0 40 40" fill="none" xmlns="http://www.w3.org/2000/svg">
<path d="M23.9409 19.3287L17.3652 21.476L11.6443 24.0009L10.0438 24.4234C9.63622 24.8111 9.20883 25.2038 8.74658 25.6014C8.23961 26.0388 7.76743 26.4365 7.40454 26.7247C7.00197 27.0428 6.40552 27.6392 6.10236 28.0169C5.65003 28.5835 5.29218 29.1849 5.13808 29.6472C4.86469 30.4823 4.99896 31.3272 5.5258 32.1076C6.20176 33.1016 7.54875 34.1155 9.11933 34.8064C9.91961 35.1594 11.2666 35.6117 12.2805 35.8651C13.9654 36.2926 17.226 36.7548 19.0202 36.8245C19.383 36.8394 19.8701 36.8394 19.89 36.8245C19.9298 36.7995 20.2081 36.2678 20.5312 35.6068C21.6347 33.3551 22.4299 31.2427 22.8623 29.4385C23.1207 28.3451 23.3245 26.8887 23.4586 25.1641C23.4935 24.682 23.5084 23.0666 23.4785 22.5198C23.4338 21.6252 23.3542 20.8995 23.2301 20.1888C23.2102 20.0844 23.2052 19.9899 23.2151 19.985C23.235 19.9701 23.2946 19.9502 24.1048 19.7165L23.9408 19.3289V19.3288H23.9409V19.3287ZM22.4399 20.2085C22.4995 20.2085 22.6585 21.7344 22.6983 22.6987C22.7083 22.9025 22.7032 23.0367 22.6933 23.0367C22.6536 23.0367 21.8533 22.5645 21.2818 22.2067C20.7848 21.8935 19.8404 21.2672 19.6913 21.148C19.6415 21.1132 19.6465 21.1083 20.0541 20.969C20.7449 20.7354 22.3852 20.2085 22.4399 20.2085ZM19.0899 21.312C19.1346 21.312 19.2489 21.3765 19.5223 21.5456C20.5461 22.1867 21.9379 22.9621 22.5343 23.2206C22.7182 23.3001 22.738 23.2703 22.3156 23.5586C21.411 24.1749 20.2827 24.7813 18.9009 25.3926C18.6574 25.502 18.4536 25.5865 18.4487 25.5865C18.4388 25.5865 18.4685 25.4623 18.5082 25.3131C18.8413 24.0754 19.0302 22.8229 19.0402 21.8189C19.0451 21.3218 19.0451 21.3218 19.0899 21.307C19.0799 21.312 19.0848 21.312 19.0899 21.312ZM18.399 21.5754C18.4287 21.6052 18.4089 22.7186 18.3691 23.0217C18.2797 23.7474 18.1405 24.4234 17.9119 25.1839C17.8573 25.3677 17.8075 25.5219 17.7976 25.5318C17.7776 25.5566 17.0967 24.8906 16.8731 24.6321C16.4853 24.1848 16.1822 23.7374 15.9586 23.3001C15.8442 23.0764 15.6653 22.6391 15.6802 22.6241C15.7597 22.5695 18.3791 21.5555 18.399 21.5754ZM15.1483 22.8527C15.1533 22.8527 15.1582 22.8527 15.1633 22.8577C15.1732 22.8676 15.2081 22.9472 15.2379 23.0366C15.3969 23.4691 15.7547 24.1053 16.0629 24.5128C16.4009 24.9602 16.8433 25.4373 17.211 25.7504C17.3304 25.8498 17.4396 25.9443 17.4545 25.9592C17.4844 25.989 17.4943 25.984 16.6841 26.2922C15.7448 26.6501 14.7209 27.0079 13.5479 27.3857C13.2676 27.476 12.9877 27.5671 12.708 27.659C12.6632 27.674 12.6781 27.6491 12.8074 27.4454C13.3889 26.5358 14.2736 24.7514 14.7706 23.4889C14.8551 23.2702 14.9396 23.0516 14.9546 23.0019C14.9745 22.9322 14.9993 22.9074 15.0638 22.8726C15.0986 22.8627 15.1335 22.8527 15.1483 22.8527ZM14.1544 23.2653C14.1692 23.2753 13.9157 23.807 13.6672 24.2941C13.1851 25.2335 12.6582 26.1581 11.9525 27.2813C11.8332 27.4752 11.7189 27.6541 11.704 27.674C11.6791 27.7088 11.6691 27.6988 11.5896 27.5448C11.4206 27.2118 11.2814 26.7843 11.2069 26.3916C11.1323 26.0039 11.1473 25.328 11.2318 24.9105C11.2963 24.6024 11.2914 24.6073 11.4405 24.5327C12.0767 24.2097 14.1345 23.2454 14.1544 23.2653ZM22.7282 23.6133V23.822C22.7282 24.9304 22.6089 26.4513 22.4349 27.5597C22.405 27.7535 22.3801 27.9125 22.3752 27.9176C22.3752 27.9176 22.2311 27.8779 22.0621 27.8281C21.3166 27.5945 20.5064 27.2515 19.7757 26.849C19.2935 26.5855 18.5928 26.1531 18.6127 26.1332C18.6176 26.1282 18.8264 26.0189 19.0699 25.8896C20.0442 25.3827 20.9785 24.836 21.7887 24.2942C22.0919 24.0904 22.5491 23.7624 22.6486 23.6729L22.7282 23.6133ZM10.4017 25.0844C10.4216 25.0844 10.4166 25.1242 10.3868 25.3031C10.3669 25.4324 10.342 25.6709 10.3322 25.8349C10.2923 26.5606 10.4117 27.0974 10.7695 27.833C10.8689 28.0368 10.9485 28.2058 10.9435 28.2107C10.9087 28.2406 7.61836 29.2049 6.58446 29.4881C6.27632 29.5726 6.00797 29.6472 5.98798 29.6521C5.95326 29.6621 5.94826 29.6571 5.96316 29.5726C6.07746 28.842 6.63417 27.8877 7.40951 27.0824C7.92645 26.5457 8.33901 26.2325 9.04479 25.8299C9.55176 25.5417 10.3321 25.1093 10.3917 25.0894C10.3918 25.0844 10.3967 25.0844 10.4017 25.0844ZM18.1554 26.4711C18.1604 26.4662 18.2797 26.5308 18.4238 26.6153C19.4875 27.2316 20.9686 27.8032 22.231 28.0965L22.3454 28.1213L22.1863 28.2107C21.5253 28.5786 19.3532 29.4831 17.1316 30.3132C16.8084 30.4324 16.4904 30.5518 16.4306 30.5766C16.371 30.6014 16.3163 30.6164 16.3163 30.6114C16.3163 30.6064 16.4058 30.4324 16.5201 30.2188C17.1414 29.0557 17.7677 27.6392 18.0858 26.655C18.1256 26.5606 18.1504 26.4761 18.1554 26.4711ZM17.3652 26.7296C17.3702 26.7347 17.3304 26.839 17.2807 26.9582C16.8483 28.007 16.2816 29.1502 15.5559 30.4325C15.3721 30.7606 15.218 31.0241 15.2129 31.0241C15.208 31.0241 15.0589 30.9345 14.88 30.8252C13.8262 30.179 12.8918 29.3838 12.2805 28.6134L12.191 28.504L12.6432 28.3798C14.2636 27.9375 15.6403 27.4603 17.0072 26.8738C17.2011 26.7943 17.3602 26.7296 17.3652 26.7296ZM22.2759 28.4444C22.2808 28.5587 22.0273 29.5826 21.8185 30.3231C21.6446 30.9444 21.4954 31.4316 21.2221 32.2914C21.1028 32.6692 20.9985 32.9822 20.9935 32.9822C20.9885 32.9822 20.9587 32.9773 20.9289 32.9674C19.4527 32.6989 18.1306 32.3262 16.888 31.8292C16.54 31.69 16.043 31.4663 16.0132 31.4415C16.0033 31.4314 16.3015 31.2923 16.6793 31.1283C18.9408 30.1392 21.2868 29.0159 22.0919 28.5338C22.1863 28.4742 22.2609 28.4444 22.2759 28.4444ZM10.9385 28.8321C10.9485 28.842 10.3172 29.7516 9.43246 30.9892C9.12433 31.4216 8.76647 31.9286 8.6323 32.1174C8.49808 32.3063 8.29432 32.6046 8.17999 32.7835L7.97115 33.1066L7.74747 32.9177C7.48403 32.699 7.02681 32.2318 6.82303 31.9733C6.39555 31.4416 6.10733 30.8799 5.993 30.368C5.93832 30.1294 5.93832 30.01 5.98796 29.9952C6.0625 29.9753 7.38959 29.6622 8.63225 29.3738C9.32313 29.2148 10.1233 29.026 10.4116 28.9564C10.6999 28.8867 10.9336 28.8321 10.9385 28.8321ZM11.5747 29.0756L11.7337 29.2546C12.4495 30.0548 13.1801 30.6464 14.0648 31.1632C14.2239 31.2527 14.3432 31.3322 14.3332 31.3372C14.2985 31.362 11.2615 32.4405 9.85495 32.9276C9.06471 33.2059 8.41355 33.4296 8.40864 33.4296C8.40369 33.4296 8.35893 33.3998 8.30915 33.365L8.21974 33.3004L8.36386 33.0917C8.83104 32.4157 9.41763 31.6751 10.695 30.1343L11.5747 29.0756ZM15.5411 31.9137C15.546 31.9087 15.7647 31.9882 16.033 32.0877C16.6793 32.3312 17.1911 32.4853 17.8771 32.6593C18.7221 32.873 19.9447 33.0818 20.6655 33.1414C20.7748 33.1513 20.8345 33.1613 20.8146 33.1762C20.7797 33.1961 20.0492 33.4396 19.5124 33.6086C18.6574 33.877 16.048 34.6474 13.9207 35.2588C13.5281 35.3731 13.1901 35.4675 13.1702 35.4724C13.1205 35.4824 12.9565 35.4376 12.9565 35.4178C12.9565 35.4079 13.0757 35.2538 13.2199 35.0848C13.9356 34.2299 14.6464 33.2756 15.2379 32.371C15.4018 32.1224 15.5411 31.9186 15.5411 31.9137ZM14.6662 31.9386C14.6712 31.9435 14.3183 32.5101 13.7021 33.4843C13.4386 33.8968 13.1453 34.364 13.0409 34.5281C12.9415 34.6871 12.7924 34.9357 12.708 35.0748L12.5638 35.3283L12.4892 35.3084C12.3103 35.2587 11.0528 34.8163 10.7198 34.6821C10.3072 34.5181 9.87977 34.3193 9.56164 34.1503C9.16407 33.9366 8.66707 33.6185 8.70679 33.6086C8.71671 33.6036 9.39767 33.4196 10.2177 33.196C12.3948 32.6045 13.6025 32.2616 14.3929 32.0131C14.537 31.9683 14.6613 31.9335 14.6662 31.9386ZM20.8543 33.3898H20.8593C20.8792 33.4396 20.074 35.6762 19.7806 36.382C19.7161 36.541 19.6913 36.5809 19.6565 36.5758C19.572 36.5709 18.404 36.4069 17.6931 36.3025C16.4556 36.1136 14.378 35.7507 13.8561 35.6315L13.7368 35.6067L14.4773 35.4376C16.0679 35.0797 16.8333 34.8859 17.6086 34.6473C18.5878 34.3491 19.5571 33.9763 20.5362 33.5191C20.6903 33.4495 20.8195 33.3948 20.8543 33.3898Z" fill="url(#paint0_linear_92_48)"/>
<path d="M17.1616 4.00025C17.0522 3.98543 15.2877 4.62162 14.1495 5.0838C12.6136 5.71014 11.4208 6.30661 10.6852 6.82342C10.4119 7.01734 10.0688 7.36025 10.0142 7.49442C9.99437 7.54414 9.98438 7.60378 9.98438 7.66341L10.6504 8.29466L12.2359 8.80163L16.0084 9.47761L20.3226 10.2182L20.3674 9.84543C20.3525 9.84543 20.3425 9.84048 20.3278 9.84048L19.761 9.75098L19.6468 9.54722C19.0602 8.51336 18.4141 7.231 18.0364 6.36616C17.7431 5.69515 17.4648 4.91985 17.3107 4.36315C17.2262 4.02517 17.2163 4.0053 17.1617 4.00035V4.00023H17.1616V4.00025ZM17.0819 4.25382H17.087C17.0919 4.25872 17.1118 4.39799 17.1317 4.56191C17.2161 5.25786 17.3704 5.92875 17.6139 6.65445C17.7977 7.20121 17.7977 7.17141 17.584 7.10675C17.0771 6.96763 14.8056 6.57496 13.1605 6.34633C12.897 6.31152 12.6733 6.27675 12.6733 6.2718C12.6535 6.25192 13.8612 5.62064 14.3931 5.37218C15.074 5.05898 16.9428 4.27864 17.0819 4.25382ZM12.2905 6.48051L12.4845 6.54505C13.5381 6.90297 16.1872 7.40996 17.6486 7.52924C17.8126 7.54416 17.9518 7.5591 17.9567 7.5591C17.9616 7.56405 17.8226 7.63861 17.6436 7.72307C16.9379 8.07598 16.1625 8.50841 15.6257 8.84144C15.4667 8.9408 15.3224 9.02038 15.3026 9.02038C15.2827 9.02038 15.1784 9.00048 15.069 8.98556L14.8702 8.95569L14.3733 8.46857C13.4985 7.6187 12.8125 6.96263 12.5491 6.71406L12.2905 6.48051ZM12.0918 6.63455L12.7926 7.50937C13.1753 7.99149 13.563 8.46365 13.6476 8.56798C13.732 8.67242 13.8016 8.75695 13.7967 8.7619C13.7768 8.7768 12.7828 8.58292 12.2558 8.46369C11.7141 8.3394 11.4904 8.27976 11.1574 8.17543L10.884 8.08592V8.01629C10.889 7.68326 11.3115 7.18626 12.0272 6.67934L12.0918 6.63455ZM18.0462 7.82745C18.0662 7.82745 18.0909 7.87217 18.1506 8.00637C18.3196 8.37912 18.8465 9.38318 18.9756 9.57699C19.0155 9.64167 19.085 9.64662 18.3842 9.5323C16.6993 9.25886 16.1575 9.16949 16.1575 9.15955C16.1575 9.1546 16.2072 9.11978 16.2718 9.08496C16.7938 8.79674 17.3206 8.4289 17.7878 8.03623C17.9021 7.94178 18.0065 7.85232 18.0263 7.83738C18.0313 7.82745 18.0413 7.8225 18.0462 7.82745Z" fill="url(#paint1_linear_92_48)"/>
<path d="M10.0489 7.4248C10.0489 7.4248 9.93966 7.59884 10.044 7.85731C10.1087 8.0163 10.2975 8.21012 10.5112 8.40897C10.5112 8.40897 12.723 10.5661 12.9914 10.8743C14.2141 12.2858 14.7459 13.6775 14.7956 15.5961C14.8255 16.8287 14.5918 17.9123 14.0103 19.1698C12.9765 21.4263 10.7945 23.9165 7.42957 26.68L7.92171 26.516C8.23979 26.2773 8.67222 26.0239 9.68614 25.4672C12.0271 24.1848 14.6614 23.0069 17.8922 21.7941C22.5443 20.0445 30.1937 17.9967 34.5477 17.3307L35 17.2611L34.9304 17.1518C34.5329 16.5354 34.2594 16.1527 33.9313 15.7452C32.9771 14.5622 31.8191 13.603 30.4024 12.8077C28.4541 11.7193 25.934 10.8693 22.7432 10.2381C22.1418 10.1187 20.8196 9.89014 19.7461 9.72612C17.4696 9.37331 15.9984 9.12972 14.3781 8.85137C13.7966 8.75192 12.9267 8.60285 12.3502 8.47863C12.052 8.41394 11.4804 8.27977 11.0331 8.1257C10.6753 7.98646 10.1583 7.84729 10.0489 7.4248ZM11.3314 8.66744C11.3363 8.66254 11.4158 8.69226 11.5202 8.72708C11.7091 8.79162 11.9526 8.8662 12.241 8.94578C12.4591 9.00579 12.6778 9.06377 12.897 9.11972C13.1953 9.19424 13.4437 9.26384 13.4487 9.26384C13.4835 9.29866 13.9856 10.904 14.1546 11.5203C14.2191 11.754 14.2689 11.9527 14.2639 11.9527C14.2588 11.9578 14.2042 11.8732 14.1396 11.7589C13.5581 10.735 12.6385 9.69623 11.5749 8.86118C11.4358 8.76187 11.3314 8.67239 11.3314 8.66744ZM13.7768 9.3434C13.8016 9.3434 13.911 9.35832 14.0451 9.38812C14.8901 9.57698 16.4061 9.86527 17.3752 10.0293C17.5393 10.0541 17.6685 10.084 17.6685 10.0939C17.6685 10.1039 17.6088 10.1386 17.5343 10.1784C17.3703 10.2629 16.7092 10.6555 16.4906 10.8046C15.9388 11.1724 15.4418 11.5701 15.0839 11.9279C14.9398 12.0721 14.8155 12.1914 14.8155 12.1914C14.8155 12.1914 14.7858 12.1069 14.7608 12.0025C14.582 11.3116 14.2091 10.2877 13.8712 9.56701C13.8165 9.45273 13.7717 9.34833 13.7717 9.33843C13.7717 9.34835 13.7717 9.3434 13.7768 9.3434ZM18.081 10.1635C18.1109 10.1734 18.1606 10.3424 18.26 10.7152C18.4439 11.4359 18.5284 12.2411 18.4986 12.9916C18.4886 13.2004 18.4787 13.3942 18.4687 13.4191L18.4538 13.4687L18.1954 13.3843C17.6635 13.2153 16.7987 12.9618 16.0582 12.753C15.6356 12.6387 15.2928 12.5343 15.2928 12.5244C15.2928 12.4945 15.9091 11.8782 16.1725 11.6447C16.6744 11.2022 18.0363 10.1486 18.081 10.1635ZM18.424 10.2131C18.4389 10.1983 20.4817 10.5511 21.4112 10.7301C22.1021 10.8643 23.1061 11.073 23.1657 11.0979C23.1955 11.1078 23.0911 11.1675 22.7581 11.3166C21.446 11.9081 20.4717 12.4398 19.5026 13.086C19.2491 13.255 19.0354 13.3942 19.0304 13.3942C19.0255 13.3942 19.0205 13.2501 19.0205 13.0761C19.0205 12.1318 18.8316 11.1774 18.4836 10.3723C18.4488 10.2927 18.419 10.2182 18.424 10.2131ZM23.7074 11.257C23.7224 11.2719 23.6577 11.6745 23.5981 11.913C23.4192 12.6536 22.9371 13.7522 22.3457 14.7859C22.2412 14.9698 22.1468 15.1189 22.1368 15.1239C22.1269 15.1288 21.9927 15.0543 21.8386 14.9648C21.2621 14.6268 20.606 14.3087 19.8902 14.0105C19.6915 13.926 19.5175 13.8564 19.5125 13.8465C19.4777 13.8167 21.0781 12.758 21.9231 12.251C22.5941 11.8435 23.6875 11.2371 23.7074 11.257ZM24.0852 11.3166C24.1299 11.3166 25.0345 11.5651 25.5066 11.7043C26.6747 12.0523 28.0167 12.5443 28.8915 12.9419L29.2542 13.106L29.0008 13.1656C26.8637 13.6576 25.0345 14.2243 23.27 14.94C23.1259 14.9996 22.9966 15.0494 22.9868 15.0494C22.9768 15.0494 23.0265 14.9351 23.0911 14.7958C23.623 13.6676 23.9659 12.4896 24.0503 11.4856C24.0554 11.3911 24.0702 11.3166 24.0852 11.3166ZM15.079 13.3843C15.0939 13.3693 15.7848 13.5334 16.1575 13.6377C16.7241 13.7968 17.9269 14.1993 17.9269 14.2292C17.9269 14.2342 17.7928 14.3485 17.6338 14.4877C16.9827 15.0295 16.3563 15.601 15.6058 16.3267C15.3821 16.5405 15.1933 16.7144 15.1834 16.7144C15.1734 16.7144 15.1685 16.6845 15.1734 16.6448C15.2877 15.8097 15.2629 14.7362 15.1039 13.6477C15.0889 13.5085 15.074 13.3892 15.079 13.3843ZM29.5973 13.3992C29.6072 13.4091 29.2792 13.926 29.0704 14.2192C28.7723 14.6467 28.3348 15.2134 27.3457 16.456C26.8239 17.112 26.2373 17.8526 26.0435 18.1011C25.8446 18.3496 25.6807 18.5583 25.6756 18.5583C25.6707 18.5583 25.6062 18.4689 25.5365 18.3596C24.9798 17.5245 24.3138 16.7939 23.5235 16.1378C23.3744 16.0135 23.2104 15.8793 23.1558 15.8396C23.1011 15.7998 23.0563 15.7601 23.0563 15.7551C23.0563 15.7402 23.9012 15.3773 24.5425 15.1189C25.6658 14.6616 27.1965 14.1149 28.3447 13.762C28.9461 13.5731 29.5873 13.3892 29.5973 13.3992ZM29.98 13.4986C29.9998 13.4936 30.1192 13.5533 30.2633 13.6377C31.4711 14.3286 32.654 15.2183 33.5885 16.1329C33.8519 16.3914 34.503 17.0673 34.493 17.0723C34.493 17.0723 34.2644 17.0921 33.996 17.112C31.9035 17.2711 29.2246 17.7134 26.6499 18.3347C26.476 18.3744 26.3219 18.4092 26.3119 18.4092C26.3021 18.4092 26.4959 18.2154 26.7395 17.9818C28.2504 16.5255 28.9413 15.606 29.7564 13.9657C29.8707 13.7223 29.9701 13.5135 29.98 13.4986C29.9751 13.4986 29.9751 13.4986 29.98 13.4986ZM18.9111 14.6319C18.9807 14.6467 19.6268 14.95 20.1139 15.1935C20.5612 15.4171 21.2323 15.775 21.267 15.8048C21.272 15.8097 21.0334 15.934 20.7403 16.0782C19.8058 16.5454 19.0056 16.9877 18.1705 17.4947C17.9319 17.6388 17.7331 17.7582 17.7282 17.7582C17.7083 17.7582 17.7132 17.7382 17.8475 17.4947C18.2948 16.6796 18.6526 15.7054 18.8565 14.7561C18.8763 14.6815 18.8962 14.6319 18.9111 14.6319ZM18.2649 14.7511C18.2798 14.766 18.1109 15.3773 18.0065 15.7104C17.8027 16.3416 17.4597 17.1319 17.1268 17.7283C17.0472 17.8674 16.9279 18.0712 16.8633 18.1855L16.7391 18.3843L16.4607 18.116C16.1377 17.8029 15.8742 17.609 15.5363 17.435C15.402 17.3655 15.2977 17.3058 15.2977 17.2959C15.2977 17.2562 16.1476 16.4858 16.7987 15.9291C17.2659 15.5265 18.25 14.7362 18.2649 14.7511ZM22.2164 16.3764L22.46 16.5354C23.0165 16.8983 23.6726 17.3804 24.1747 17.8029C24.4579 18.0364 25.0047 18.5286 25.1141 18.6478L25.1736 18.7125L24.7711 18.8268C22.4947 19.458 20.7352 20.0196 18.6824 20.7752C18.4538 20.8596 18.26 20.9292 18.245 20.9292C18.2153 20.9292 18.1903 20.954 18.7024 20.4818C20.0146 19.2742 21.1775 17.942 22.0424 16.6448L22.2164 16.3764ZM21.1776 16.6349C21.1875 16.6448 20.5066 17.604 20.099 18.1458C19.6119 18.792 18.747 19.8755 18.1506 20.5812C17.9021 20.8745 17.6885 21.1181 17.6785 21.123C17.6635 21.128 17.6586 21.0535 17.6586 20.9391C17.6586 20.3377 17.5045 19.6965 17.2361 19.1498C17.1218 18.9212 17.1019 18.8665 17.1268 18.8417C17.2212 18.7571 18.6676 17.9321 19.5821 17.44C20.1984 17.112 21.1626 16.6249 21.1776 16.6349ZM14.895 18.1757C14.91 18.1757 15.0243 18.2353 15.1535 18.3049C15.4716 18.4788 15.7549 18.6727 16.0084 18.8815C16.0183 18.8914 15.8891 18.9958 15.7202 19.12C15.248 19.458 14.5323 19.9998 14.1148 20.3328C13.6773 20.6807 13.6625 20.6907 13.7121 20.6161C14.0402 20.1141 14.2042 19.8308 14.3782 19.468C14.5323 19.145 14.6863 18.7622 14.7956 18.4292C14.8354 18.285 14.8851 18.1757 14.895 18.1757ZM16.5701 19.4878C16.5949 19.4829 16.6248 19.5276 16.7589 19.7264C17.0422 20.1488 17.2609 20.7155 17.3157 21.1728L17.3255 21.2722L16.6447 21.5357C15.4269 22.0078 14.3036 22.4751 13.5431 22.8229C13.3294 22.9224 12.9566 23.1013 12.7131 23.2206C12.4696 23.3448 12.2707 23.4393 12.2707 23.4343C12.2707 23.4294 12.4248 23.315 12.6137 23.1758C14.0999 22.0973 15.3871 20.9143 16.3514 19.7314C16.4558 19.6071 16.5503 19.4928 16.5601 19.4878L16.5701 19.4878ZM15.7997 19.6767C15.8196 19.6966 15.253 20.3377 14.8653 20.7304C13.906 21.7096 12.9567 22.4751 11.7787 23.2206C11.6296 23.315 11.4954 23.3995 11.4805 23.4095C11.4456 23.4294 11.4904 23.3796 12.0073 22.818C12.3354 22.4651 12.5839 22.1669 12.8672 21.7991C13.056 21.5556 13.0909 21.5208 13.3643 21.3269C14.0949 20.8 15.7798 19.6568 15.7997 19.6767Z" fill="url(#paint2_radial_92_48)"/>
<defs>
<linearGradient id="paint0_linear_92_48" x1="9.9472" y1="33.5875" x2="24.9004" y2="22.4078" gradientUnits="userSpaceOnUse">
<stop offset="0.06" stop-color="#909CA9"/>
<stop offset="1" stop-color="#EDEDEE"/>
</linearGradient>
<linearGradient id="paint1_linear_92_48" x1="10.4727" y1="7.48257" x2="18.4328" y2="7.48257" gradientUnits="userSpaceOnUse">
<stop stop-color="#939FAB"/>
<stop offset="1" stop-color="#DCDEE1"/>
</linearGradient>
<radialGradient id="paint2_radial_92_48" cx="0" cy="0" r="1" gradientUnits="userSpaceOnUse" gradientTransform="translate(25 16) rotate(-172.942) scale(12.6329 25.2721)">
<stop offset="0.405" stop-color="#EE352C"/>
<stop offset="1" stop-color="#A91D22"/>
</radialGradient>
</defs>
</svg>
