<svg width="40" height="40" viewBox="0 0 40 40" fill="none" xmlns="http://www.w3.org/2000/svg">
<path d="M30.5066 19.4442C30.5066 18.9658 30.3165 18.5069 29.9782 18.1686C29.6399 17.8303 29.181 17.6402 28.7026 17.6402C28.2241 17.6402 27.7653 17.8303 27.4269 18.1686C27.0886 18.5069 26.8985 18.9658 26.8985 19.4442C26.908 19.7872 27.0235 20.1188 27.2292 20.3934C27.4349 20.668 27.7206 20.8721 28.0471 20.9777V23.7258C27.2608 21.7122 25.7894 20.0406 23.8918 19.0052C24.1684 18.4039 24.4511 17.8867 24.7217 17.4117C25.7553 15.8827 26.8947 14.4279 28.1313 13.0579C28.8108 12.2521 29.4543 11.4944 29.9774 10.833C31.4447 8.99283 33.0563 6.27475 32.7557 4.66314C32.7191 4.43726 32.6327 4.22235 32.5027 4.03407C32.3726 3.84579 32.2023 3.68886 32.004 3.5747C29.9654 2.37201 27.1932 6.28076 24.4691 10.0512C22.6651 12.5408 21.733 16.0647 21.306 18.0431C20.4705 17.8601 19.6177 17.7673 18.7623 17.7665C17.5187 17.7626 16.283 17.9658 15.1061 18.3678C15.0296 16.1609 15.0959 13.9514 15.3046 11.753C15.9059 6.03421 15.6413 2.6787 14.5289 1.53013C14.3861 1.35747 14.2056 1.21996 14.0012 1.1282C13.7968 1.03644 13.5741 0.9929 13.3502 1.00094C10.0669 1.16331 10.4397 10.9713 10.4938 12.0898C10.6261 14.7718 11.6965 18.0311 12.346 19.8351C10.8305 21.034 9.72691 22.6757 9.1889 24.5316H8.95437C8.70726 24.5203 8.46036 24.5582 8.22798 24.643C7.9956 24.7278 7.78234 24.8578 7.60057 25.0256C7.4188 25.1934 7.27213 25.3956 7.16904 25.6205C7.06595 25.8453 7.00849 26.0884 7 26.3357V29.4446C7.00928 29.6916 7.06727 29.9343 7.17063 30.1588C7.27399 30.3833 7.42068 30.5851 7.60229 30.7528C7.78389 30.9204 7.99682 31.0505 8.22886 31.1356C8.46089 31.2207 8.70745 31.2591 8.95437 31.2486H9.35126C9.80322 32.308 10.478 33.2576 11.3297 34.0329L10.7283 34.5621C10.5881 34.6831 10.5013 34.8545 10.4867 35.0391C10.472 35.2237 10.5308 35.4067 10.6502 35.5483C12.4542 37.7432 15.4068 39 18.7202 39C22.0337 39 24.9983 37.7432 26.7903 35.5483C26.9097 35.4067 26.9684 35.2237 26.9538 35.0391C26.9392 34.8545 26.8523 34.6831 26.7121 34.5621L26.1108 34.0329C26.965 33.2409 27.6396 32.2751 28.0892 31.2005H28.5402C28.7871 31.211 29.0337 31.1726 29.2657 31.0875C29.4978 31.0024 29.7107 30.8723 29.8923 30.7047C30.0739 30.537 30.2206 30.3352 30.324 30.1107C30.4273 29.8862 30.4853 29.6435 30.4946 29.3965V26.3116C30.4857 25.9591 30.3716 25.6172 30.1669 25.33C29.9623 25.0428 29.6764 24.8234 29.346 24.7V20.9777C29.6752 20.875 29.964 20.6719 30.1721 20.397C30.3802 20.122 30.4972 19.7889 30.5066 19.4442Z" fill="#CDCCCC"/>
<path d="M15.7916 34.5198C16.3448 34.153 14.8895 34.2913 14.7693 34.0448C14.1881 33.9933 13.6126 33.8907 13.0494 33.7381C12.0271 33.4675 9.57363 31.8198 9.30904 30.2383C9.04445 28.6567 9.30904 25.656 10.4155 23.852C11.1083 22.7529 12.0018 21.7941 13.0494 21.0256C13.0494 21.0256 10.9026 15.9202 10.7222 12.0656C10.5418 8.21095 10.8425 1.3496 13.3561 1.22933C15.8697 1.10906 15.5029 7.53143 15.076 11.7108C14.8224 14.4858 14.7822 17.2763 14.9557 20.0575C16.0264 19.7174 17.14 19.5311 18.2631 19.5042C19.2527 19.4813 20.2416 19.5741 21.2097 19.7809C21.2097 19.7809 22.0095 13.8636 24.6434 10.1593C27.2773 6.45502 30.0555 2.67256 31.8595 3.74897C33.6636 4.82538 31.3664 8.66798 29.7728 10.6705C28.1793 12.6729 25.4191 15.6797 24.499 17.2853C23.8959 18.3537 23.3635 19.4605 22.9055 20.5987C24.5463 21.4408 25.888 22.7677 26.7481 24.3992C28.047 26.991 28.1432 30.1781 27.4456 31.5312C27.0954 32.156 26.6113 32.6956 26.0281 33.1115C25.4449 33.5273 24.7769 33.809 24.0721 33.9365C23.2723 33.9726 19.9108 34.8085 19.9108 34.8085L15.7916 34.5198Z" fill="white"/>
<path d="M21.6787 19.8349C21.6787 19.8349 23.6872 14.5972 25.4852 11.6566C27.2833 8.716 29.6947 6.49102 30.4523 6.94203C31.21 7.39304 28.9069 10.1412 26.8864 12.8412C25.2405 15.2254 23.7481 17.712 22.4184 20.2859L21.6787 19.8349Z" fill="#DD00A1"/>
<path d="M13.6148 20.731L14.2161 20.286C14.2161 20.286 14.1319 15.0482 14.2161 11.8671C14.3003 8.68601 14.4626 4.71111 13.3983 4.74719C12.3339 4.78327 11.5942 7.85615 12.0092 12.1919C12.3079 15.0776 12.845 17.9337 13.6148 20.731Z" fill="#DD00A1"/>
<path d="M11.8227 31.9583C12.467 31.9583 12.9894 31.436 12.9894 30.7917C12.9894 30.1474 12.467 29.6251 11.8227 29.6251C11.1784 29.6251 10.6561 30.1474 10.6561 30.7917C10.6561 31.436 11.1784 31.9583 11.8227 31.9583Z" fill="#F9D8D2"/>
<path d="M25.6117 31.9583C26.256 31.9583 26.7783 31.436 26.7783 30.7917C26.7783 30.1474 26.256 29.6251 25.6117 29.6251C24.9674 29.6251 24.4451 30.1474 24.4451 30.7917C24.4451 31.436 24.9674 31.9583 25.6117 31.9583Z" fill="#F9D8D2"/>
<path d="M20.6503 30.6953C20.6378 30.6879 20.6238 30.6831 20.6094 30.6813C20.5949 30.6794 20.5802 30.6804 20.5662 30.6844C20.5521 30.6883 20.539 30.695 20.5277 30.7041C20.5163 30.7133 20.5069 30.7246 20.5 30.7374C20.5 30.7374 20.1512 31.3388 19.6461 31.3749C19.475 31.3698 19.3067 31.3299 19.1516 31.2575C18.9965 31.1851 18.8578 31.0818 18.744 30.9539V30.0639C19.0688 29.8835 19.5919 29.3423 19.5919 29.1559C19.5464 28.9572 19.4307 28.7815 19.2661 28.6611C19.1016 28.5407 18.8991 28.4837 18.6959 28.5004C18.0946 28.5004 17.6737 28.8913 17.6737 29.216C17.6737 29.5407 18.3351 29.9617 18.5215 30.082V30.9599C18.4266 31.0804 18.3075 31.1796 18.1718 31.2511C18.0361 31.3226 17.8868 31.3648 17.7338 31.3749C17.2587 31.3749 16.8979 30.7254 16.8919 30.7194C16.8778 30.6936 16.8544 30.6742 16.8264 30.6652C16.7984 30.6562 16.768 30.6584 16.7416 30.6713C16.7153 30.6865 16.6958 30.711 16.6868 30.74C16.6779 30.769 16.6803 30.8003 16.6935 30.8276C16.6935 30.8276 17.1204 31.6034 17.7338 31.6034C17.907 31.5958 18.0769 31.553 18.2331 31.4775C18.3892 31.402 18.5283 31.2955 18.6418 31.1644C18.8914 31.4259 19.231 31.5828 19.5919 31.6034H19.6641C19.8808 31.5607 20.0853 31.4707 20.2631 31.3397C20.4409 31.2087 20.5875 31.04 20.6924 30.8457C20.6998 30.8331 20.7046 30.8192 20.7065 30.8047C20.7084 30.7903 20.7073 30.7756 20.7034 30.7615C20.6995 30.7475 20.6927 30.7344 20.6836 30.723C20.6745 30.7116 20.6632 30.7022 20.6503 30.6953Z" fill="#10110E"/>
<path d="M13.0498 21.038C13.0498 21.038 11.3841 16.8286 11.0653 14.6277C10.7466 12.4267 10.464 8.75251 10.8849 6.30503C11.0658 5.17751 11.3107 4.06121 11.6186 2.96155C11.6186 2.96155 10.8428 8.66832 11.1315 11.1639C11.4201 13.6595 13.0498 21.038 13.0498 21.038Z" fill="#E5E5E5"/>
<path d="M21.2098 19.7808C21.2098 19.7808 22.4125 13.4125 24.1624 10.9109C25.9124 8.40934 28.0832 5.37254 29.1837 4.60883L30.2842 3.83911C30.2842 3.83911 25.8703 8.46948 24.1624 12.258C22.4546 16.0464 21.2098 19.7808 21.2098 19.7808Z" fill="#E5E5E5"/>
<path d="M14.2161 26.9968C14.035 26.9957 13.8577 27.0482 13.7066 27.148C13.5555 27.2477 13.4374 27.39 13.3673 27.5569C13.2972 27.7238 13.2783 27.9078 13.3129 28.0855C13.3474 28.2632 13.434 28.4266 13.5616 28.5551C13.6892 28.6835 13.8521 28.7712 14.0295 28.8069C14.207 28.8427 14.3911 28.8249 14.5585 28.7559C14.7258 28.6869 14.8689 28.5698 14.9696 28.4193C15.0703 28.2689 15.1241 28.0919 15.1241 27.9109C15.1241 27.6695 15.0286 27.4379 14.8585 27.2667C14.6884 27.0954 14.4575 26.9984 14.2161 26.9968ZM14.4747 27.8447C14.4093 27.8447 14.3466 27.8188 14.3003 27.7725C14.2541 27.7263 14.2281 27.6636 14.2281 27.5982C14.2281 27.5328 14.2541 27.4701 14.3003 27.4239C14.3466 27.3776 14.4093 27.3516 14.4747 27.3516C14.54 27.3516 14.6028 27.3776 14.649 27.4239C14.6952 27.4701 14.7212 27.5328 14.7212 27.5982C14.7213 27.6316 14.7145 27.6647 14.7014 27.6954C14.6882 27.7261 14.669 27.7539 14.6448 27.7769C14.6206 27.8 14.592 27.8179 14.5607 27.8295C14.5294 27.8412 14.496 27.8464 14.4626 27.8447H14.4747Z" fill="#10110E"/>
<path d="M23.1882 26.9968C23.0074 26.9968 22.8307 27.0504 22.6804 27.1509C22.5301 27.2513 22.4129 27.3941 22.3437 27.5611C22.2746 27.7281 22.2565 27.9119 22.2917 28.0892C22.327 28.2665 22.4141 28.4294 22.5419 28.5572C22.6697 28.685 22.8326 28.7721 23.0099 28.8074C23.1872 28.8426 23.371 28.8245 23.538 28.7553C23.705 28.6862 23.8478 28.569 23.9482 28.4187C24.0487 28.2684 24.1023 28.0917 24.1023 27.9109C24.1023 27.6685 24.006 27.436 23.8345 27.2645C23.6631 27.0931 23.4306 26.9968 23.1882 26.9968ZM23.4468 27.8447C23.3819 27.8432 23.3201 27.8167 23.2741 27.7708C23.2282 27.7249 23.2018 27.6631 23.2002 27.5982C23.2095 27.5386 23.2398 27.4844 23.2855 27.4452C23.3313 27.406 23.3896 27.3845 23.4498 27.3845C23.5101 27.3845 23.5683 27.406 23.6141 27.4452C23.6598 27.4844 23.6901 27.5386 23.6994 27.5982C23.6978 27.6641 23.6705 27.7268 23.6233 27.7729C23.5761 27.819 23.5128 27.8447 23.4468 27.8447Z" fill="#10110E"/>
<path opacity="0.2" d="M18.8644 34.3635C23.5472 34.3635 27.3433 31.6281 27.3433 28.2538C27.3433 24.8796 23.5472 22.1442 18.8644 22.1442C14.1815 22.1442 10.3854 24.8796 10.3854 28.2538C10.3854 31.6281 14.1815 34.3635 18.8644 34.3635Z" fill="#8ACCCE"/>
<path d="M29.1295 24.8561V20.8452C29.4459 20.7754 29.7305 20.6033 29.9392 20.3554C30.148 20.1076 30.2692 19.7978 30.284 19.4741C30.2422 19.083 30.0573 18.7212 29.7648 18.4582C29.4722 18.1953 29.0928 18.0498 28.6995 18.0498C28.3062 18.0498 27.9267 18.1953 27.6342 18.4582C27.3417 18.7212 27.1567 19.083 27.1149 19.4741C27.1285 19.7973 27.2485 20.1069 27.4562 20.3549C27.6639 20.6028 27.9477 20.7752 28.2635 20.8452V24.7539H28.1493C26.9466 20.5806 23.3926 17.9888 18.7562 17.9888C14.1199 17.9888 10.5418 20.5565 9.35719 24.7539H8.95429C8.51854 24.7326 8.09202 24.8843 7.76763 25.176C7.44324 25.4677 7.24727 25.8758 7.22241 26.3114V29.4204C7.2488 29.8548 7.44542 30.2614 7.76964 30.5519C8.09386 30.8423 8.51952 30.9932 8.95429 30.9718H9.50151C9.9665 32.1513 10.7091 33.2013 11.6664 34.0327L10.8846 34.7302C10.8365 34.7707 10.7969 34.8203 10.7682 34.8762C10.7394 34.932 10.722 34.9931 10.7169 35.0557C10.7119 35.1183 10.7193 35.1814 10.7388 35.2411C10.7583 35.3008 10.7895 35.3561 10.8305 35.4038C12.5864 37.5265 15.4669 38.7713 18.7262 38.7713C21.9855 38.7713 24.8659 37.5686 26.6218 35.4038C26.6628 35.3561 26.694 35.3008 26.7135 35.2411C26.733 35.1814 26.7404 35.1183 26.7354 35.0557C26.7304 34.9931 26.713 34.932 26.6842 34.8762C26.6554 34.8203 26.6158 34.7707 26.5677 34.7302L25.786 34.0327C26.7392 33.1977 27.4811 32.1488 27.9508 30.9718H28.5522C28.9869 30.9932 29.4126 30.8423 29.7368 30.5519C30.061 30.2614 30.2577 29.8548 30.284 29.4204V26.3114C30.2706 25.9778 30.1516 25.6571 29.944 25.3955C29.7365 25.1339 29.4513 24.9451 29.1295 24.8561ZM18.7562 22.4207C23.0498 22.4207 26.5377 25.247 26.5377 28.7168C26.5377 32.4752 22.6169 34.1289 18.7562 34.1289C14.8956 34.1289 10.9748 32.4451 10.9748 28.7168C10.9748 25.247 14.4626 22.4207 18.7562 22.4207Z" fill="white"/>
<path d="M29.4181 28.3804H28.2635C28.2635 28.2 28.2635 28.0196 28.2635 27.8152C28.2629 27.0478 28.1864 26.2823 28.035 25.53H28.5221C28.6307 25.5227 28.7397 25.5373 28.8425 25.5729C28.9453 25.6086 29.04 25.6645 29.1207 25.7374C29.2015 25.8104 29.2668 25.8988 29.3127 25.9975C29.3587 26.0961 29.3843 26.203 29.3881 26.3118L29.4181 28.3804Z" fill="#515151"/>
<path d="M28.5524 30.1961H27.951C28.0655 29.7713 28.1519 29.3394 28.2096 28.9032H29.4123V29.4204C29.4085 29.5283 29.3831 29.6344 29.3375 29.7324C29.2918 29.8303 29.227 29.9181 29.1468 29.9905C29.0665 30.0628 28.9726 30.1183 28.8705 30.1537C28.7684 30.189 28.6602 30.2034 28.5524 30.1961Z" fill="#515151"/>
<path d="M18.7561 37.9716C15.8697 37.9716 13.3079 36.9312 11.6903 35.0911L12.5021 34.3695C14.35 35.6033 16.535 36.2336 18.7561 36.1735C20.9771 36.2324 23.1618 35.6022 25.0101 34.3695L25.8159 35.0911C24.2043 36.9312 21.6366 37.9716 18.7561 37.9716Z" fill="#515151"/>
<path d="M8.9543 25.5296H9.47146C9.32131 26.2821 9.24478 27.0474 9.24295 27.8147C9.2286 28.0029 9.2286 28.1918 9.24295 28.38H8.11843V26.3113C8.11634 26.2034 8.13697 26.0963 8.17897 25.9969C8.22098 25.8975 8.28341 25.808 8.36224 25.7343C8.44106 25.6606 8.5345 25.6042 8.6365 25.569C8.7385 25.5337 8.84678 25.5203 8.9543 25.5296Z" fill="#515151"/>
<path d="M18.7561 21.9037C17.7793 21.9066 16.8077 22.0462 15.8696 22.3186V19.1856C16.8084 18.9193 17.7803 18.7877 18.7561 18.7947C19.7299 18.7881 20.6997 18.9197 21.6365 19.1856V22.3426C20.7042 22.0509 19.733 21.9029 18.7561 21.9037Z" fill="black"/>
<path d="M15.2986 19.3661V22.5292C12.4121 23.5875 10.3976 25.9749 10.3976 28.717C10.3976 32.271 13.7712 34.6764 18.7563 34.6764C23.7415 34.6764 27.115 32.271 27.115 28.717C27.115 25.9749 25.0945 23.5875 22.2141 22.5292V19.3661C25.5876 20.5688 27.6923 23.6898 27.6923 27.8391C27.6923 32.5055 24.1143 35.6566 18.7563 35.6566C13.3983 35.6566 9.82031 32.5235 9.82031 27.8391C9.82031 23.6898 11.925 20.5808 15.2986 19.3661Z" fill="#515151"/>
<path d="M8.08841 28.9032H9.2911C9.34596 29.3398 9.43238 29.7719 9.54968 30.1961H8.94834C8.84024 30.2034 8.73177 30.189 8.62932 30.1538C8.52687 30.1185 8.43251 30.0631 8.35181 29.9908C8.27111 29.9185 8.2057 29.8308 8.15943 29.7328C8.11316 29.6348 8.08697 29.5286 8.0824 29.4204L8.08841 28.9032Z" fill="#515151"/>
<path d="M28.6966 20.0933C29.0951 20.0933 29.4182 19.8026 29.4182 19.4439C29.4182 19.0852 29.0951 18.7944 28.6966 18.7944C28.2981 18.7944 27.975 19.0852 27.975 19.4439C27.975 19.8026 28.2981 20.0933 28.6966 20.0933Z" fill="#515151"/>
</svg>
