<svg width="268" height="64" viewBox="0 0 268 64" fill="none" xmlns="http://www.w3.org/2000/svg">
<path d="M16.3365 6.48329C19.5496 4.88827 22.5508 4.24677 25.2753 4.24677C27.939 4.24677 31.1673 4.88913 34.4567 6.54936C37.2076 7.93779 40.6973 11.3297 40.6973 11.3297C43.4342 13.9935 46.6517 14.4677 47.9183 14.3719L46.1905 15.6721C44.2907 16.8302 41.7873 18.5631 41.0315 19.0897C40.3474 19.5664 40.2267 20.4968 40.7459 21.1246C40.7459 21.1246 42.166 23.1894 42.7883 23.5947C43.4105 24 45.025 24.8715 45.5093 22.9286C45.6453 22.3199 45.9965 21.6031 46.4732 20.8315L56.8261 13.0408C58.2412 11.9759 57.8198 10.4909 57.4322 9.88152C57.0868 9.29362 55.9775 8.19012 54.3826 8.75125C51.3004 10.1523 48.6114 10.2504 47.6521 10.1243C46.1378 10.2292 44.3628 8.88875 43.6645 8.20538C41.4394 6.03368 39.8033 4.48823 36.4973 2.79354C33.1619 1.08374 28.687 0 25.2753 0C21.9246 0 18.0657 0.802021 14.0567 2.8596C6.1533 6.91584 2.54999 13.4408 0.6826 20.9865C0.193357 23.5947 -0.27471 29.5 0.193341 33C0.842373 37.8533 1.61749 40.4061 4.13379 44.6432C5.12444 46.2133 7.70573 49.8172 10.1057 51.6719C10.1057 51.6719 13.2496 54.5 16.8226 56.1374L15.0388 62.5731C14.8394 63.2927 15.3974 64 16.1646 64H17.8445C18.3651 64 18.8226 63.6648 18.9656 63.1786L20.531 57.8568C21.3798 58.1553 22.2104 58.371 22.9874 58.526L21.9827 62.604C21.8073 63.3159 22.3629 64 23.1166 64H24.6204C25.1528 64 25.6175 63.6497 25.7498 63.1488L26.8691 58.9087L30.6382 59.0196C30.6382 59.0196 32.6077 60.7694 33.8124 61.9474C34.0084 62.2069 34.5513 62.7259 35.1547 62.7259H38.9506C39.752 62.7259 40.1313 61.766 39.5356 61.2453L36.1516 58.287L33.1483 55.4705C32.7052 55.0548 32.1184 54.8144 31.5024 54.7963C31.5024 54.7963 28.5859 54.8837 26.7395 54.6571C20.9343 53.9447 17.5551 52.2985 13.1056 48.5825C10.1684 46.1295 8.69255 44.4026 6.87877 41.0675C4.3095 36.3432 3.41943 28.8695 4.9808 21.7642C6.09287 16.7036 9.61052 9.82215 16.3365 6.48329Z" fill="white"/>
<path d="M33.7116 16.7036C34.7262 19.1723 34.155 21.714 32.4357 22.3807C30.7164 23.0474 28.5001 21.5866 27.4855 19.1179C26.4708 16.6492 27.0421 14.1075 28.7613 13.4408C30.4806 12.7741 32.6969 14.2349 33.7116 16.7036Z" fill="white"/>
<path d="M62.3996 46.831C63.354 47.9278 64.128 49.1125 63.9823 50.5281C63.8366 51.9436 62.5249 52.5099 61.6505 52.6514C60.7761 52.793 43.579 55.0579 41.6844 55.1995C40.0078 55.3248 39.7007 55.1175 39.0463 54.6757C38.7514 54.485 32.0337 48.0952 28.7117 44.9241C27.0719 43.7376 25.5874 42.7958 24.54 42.4026C23.5757 42.0406 23.191 40.7311 24.0892 39.9713L26.3243 38.0807C26.9115 37.584 27.8141 37.6147 28.3566 38.1925C28.9914 38.7465 31.0751 41.0255 32.0376 42.0958C35.0833 45.0108 38.7944 48.5704 40.8099 50.5281C42.4131 51.0943 46.2508 50.3865 47.0767 50.1034C47.0767 50.1034 41.4533 43.1234 40.3027 42.2539C39.1521 41.3844 38.1176 40.7144 37.313 40.3923C35.6314 39.5061 36.3926 38.3497 36.9834 37.8823L39.415 36.152C40.0047 35.7324 40.8441 35.7933 41.3551 36.3432C44.3797 40.1278 50.7495 47.98 52.0318 49.1125C53.6349 49.6787 57.3755 49.0653 58.2985 48.6878L46.719 34.2958C44.8607 32.7222 43.1418 31.4339 41.9577 30.9413C41.0161 30.5495 40.651 29.2142 41.6048 28.4793L44.0667 26.5827C44.4837 26.3299 45.4771 26.0222 46.1147 26.8131L47.8054 28.8695L62.3996 46.831Z" fill="white"/>
<path d="M126.432 20.464L128.28 20.296V15.76H115.68V20.52L118.704 20.744L113.944 44.152H113.832L107.784 18.728H100.56L94.736 44.04H94.512L89.64 22.424C89.6027 22.2373 89.584 22.0693 89.584 21.92C89.584 21.0613 90.1627 20.576 91.32 20.464L93.168 20.296V15.76H79.28V20.52L82.472 20.688L90.2 53H98.096L103.808 28.08H103.976L109.856 53H117.528L124.584 22.48C124.845 21.2107 125.461 20.5387 126.432 20.464Z" fill="white"/>
<path fill-rule="evenodd" clip-rule="evenodd" d="M227.941 20.632L218.925 46.728C218.589 47.6987 218.029 48.2213 217.245 48.296L215.397 48.464V53H228.333V48.24L224.973 48.072L226.653 43.144H239.757L240.933 46.616C241.12 47.2133 241.101 47.624 240.877 47.848C240.653 48.072 240.224 48.2213 239.589 48.296L237.461 48.464V53H251.909V48.24L248.717 48.072H248.661L237.237 15.76H224.413V20.296L227.941 20.632ZM227.997 37.992L233.205 22.032H233.373L238.413 37.992H227.997Z" fill="white"/>
<path d="M257.459 46.448V20.688L254.267 20.52V15.76H267.819V20.296L265.971 20.464C264.889 20.576 264.347 21.1733 264.347 22.256V48.072L267.539 48.24V53H253.987V48.464L255.835 48.296C256.395 48.2213 256.806 48.072 257.067 47.848C257.329 47.5867 257.459 47.12 257.459 46.448Z" fill="white"/>
<path d="M183.051 29.3119V24.8319H192.515V28.4719C193.486 27.0906 194.774 26.0079 196.379 25.2239C197.984 24.4026 199.72 23.9919 201.587 23.9919C204.424 23.9919 206.608 24.8133 208.139 26.4559C209.707 28.0613 210.491 30.4879 210.491 33.7359V48.3519L213.683 48.5199V52.9999H200.355V48.7439L202.203 48.5759C202.763 48.5013 203.174 48.3519 203.435 48.1279C203.696 47.8666 203.827 47.3999 203.827 46.7279V35.1919C203.827 33.1386 203.51 31.6266 202.875 30.6559C202.24 29.6479 201.027 29.1439 199.235 29.1439C197.48 29.1439 196.08 29.7039 195.035 30.8239C193.99 31.9439 193.467 33.2693 193.467 34.7999V48.3519L196.659 48.5199V52.9999H183.331V48.7439L185.179 48.5759C185.739 48.5013 186.15 48.3519 186.411 48.1279C186.672 47.8666 186.803 47.3999 186.803 46.7279V31.2159C186.803 30.0959 186.336 29.5173 185.403 29.4799L183.051 29.3119Z" fill="white"/>
<path fill-rule="evenodd" clip-rule="evenodd" d="M170.318 23.9919C173.118 23.9919 175.339 24.6826 176.982 26.0639C178.625 27.4079 179.446 29.3119 179.446 31.7759C179.446 33.4186 179.091 34.8746 178.382 36.1439C177.673 37.3759 176.795 38.3466 175.75 39.0559C174.705 39.7653 173.435 40.3439 171.942 40.7919C169.441 41.5386 166.622 41.9119 163.486 41.9119C163.598 43.8906 164.214 45.4959 165.334 46.7279C166.454 47.9226 168.171 48.5199 170.486 48.5199C172.801 48.5199 175.115 47.6986 177.43 46.0559L179.558 50.5919C178.811 51.2639 177.542 51.9546 175.75 52.6639C173.995 53.3733 171.979 53.7279 169.702 53.7279C165.147 53.7279 161.806 52.4773 159.678 49.9759C157.55 47.4373 156.486 43.9653 156.486 39.5599C156.486 35.1546 157.699 31.4586 160.126 28.4719C162.553 25.4853 165.95 23.9919 170.318 23.9919ZM167.742 36.8159C169.123 36.5546 170.393 36.0133 171.55 35.1919C172.707 34.3333 173.286 33.3253 173.286 32.1679C173.286 29.8906 172.166 28.7519 169.926 28.7519C167.835 28.7519 166.23 29.5919 165.11 31.2719C163.99 32.9146 163.374 34.8933 163.262 37.2079C164.905 37.1706 166.398 37.0399 167.742 36.8159Z" fill="white"/>
<path d="M133.867 46.7279V31.2159C133.867 30.6186 133.755 30.2079 133.531 29.9839C133.344 29.7226 132.99 29.5733 132.467 29.5359L130.115 29.3679V24.8319H139.579V29.0319C140.251 27.5759 141.296 26.3813 142.715 25.4479C144.134 24.4773 145.758 23.9919 147.587 23.9919C149.454 23.9919 151.227 24.4026 152.907 25.2239V33.5679L147.699 33.9599V31.3839C147.699 30.6373 147.512 30.1706 147.139 29.9839C146.728 29.7973 146.224 29.7039 145.627 29.7039C144.134 29.7039 142.902 30.2453 141.931 31.3279C140.998 32.3733 140.531 33.7173 140.531 35.3599V48.3519L145.403 48.5759V52.9999H130.395V48.7439L132.243 48.5759C132.803 48.5013 133.214 48.3519 133.475 48.1279C133.736 47.8666 133.867 47.3999 133.867 46.7279Z" fill="white"/>
</svg>
