<?xml version="1.0" encoding="UTF-8"?>
<svg version="1.1" xmlns="http://www.w3.org/2000/svg" width="553" height="161">
<path d="M0 0 C3.01204832 2.1304732 5.79357618 4.37320997 8.5625 6.8125 C8.82546875 6.19890625 9.0884375 5.5853125 9.359375 4.953125 C11.43271722 1.26419144 14.67456401 -0.03336008 18.5625 -1.1875 C25.34460509 -2.1279094 31.66099728 -2.32605698 37.6875 1.25 C43.39197233 5.72451176 45.43354728 11.8541639 46.5625 18.8125 C46.65594217 21.59742929 46.70274314 24.35624073 46.6953125 27.140625 C46.69626923 27.93023621 46.69722595 28.71984741 46.69821167 29.53338623 C46.69888973 31.1941333 46.69706163 32.85488308 46.69287109 34.515625 C46.68748889 37.06776798 46.69284331 39.61973726 46.69921875 42.171875 C46.69855846 43.78645872 46.69727832 45.40104234 46.6953125 47.015625 C46.69733673 47.7822345 46.69936096 48.54884399 46.70144653 49.33868408 C46.67747045 54.69752955 46.67747045 54.69752955 45.5625 55.8125 C43.54285801 55.88494053 41.52082876 55.89627188 39.5 55.875 C38.39527344 55.86597656 37.29054688 55.85695312 36.15234375 55.84765625 C35.29769531 55.83605469 34.44304687 55.82445312 33.5625 55.8125 C33.54791748 54.71784424 33.53333496 53.62318848 33.51831055 52.49536133 C33.46021261 48.42293095 33.38298073 44.35104685 33.30004883 40.27905273 C33.26685346 38.51872645 33.23880476 36.75829512 33.21606445 34.99780273 C33.1824188 32.46292475 33.1300994 29.92900477 33.07421875 27.39453125 C33.06782883 26.61100784 33.0614389 25.82748444 33.05485535 25.0202179 C32.93297883 20.46149051 32.42121299 17.41909042 29.5625 13.8125 C25.89341443 11.36644295 22.82631231 10.97303598 18.5625 11.8125 C15.87144802 13.98824416 14.10717072 15.72315856 12.5625 18.8125 C12.41782052 21.49746037 12.32837812 24.16067183 12.28125 26.84765625 C12.26284058 27.6415123 12.24443115 28.43536835 12.22546387 29.25328064 C12.14664122 32.65740251 12.07889885 36.06172452 12.01025391 39.46606445 C11.95865037 41.94753178 11.90136126 44.42882234 11.84375 46.91015625 C11.83017456 47.68617691 11.81659912 48.46219757 11.8026123 49.26173401 C11.67532745 54.69967255 11.67532745 54.69967255 10.5625 55.8125 C8.54285801 55.88494053 6.52082876 55.89627188 4.5 55.875 C2.84291016 55.86146484 2.84291016 55.86146484 1.15234375 55.84765625 C0.29769531 55.83605469 -0.55695313 55.82445312 -1.4375 55.8125 C-1.45208252 54.75337402 -1.46666504 53.69424805 -1.48168945 52.60302734 C-1.53987327 48.65542658 -1.61710407 44.70838429 -1.69995117 40.76123047 C-1.73310636 39.05624488 -1.76116737 37.35115202 -1.78393555 35.64599609 C-1.81765568 33.18801366 -1.86997794 30.73100594 -1.92578125 28.2734375 C-1.93217117 27.51694916 -1.9385611 26.76046082 -1.94514465 25.98104858 C-2.07538973 21.24153259 -2.82254101 17.91329249 -5.4375 13.8125 C-9.13758163 11.34577891 -12.14452078 11.141722 -16.4375 11.8125 C-19.73397226 13.67572345 -21.08407504 14.96736692 -22.54443359 18.45947266 C-23.56313225 22.28418762 -23.78787197 25.90605937 -23.8515625 29.8359375 C-23.87092865 30.58211334 -23.8902948 31.32828918 -23.9102478 32.09707642 C-23.96962065 34.46043777 -24.0162578 36.82384897 -24.0625 39.1875 C-24.10071884 40.79819732 -24.1397728 42.40887506 -24.1796875 44.01953125 C-24.27528676 47.95036016 -24.359472 51.88128463 -24.4375 55.8125 C-28.3975 55.8125 -32.3575 55.8125 -36.4375 55.8125 C-36.4375 37.3325 -36.4375 18.8525 -36.4375 -0.1875 C-33.1375 -0.1875 -29.8375 -0.1875 -26.4375 -0.1875 C-25.7775 0.8025 -25.1175 1.7925 -24.4375 2.8125 C-22.8596875 1.8225 -22.8596875 1.8225 -21.25 0.8125 C-14.65083925 -2.49296198 -6.89452962 -2.3817466 0 0 Z " fill="#008575" transform="translate(253.4375,31.1875)"/>
<path d="M0 0 C0.66 0 1.32 0 2 0 C2.33 -0.99 2.66 -1.98 3 -3 C6.63 -3 10.26 -3 14 -3 C14.09932908 4.36486944 14.17168728 11.72934363 14.21972656 19.09472656 C14.23976603 21.59707436 14.26700522 24.09937578 14.30175781 26.6015625 C14.3506124 30.21105437 14.37304645 33.81992379 14.390625 37.4296875 C14.41127014 38.53738495 14.43191528 39.6450824 14.45318604 40.78634644 C14.45558618 49.20998971 12.85318565 56.54796105 7.6875 63.375 C0.52201237 70.37384838 -6.62639873 71.28399381 -16.2734375 71.32128906 C-22.78916805 71.21843837 -29.30394678 70.39250228 -35 67 C-35.93359375 65.09375 -35.93359375 65.09375 -36 63 C-34.96319255 60.43663687 -33.49091669 58.34932327 -32 56 C-30.63875 56.185625 -30.63875 56.185625 -29.25 56.375 C-28.61320312 56.46007812 -27.97640625 56.54515625 -27.3203125 56.6328125 C-25.59708128 56.90551239 -23.88402979 57.24421509 -22.1796875 57.6171875 C-15.43357339 59.01472009 -10.17946327 59.42428856 -4 56 C-2.20758327 54.71832879 -2.20758327 54.71832879 -1 53 C-1 51.68 -1 50.36 -1 49 C-2.093125 49.66 -3.18625 50.32 -4.3125 51 C-11.12376166 54.36358601 -18.08424418 53.93025194 -25.1875 51.5625 C-31.88728042 48.54333144 -36.92434496 42.96449811 -40 36.3125 C-42.37631238 28.59720006 -42.21390687 18.69479275 -39.23828125 11.1640625 C-35.90972057 5.34695645 -31.37004828 0.58003219 -25.8125 -3.125 C-16.42380175 -5.2797832 -8.24567554 -5.07426187 0 0 Z M-26.375 14.4375 C-28.97742181 20.14280934 -29.44521735 27.09201431 -27.234375 33.0703125 C-24.6818618 37.10166271 -21.45459707 39.51513431 -17 41 C-11.74234055 41.39680449 -8.43897158 40.89498146 -4 38 C-0.07356149 34.12647845 1.84016856 30.88601101 2.3125 25.3125 C2.24224876 20.5441972 0.68973249 16.90054454 -2 13 C-6.58122318 8.74600705 -9.56446607 7.63425794 -15.68359375 7.72265625 C-20.48413873 8.29742639 -23.13276827 11.10994639 -26.375 14.4375 Z " fill="#FF5E0E" transform="translate(126,34)"/>
<path d="M0 0 C2.1484375 1.3671875 2.1484375 1.3671875 3.9453125 2.7734375 C5.36163468 4.06764539 5.36163468 4.06764539 7.3984375 3.8671875 C11.06510417 3.8671875 14.73177083 3.8671875 18.3984375 3.8671875 C18.4281665 5.60790527 18.4281665 5.60790527 18.45849609 7.38378906 C18.53461662 11.69276484 18.62332416 16.00140578 18.71582031 20.31005859 C18.7540834 22.17424912 18.78894096 24.0385128 18.8203125 25.90283203 C18.86602106 28.58392466 18.92400572 31.26451483 18.984375 33.9453125 C18.99592621 34.77774475 19.00747742 35.610177 19.01937866 36.46783447 C19.12239429 40.51442198 19.32997398 43.30303359 21.3984375 46.8671875 C21.26929337 50.54779525 21.17703141 52.938864 18.7734375 55.8046875 C15.40840959 57.31009472 13.04806318 57.31538715 9.3984375 56.8671875 C6.4609375 54.8671875 6.4609375 54.8671875 4.3984375 52.8671875 C3.5321875 53.5271875 2.6659375 54.1871875 1.7734375 54.8671875 C-3.89244 58.0982378 -10.30269788 57.60652489 -16.6015625 56.8671875 C-20.56681655 55.59878038 -23.62996727 53.83878273 -26.6015625 50.8671875 C-26.77171875 51.48207031 -26.941875 52.09695312 -27.1171875 52.73046875 C-29.0786474 59.27214618 -29.0786474 59.27214618 -31.4140625 61.9296875 C-34.45207671 63.23169359 -36.32542346 63.40206734 -39.6015625 62.8671875 C-42.4765625 60.8046875 -42.4765625 60.8046875 -44.6015625 57.8671875 C-45.1640625 54.3046875 -45.1640625 54.3046875 -44.6015625 50.8671875 C-42.73447745 48.50221311 -41.28094819 47.20688035 -38.6015625 45.8671875 C-36.2685759 45.82696359 -33.93449584 45.82398503 -31.6015625 45.8671875 C-32.2409375 44.7946875 -32.8803125 43.7221875 -33.5390625 42.6171875 C-37.87342218 35.34664868 -37.8299401 26.06848922 -35.91796875 17.97265625 C-33.13045103 10.44288847 -29.0558119 5.01103387 -22.1015625 0.9296875 C-15.29459377 -2.16532396 -6.97324047 -3.036396 0 0 Z M-21.9140625 17.4921875 C-24.66407824 22.99221897 -25.39375536 28.92969359 -23.6015625 34.8671875 C-22.9415625 34.8671875 -22.2815625 34.8671875 -21.6015625 34.8671875 C-21.1684375 32.9490625 -21.1684375 32.9490625 -20.7265625 30.9921875 C-20.06053767 28.04264895 -19.79953653 27.06516153 -17.6015625 24.8671875 C-14.55202147 23.87814717 -12.95092967 23.76396538 -9.8515625 24.6796875 C-7.6015625 25.8671875 -7.6015625 25.8671875 -6.6015625 27.8671875 C-6.13437653 35.22536652 -6.13437653 35.22536652 -7.82421875 37.546875 C-9.97061657 39.14134195 -11.67098958 39.56142738 -14.2890625 40.0546875 C-15.09730469 40.21324219 -15.90554687 40.37179688 -16.73828125 40.53515625 C-17.35316406 40.64472656 -17.96804687 40.75429687 -18.6015625 40.8671875 C-15.60740984 43.99743801 -14.34566734 44.81758051 -9.8515625 45.1171875 C-5.10564878 45.03136628 -1.60970634 43.85362168 1.84375 40.4375 C6.14559812 35.49652016 6.70111372 31.6788112 6.609375 25.3671875 C6.18320927 20.31633441 4.06764747 17.26633031 0.3359375 14.0546875 C-7.7057713 8.06618095 -15.46030624 10.16630202 -21.9140625 17.4921875 Z " fill="#FF5E0E" transform="translate(185.6015625,31.1328125)"/>
<path d="M0 0 C7.63127436 5.59817687 10.06864349 12.3808108 12.08203125 21.52734375 C12.47457422 24.81696444 12.59868515 27.49403595 11.08203125 30.52734375 C-2.44796875 30.52734375 -15.97796875 30.52734375 -29.91796875 30.52734375 C-25.55409538 38.28020377 -25.55409538 38.28020377 -18.91796875 42.52734375 C-11.73382295 43.70426866 -6.21080089 41.93216114 0.08203125 38.52734375 C2.41727907 40.78474998 4.26908198 42.80791985 6.08203125 45.52734375 C6.0078125 47.546875 6.0078125 47.546875 5.08203125 49.52734375 C2.9375 50.9765625 2.9375 50.9765625 0.26953125 52.21484375 C-0.60316406 52.63121094 -1.47585938 53.04757813 -2.375 53.4765625 C-10.77338306 56.9468621 -18.96354052 56.21397677 -27.3046875 52.8515625 C-35.79311875 48.5502498 -39.97985421 42.34168736 -42.91796875 33.52734375 C-43.88806359 22.92997861 -43.3020099 14.51281136 -36.91796875 5.52734375 C-27.68586255 -5.07482388 -12.1279678 -7.26069051 0 0 Z M-27.23046875 12.96484375 C-29.17188759 15.60515593 -29.17188759 15.60515593 -29.91796875 19.52734375 C-20.67796875 19.52734375 -11.43796875 19.52734375 -1.91796875 19.52734375 C-2.98809679 14.17670356 -4.31104717 11.48253493 -8.66796875 8.21484375 C-15.92171878 5.99842013 -22.02083275 7.4736058 -27.23046875 12.96484375 Z " fill="#008575" transform="translate(350.91796875,33.47265625)"/>
<path d="M0 0 C5.9440781 3.47307245 9.60997308 8.15808841 11.52514648 14.72363281 C12.59054282 19.10824119 12.75050155 23.25489063 12.70703125 27.75 C12.70657303 28.53536636 12.70611481 29.32073273 12.7056427 30.12989807 C12.70264504 31.77273083 12.69483435 33.41556138 12.68237305 35.05834961 C12.66393462 37.5839226 12.66186495 40.10913186 12.66210938 42.63476562 C12.65720004 44.23568028 12.65137428 45.83659244 12.64453125 47.4375 C12.64341843 48.19469833 12.6423056 48.95189667 12.64115906 49.73204041 C12.59267314 55.01279561 12.59267314 55.01279561 11.4765625 56.12890625 C9.64540367 56.22741796 7.81036317 56.25863254 5.9765625 56.25390625 C4.97625 56.25648437 3.9759375 56.2590625 2.9453125 56.26171875 C0.4765625 56.12890625 0.4765625 56.12890625 -0.5234375 55.12890625 C-0.63417736 52.53462007 -0.68506302 49.96247807 -0.69921875 47.3671875 C-0.72243056 45.75714858 -0.74654844 44.14712252 -0.77148438 42.53710938 C-0.80651199 39.99381085 -0.83588677 37.45098034 -0.84936523 34.9074707 C-0.86490685 32.45596048 -0.90516956 30.00583017 -0.94921875 27.5546875 C-0.94731033 26.80133621 -0.94540192 26.04798492 -0.94343567 25.27180481 C-1.0612112 20.15063704 -2.16624553 17.20406728 -5.5234375 13.12890625 C-8.97238142 11.40443429 -12.74500495 11.76219529 -16.5234375 12.12890625 C-20.26041919 13.7536809 -22.37107067 15.68511932 -24.5234375 19.12890625 C-25.72505261 22.73375159 -25.75360886 26.10180482 -25.83984375 29.859375 C-25.86062485 30.60979568 -25.88140594 31.36021637 -25.90281677 32.13337708 C-25.96813676 34.52762809 -26.02711542 36.92198764 -26.0859375 39.31640625 C-26.12913943 40.94076638 -26.17275426 42.56511558 -26.21679688 44.18945312 C-26.32380013 48.16915996 -26.42511687 52.14897583 -26.5234375 56.12890625 C-30.4834375 56.12890625 -34.4434375 56.12890625 -38.5234375 56.12890625 C-38.5234375 37.64890625 -38.5234375 19.16890625 -38.5234375 0.12890625 C-34.8934375 0.12890625 -31.2634375 0.12890625 -27.5234375 0.12890625 C-27.5234375 1.77890625 -27.5234375 3.42890625 -27.5234375 5.12890625 C-26.98074219 4.77957031 -26.43804687 4.43023437 -25.87890625 4.0703125 C-24.80576172 3.38775391 -24.80576172 3.38775391 -23.7109375 2.69140625 C-23.00324219 2.23894531 -22.29554688 1.78648438 -21.56640625 1.3203125 C-15.49610685 -2.21972826 -6.55006969 -2.26109217 0 0 Z " fill="#008475" transform="translate(410.5234375,30.87109375)"/>
<path d="M0 0 C2.52072343 1.66462868 4.28139365 3.04594073 6.3125 5.1875 C4.87004029 8.55323933 3.229032 10.93760389 0.3125 13.1875 C-2.542284 13.04110082 -4.48791459 12.28204046 -7.0625 11.0625 C-10.5338357 9.9053881 -13.14326415 10.49255179 -16.6875 11.1875 C-17.43707157 14.65897842 -17.43707157 14.65897842 -17.6875 18.1875 C-16.45 18.55875 -15.2125 18.93 -13.9375 19.3125 C2.35050504 24.83648269 2.35050504 24.83648269 6.0625 30.4375 C8.04881535 36.39644605 8.21372037 41.53390669 6.1875 47.5 C2.94206718 52.15178705 -1.13088001 55.76603907 -6.6875 57.1875 C-16.72973672 58.28801909 -24.55750094 54.79210426 -32.6875 49.1875 C-32.27328031 44.35493695 -30.22336014 42.36070782 -26.6875 39.1875 C-25.76130859 39.72890625 -25.76130859 39.72890625 -24.81640625 40.28125 C-19.28116261 43.31426021 -14.08044852 45.89677255 -7.6875 44.1875 C-5.40581642 42.02586181 -5.40581642 42.02586181 -4.6875 39.1875 C-5.33263817 36.14591847 -5.33263817 36.14591847 -7.3581543 35.22363281 C-8.06883057 34.94874023 -8.77950684 34.67384766 -9.51171875 34.390625 C-10.29353516 34.0709375 -11.07535156 33.75125 -11.88085938 33.421875 C-13.52139949 32.7743948 -15.1645847 32.13357004 -16.81054688 31.5 C-22.5188959 29.14758143 -26.35544 26.4674527 -29.6875 21.1875 C-31.48339663 16.26733692 -31.22297107 11.56730724 -29.0625 6.8125 C-23.26061948 -3.12497701 -10.00827762 -4.89210585 0 0 Z " fill="#008475" transform="translate(495.6875,31.8125)"/>
<path d="M0 0 C3.96 0 7.92 0 12 0 C13 1 13 1 13.12025452 3.09437561 C13.1169236 4.47670631 13.1169236 4.47670631 13.11352539 5.88696289 C13.11344986 6.92796646 13.11337433 7.96897003 13.11329651 9.04151917 C13.10813522 10.1737944 13.10297394 11.30606964 13.09765625 12.47265625 C13.0962413 13.62543564 13.09482635 14.77821503 13.09336853 15.96592712 C13.08775005 19.66481064 13.07519442 23.36363464 13.0625 27.0625 C13.05748738 29.56315017 13.05292406 32.06380129 13.04882812 34.56445312 C13.03777462 40.70965588 13.02101852 46.85482369 13 53 C14.21115479 52.98428955 14.21115479 52.98428955 15.44677734 52.96826172 C19.08948682 52.92680169 22.73214675 52.90070562 26.375 52.875 C28.28152344 52.84986328 28.28152344 52.84986328 30.2265625 52.82421875 C31.43828125 52.81777344 32.65 52.81132813 33.8984375 52.8046875 C35.01911621 52.79421387 36.13979492 52.78374023 37.29443359 52.77294922 C40 53 40 53 42 55 C42.23046875 57.34765625 42.23046875 57.34765625 42.1875 60.0625 C42.18105469 60.96097656 42.17460938 61.85945313 42.16796875 62.78515625 C42 65 42 65 41 66 C37.97043757 66.08870641 34.9631329 66.11526582 31.93359375 66.09765625 C31.1286145 66.09664917 30.32363525 66.09564209 29.4942627 66.09460449 C26.47532739 66.08935614 23.45641233 66.075395 20.4375 66.0625 C10.3209375 66.0315625 10.3209375 66.0315625 0 66 C0 44.22 0 22.44 0 0 Z " fill="#FF5E0E" transform="translate(12,21)"/>
<path d="M0 0 C0 4.29 0 8.58 0 13 C3.63 13 7.26 13 11 13 C11 16.96 11 20.92 11 25 C7.37 25 3.74 25 0 25 C0.00785522 26.99148071 0.00785522 26.99148071 0.01586914 29.02319336 C0.03391426 33.93008759 0.04543021 38.83697887 0.05493164 43.74389648 C0.05997298 45.87118014 0.06680591 47.99846031 0.07543945 50.12573242 C0.08751379 53.17627826 0.09323014 56.22677845 0.09765625 59.27734375 C0.10281754 60.23462875 0.10797882 61.19191376 0.11329651 62.1782074 C0.11340981 63.49946373 0.11340981 63.49946373 0.11352539 64.84741211 C0.115746 65.62684677 0.11796661 66.40628143 0.12025452 67.20933533 C0 69 0 69 -1 70 C-4.96 70 -8.92 70 -13 70 C-13 55.15 -13 40.3 -13 25 C-15.31 25 -17.62 25 -20 25 C-20 21.04 -20 17.08 -20 13 C-17.69 13 -15.38 13 -13 13 C-13.03480469 12.22914062 -13.06960938 11.45828125 -13.10546875 10.6640625 C-13.13253906 9.66117188 -13.15960938 8.65828125 -13.1875 7.625 C-13.22230469 6.62726562 -13.25710938 5.62953125 -13.29296875 4.6015625 C-13.14794922 3.31378906 -13.14794922 3.31378906 -13 2 C-8.18541775 -1.2097215 -5.72755156 -1.14551031 0 0 Z " fill="#008474" transform="translate(448,17)"/>
<path d="M0 0 C3.96 0 7.92 0 12 0 C12 18.48 12 36.96 12 56 C8.04 56 4.08 56 0 56 C0 37.52 0 19.04 0 0 Z " fill="#FF5E0E" transform="translate(63,31)"/>
<path d="M0 0 C0.33 -0.33 0.66 -0.66 1 -1 C2.65 -1 4.3 -1 6 -1 C6 8.9 6 18.8 6 29 C3 29 0 29 -3 29 C-4.17175781 29.06960937 -4.17175781 29.06960937 -5.3671875 29.140625 C-9.70357478 29.32975093 -12.45088828 29.25958008 -16.4375 27.375 C-20.75253502 23.37569925 -22.16456187 19.86463639 -22.4375 14.0625 C-22.26767835 8.93697373 -21.08675478 6.08786444 -18 2 C-13.17858789 -2.3959934 -5.91326359 -1.97108786 0 0 Z M-14 8 C-15.59518898 11.19037797 -15.3780785 14.52855199 -15 18 C-13.56018184 20.95541622 -12.66971742 21.73563786 -9.625 22.9375 C-6.20411409 23.01894966 -4.70143855 22.04433188 -2 20 C0.34168764 16.48746854 0.49623677 15.13530644 0 11 C-1.84936682 7.91772197 -3.0978086 6.3701298 -6.4375 5 C-9.76656554 5 -11.36542463 6.02406848 -14 8 Z " fill="#FF5E0E" transform="translate(532,13)"/>
<path d="M0 0 C0.99 0.66 1.98 1.32 3 2 C3.33 1.34 3.66 0.68 4 0 C5.32 0 6.64 0 8 0 C8.08742801 4.20820145 8.14053641 8.41616776 8.1875 12.625 C8.21263672 13.81480469 8.23777344 15.00460938 8.26367188 16.23046875 C8.35738793 27.41391766 8.35738793 27.41391766 5 32 C0.551636 34.965576 -3.78477029 34.7613474 -9 34 C-12.1875 31.6875 -12.1875 31.6875 -14 29 C-14 28.01 -14 27.02 -14 26 C-11.54314575 26.42359556 -10.3035088 26.65510363 -8.625 28.5625 C-6.98690901 30.27469613 -6.98690901 30.27469613 -4.0625 30.4375 C-0.93960867 30.2299674 -0.93960867 30.2299674 1.375 28.3125 C3.27258004 25.61209763 3.35882213 24.22939919 3 21 C2.01 21.7734375 2.01 21.7734375 1 22.5625 C-2.89986779 24.43118665 -5.97236161 24.30186291 -10 23 C-13.02223535 20.94230785 -14.57849415 19.42160046 -15.62890625 15.87890625 C-16.44778208 10.76739715 -16.01983475 7.37355378 -13 3 C-9.59209099 -0.93220271 -4.86191994 -0.68944353 0 0 Z M-11 6 C-12.55024464 9.10048928 -12.28992015 11.57894218 -12 15 C-10.610911 18.04913936 -10.610911 18.04913936 -8 20 C-4.36150918 20.5197844 -2.01510382 20.42741214 1.375 19 C3.85045612 15.95328478 4.07015062 12.85828416 4 9 C3.18740707 6.19286077 2.54047944 5.36031962 0.125 3.75 C-4.53040786 2.10691487 -7.18745069 3.32091129 -11 6 Z " fill="#008475" transform="translate(154,127)"/>
<path d="M0 0 C1.14662109 -0.00773437 1.14662109 -0.00773437 2.31640625 -0.015625 C4.4375 0.25 4.4375 0.25 7.4375 2.25 C7.7675 1.59 8.0975 0.93 8.4375 0.25 C9.4275 0.25 10.4175 0.25 11.4375 0.25 C11.55375936 4.81228541 11.62477408 9.37418928 11.6875 13.9375 C11.73777344 15.87786133 11.73777344 15.87786133 11.7890625 17.85742188 C11.80195312 19.10458984 11.81484375 20.35175781 11.828125 21.63671875 C11.84907227 22.78358154 11.87001953 23.93044434 11.89160156 25.11206055 C11.34134899 28.91442415 10.09478809 30.53125209 7.4375 33.25 C3.73494314 35.10127843 -0.52124013 34.7138553 -4.5625 34.25 C-7.72275526 32.44413985 -9.13971965 31.42077636 -10.375 28 C-10.4678125 27.13375 -10.4678125 27.13375 -10.5625 26.25 C-5.90324074 26.87962963 -5.90324074 26.87962963 -4.125 28.8125 C-2.54449937 30.55369788 -2.54449937 30.55369788 0.4375 30.5625 C3.61691514 30.46659125 3.61691514 30.46659125 6.4375 28.25 C7.17356499 24.68230448 7.17356499 24.68230448 7.4375 21.25 C6.4475 22.0234375 6.4475 22.0234375 5.4375 22.8125 C1.56336102 24.66885826 -1.56258181 24.59946735 -5.5625 23.25 C-8.69566436 20.65014021 -11.3373786 18.45359213 -11.765625 14.26171875 C-11.86281515 9.44270735 -11.82296348 6.0926891 -8.5625 2.25 C-5.6325662 0.46192477 -3.41554845 -0.02311708 0 0 Z M-7.5625 8.25 C-8.46246291 12.16794196 -8.16828832 15.2807387 -6 18.75 C-2.61361671 20.83392818 -0.46864682 20.80802097 3.4375 20.25 C6.44092896 18.19502229 7.27037356 16.77366286 8.375 13.3125 C8.4503328 9.62119268 7.68324926 8.1373919 5.4375 5.25 C-0.24667527 1.46054982 -3.60473916 2.82221371 -7.5625 8.25 Z " fill="#008575" transform="translate(86.5625,126.75)"/>
<path d="M0 0 C2.3925 -0.0825 4.785 -0.165 7.25 -0.25 C7.99668945 -0.28641602 8.74337891 -0.32283203 9.51269531 -0.36035156 C12.89838409 -0.41681006 14.70315343 -0.21674511 17.4609375 1.796875 C19.67422528 4.96513466 19.40481135 7.22176073 19 11 C18 13.4375 18 13.4375 17 15 C17.515625 15.515625 18.03125 16.03125 18.5625 16.5625 C20 19 20 19 19.9375 22.5625 C19 26 19 26 17.42578125 27.703125 C14.05981729 29.50264196 10.95720748 29.32310027 7.25 29.1875 C4.8575 29.125625 2.465 29.06375 0 29 C0 19.43 0 9.86 0 0 Z M4 3 C4 5.97 4 8.94 4 12 C9.67675932 12.38435046 9.67675932 12.38435046 15 11 C15.16681109 8.08347826 15.16681109 8.08347826 15 5 C13.21342243 2.78629949 13.21342243 2.78629949 10.8359375 2.8046875 C7.41796875 2.90234375 7.41796875 2.90234375 4 3 Z M4 16 C4 19.3 4 22.6 4 26 C5.423125 26.061875 6.84625 26.12375 8.3125 26.1875 C9.11300781 26.22230469 9.91351563 26.25710937 10.73828125 26.29296875 C13.06212782 26.17617437 13.06212782 26.17617437 14.8046875 24.68359375 C16.32266812 22.91806292 16.32266812 22.91806292 15.8125 19.875 C15.4103125 18.451875 15.4103125 18.451875 15 17 C11.57067929 15.28533964 7.78283935 15.94595944 4 16 Z " fill="#008575" transform="translate(381,121)"/>
<path d="M0 0 C1.32 0 2.64 0 4 0 C4 10.23 4 20.46 4 31 C2.68 31 1.36 31 0 31 C-0.33 30.34 -0.66 29.68 -1 29 C-1.99 29.7734375 -1.99 29.7734375 -3 30.5625 C-6.87778101 32.4206034 -9.99608328 32.34272763 -14 31 C-17.1786241 28.4300486 -18.70728109 26.87815673 -20 23 C-20.53832527 17.29375217 -19.61757835 14.4444534 -16 10 C-12.877998 7.91866533 -12.06733011 7.7262178 -8.5 7.75 C-7.7265625 7.74484375 -6.953125 7.7396875 -6.15625 7.734375 C-4 8 -4 8 -1 10 C-0.67 6.7 -0.34 3.4 0 0 Z M-13.9375 13 C-16.5078445 16.7386829 -16.71592958 18.54532704 -16 23 C-14.610911 26.04913936 -14.610911 26.04913936 -12 28 C-8.36150918 28.5197844 -6.01510382 28.42741214 -2.625 27 C-0.13426145 23.93447563 0.3041888 20.90122132 0 17 C-1.97764334 13.12711513 -3.30446638 12.22762918 -7.4375 10.875 C-11.10082662 10.68640641 -11.10082662 10.68640641 -13.9375 13 Z " fill="#008575" transform="translate(67,119)"/>
<path d="M0 0 C14 0 14 0 19 4 C19.53302434 8.26419476 19.33764674 11.34742696 17 15 C17.515625 15.515625 18.03125 16.03125 18.5625 16.5625 C20 19 20 19 19.9375 22.5625 C19 26 19 26 17.42578125 27.703125 C14.05981729 29.50264196 10.95720748 29.32310027 7.25 29.1875 C4.8575 29.125625 2.465 29.06375 0 29 C0 19.43 0 9.86 0 0 Z M3 3 C3 5.97 3 8.94 3 12 C4.62463842 12.05395478 6.24978541 12.09277195 7.875 12.125 C8.77992187 12.14820313 9.68484375 12.17140625 10.6171875 12.1953125 C13.18806994 12.24324836 13.18806994 12.24324836 15 10 C15.41666667 7.5 15.41666667 7.5 15 5 C10.7975546 2.19836974 7.99895065 2.85510288 3 3 Z M3 16 C3 19.3 3 22.6 3 26 C4.588125 26.061875 6.17625 26.12375 7.8125 26.1875 C8.70582031 26.22230469 9.59914063 26.25710937 10.51953125 26.29296875 C13.04209994 26.20222613 13.04209994 26.20222613 14.8359375 24.6484375 C16.27155963 22.985639 16.27155963 22.985639 15.8125 20.4375 C15.15372967 17.85558728 15.15372967 17.85558728 13 16 C10.55987051 15.75712511 10.55987051 15.75712511 7.875 15.875 C6.26625 15.91625 4.6575 15.9575 3 16 Z " fill="#008575" transform="translate(0,121)"/>
<path d="M0 0 C0.99 0.66 1.98 1.32 3 2 C3.33 1.34 3.66 0.68 4 0 C5.32 0 6.64 0 8 0 C8 7.59 8 15.18 8 23 C6.68 23 5.36 23 4 23 C3.67 22.34 3.34 21.68 3 21 C2.01 21.7734375 2.01 21.7734375 1 22.5625 C-2.89986779 24.43118665 -5.97236161 24.30186291 -10 23 C-13.02223535 20.94230785 -14.57849415 19.42160046 -15.62890625 15.87890625 C-16.44778208 10.76739715 -16.01983475 7.37355378 -13 3 C-9.59209099 -0.93220271 -4.86191994 -0.68944353 0 0 Z M-10 5 C-12.13392364 7.6420007 -12.09920498 9.80720389 -11.8125 13.0625 C-11.42406235 15.40621932 -11.04661541 16.91712815 -9.875 19 C-6.74835867 20.66754204 -4.46888945 20.47846751 -1 20 C2.06307631 18.02033737 2.06307631 18.02033737 4 15 C4.55878277 11.08852059 4.23182354 8.28900312 2 5 C-2.21624679 2.18916881 -5.75587091 2.07301442 -10 5 Z " fill="#008475" transform="translate(193,127)"/>
<path d="M0 0 C2.82424288 2.19022918 4.41508603 3.83017207 6 7 C6 8.98 6 10.96 6 13 C0.06 13.33 -5.88 13.66 -12 14 C-9.74967591 18.99108043 -9.74967591 18.99108043 -7.0625 19.62890625 C-2.54544874 19.58994101 -2.54544874 19.58994101 1 17 C1.33 16.34 1.66 15.68 2 15 C3.32 15.33 4.64 15.66 6 16 C3.93642263 20.0185454 2.264181 22.33140744 -2 24 C-6.97601936 24.38903424 -10.09188927 23.70424914 -14.0625 20.625 C-17.10926462 16.2558549 -16.8573158 11.07438271 -16 6 C-12.07674482 -0.53875863 -7.20148212 -1.04172383 0 0 Z M-10.3125 4.8125 C-12.17631174 6.98047605 -12.17631174 6.98047605 -13 10 C-8.05 10 -3.1 10 2 10 C1.67 8.35 1.34 6.7 1 5 C-3.1049773 2.26334847 -6.27871887 1.65088777 -10.3125 4.8125 Z " fill="#008575" transform="translate(503,127)"/>
<path d="M0 0 C2.31 0 4.62 0 7 0 C8 1 8 1 8.11352539 3.95922852 C8.10828857 5.25272217 8.10305176 6.54621582 8.09765625 7.87890625 C8.0962413 8.5655687 8.09482635 9.25223114 8.09336853 9.95970154 C8.08775479 12.16067801 8.07520007 14.36155409 8.0625 16.5625 C8.05748676 18.05143083 8.05292355 19.54036324 8.04882812 21.02929688 C8.03778093 24.68623075 8.02050713 28.34310558 8 32 C5.36 32 2.72 32 0 32 C0 21.44 0 10.88 0 0 Z " fill="#FF5E0E" transform="translate(545,10)"/>
<path d="M0 0 C3.07061968 1.71368609 5.40450726 3.80901452 7 7 C7.57322775 11.69858808 7.41740893 15.14972255 5.3125 19.4375 C2.80111756 22.22038324 1.65117445 23.25316886 -2 24 C-6.36385338 24.06208734 -9.25986811 23.4881721 -12.9375 21.0625 C-15.93110466 18.06889534 -16.17568547 16.31814926 -16.25 12.1875 C-16.20135956 7.97402194 -15.86735676 5.27697915 -13 2 C-8.78864487 -0.51785275 -4.7952543 -0.83792506 0 0 Z M-12 7 C-12.91951097 11.3201162 -12.7483523 14.77270223 -10.4375 18.5625 C-7.04481874 20.56331202 -4.87285839 20.55326548 -1 20 C1.60314994 18.6469872 1.60314994 18.6469872 3 16 C3.72054088 10.95621384 3.83134652 9.14013238 0.8125 5 C-1.78689783 2.87875515 -1.78689783 2.87875515 -4.5 2.4375 C-8.07133111 3.2410495 -9.60710241 4.19689139 -12 7 Z " fill="#008575" transform="translate(317,127)"/>
<path d="M0 0 C3.57623788 1.9137306 5.69762236 4.09286708 7 8 C7.39334294 13.211794 6.97343088 16.63896805 4 21 C-0.01612795 23.67741863 -3.20274224 24.69960009 -8 24 C-11.6578218 21.96006092 -13.66946174 20.49580738 -16 17 C-16.54679399 13.28180084 -16.5490121 9.71806216 -16 6 C-11.54489138 0.13801498 -7.10096463 -1.08420769 0 0 Z M-12 7 C-13.17511188 11.03944709 -13.4537165 13.05132004 -11.625 16.875 C-10.17208818 18.8719664 -10.17208818 18.8719664 -9 20 C-6.07192466 20.28800741 -3.85002788 20.48146102 -1 20 C2.24985922 17.31886615 2.89575014 15.64866582 3.5625 11.5 C2.85024299 7.06817859 1.58911308 5.63201626 -2 3 C-6.52472904 1.98193597 -8.94716882 3.69276622 -12 7 Z " fill="#008475" transform="translate(257,127)"/>
<path d="M0 0 C1.32 0 2.64 0 4 0 C4.04898437 1.20398438 4.09796875 2.40796875 4.1484375 3.6484375 C4.22346343 5.22398198 4.29901133 6.79950166 4.375 8.375 C4.4059375 9.1690625 4.436875 9.963125 4.46875 10.78125 C4.51816421 15.36667375 4.51816421 15.36667375 7 19 C10.5 19.41666667 10.5 19.41666667 14 19 C16.48044315 15.27933528 16.44381173 12.13459526 16.625 7.8125 C16.66367187 7.06291016 16.70234375 6.31332031 16.7421875 5.54101562 C16.83628216 3.69440801 16.91922319 1.8472381 17 0 C18.32 0 19.64 0 21 0 C21 7.59 21 15.18 21 23 C19.35 22.67 17.7 22.34 16 22 C15.401875 22.33 14.80375 22.66 14.1875 23 C10.76557788 24.56430726 7.57667154 23.93602255 4 23 C1.35634921 21.12386073 1.04758719 20.14276157 0 17 C-0.07973476 15.66474283 -0.10771338 14.32587917 -0.09765625 12.98828125 C-0.09443359 12.23095703 -0.09121094 11.47363281 -0.08789062 10.69335938 C-0.07951172 9.90767578 -0.07113281 9.12199219 -0.0625 8.3125 C-0.05798828 7.51521484 -0.05347656 6.71792969 -0.04882812 5.89648438 C-0.0370585 3.93095743 -0.01912348 1.96546915 0 0 Z " fill="#008475" transform="translate(405,127)"/>
<path d="M0 0 C1.32 0 2.64 0 4 0 C4.04898437 1.12019531 4.09796875 2.24039063 4.1484375 3.39453125 C4.22347856 4.86721203 4.29902582 6.33986707 4.375 7.8125 C4.4059375 8.55048828 4.436875 9.28847656 4.46875 10.04882812 C4.67346148 13.81893115 4.86433827 15.79650741 7 19 C10.5 19.5 10.5 19.5 14 19 C16.48044315 15.27933528 16.44381173 12.13459526 16.625 7.8125 C16.66367187 7.06291016 16.70234375 6.31332031 16.7421875 5.54101562 C16.83628216 3.69440801 16.91922319 1.8472381 17 0 C18.32 0 19.64 0 21 0 C21 7.59 21 15.18 21 23 C19.35 22.67 17.7 22.34 16 22 C15.01 22.66 14.02 23.32 13 24 C8.37637916 24.50256748 5.6801089 23.86230692 2 21 C-0.7919648 17.14901407 -0.22288522 12.79036808 -0.125 8.25 C-0.11597656 7.45722656 -0.10695313 6.66445312 -0.09765625 5.84765625 C-0.07417012 3.89830719 -0.03830137 1.94911425 0 0 Z " fill="#008475" transform="translate(328,127)"/>
<path d="M0 0 C2.475 0.495 2.475 0.495 5 1 C5.66 0.67 6.32 0.34 7 0 C11.12501571 -0.41409424 14.78245255 -0.63921241 18.5 1.3125 C20.90841749 4.02196967 21.1237634 6.5394684 21.09765625 10.01171875 C21.09443359 10.76904297 21.09121094 11.52636719 21.08789062 12.30664062 C21.07951172 13.09232422 21.07113281 13.87800781 21.0625 14.6875 C21.05798828 15.48478516 21.05347656 16.28207031 21.04882812 17.10351562 C21.0370585 19.06904257 21.01912348 21.03453085 21 23 C19.68 23 18.36 23 17 23 C16.95101562 21.79601562 16.90203125 20.59203125 16.8515625 19.3515625 C16.77653657 17.77601802 16.70098867 16.20049834 16.625 14.625 C16.5940625 13.8309375 16.563125 13.036875 16.53125 12.21875 C16.48183579 7.63332625 16.48183579 7.63332625 14 4 C11.04230823 3.49989476 11.04230823 3.49989476 8 4 C4.94239255 6.85473303 4.59908052 9.59690678 4.38085938 13.68359375 C4.35830078 14.36550781 4.33574219 15.04742187 4.3125 15.75 C4.27833984 16.44738281 4.24417969 17.14476562 4.20898438 17.86328125 C4.12691705 19.57497108 4.06177081 21.2874576 4 23 C2.68 23 1.36 23 0 23 C0 15.41 0 7.82 0 0 Z " fill="#008575" transform="translate(113,127)"/>
<path d="M0 0 C1.32 0 2.64 0 4 0 C5.0067004 2.26807204 6.00551766 4.53907754 7 6.8125 C7.42925781 7.77639648 7.42925781 7.77639648 7.8671875 8.75976562 C9.13711041 11.67756469 10 13.78265714 10 17 C10.66 17 11.32 17 12 17 C12.18175781 16.35933594 12.36351562 15.71867188 12.55078125 15.05859375 C14.06270045 9.85604103 15.75000671 4.92855673 18 0 C19.32 0 20.64 0 22 0 C19.6065288 7.49848287 16.76336589 14.7674207 13.8125 22.0625 C13.34908203 23.21427734 12.88566406 24.36605469 12.40820312 25.55273438 C11.2745028 28.36945374 10.13838499 31.18517147 9 34 C7.68 34 6.36 34 5 34 C5.309375 33.36578125 5.61875 32.7315625 5.9375 32.078125 C9.65229629 22.19021135 5.95117307 15.22549845 1.85546875 6.1484375 C1.50121826 5.39739746 1.14696777 4.64635742 0.78198242 3.87255859 C0 2 0 2 0 0 Z " fill="#008475" transform="translate(277,127)"/>
<path d="M0 0 C3 2.375 3 2.375 5 5 C5 5.66 5 6.32 5 7 C2.525 6.505 2.525 6.505 0 6 C0 5.34 0 4.68 0 4 C-2.64 4 -5.28 4 -8 4 C-7.88127421 5.95562177 -7.88127421 5.95562177 -7 8 C-4.75724453 9.25087782 -4.75724453 9.25087782 -2.0625 10.0625 C2.79369981 11.69054972 2.79369981 11.69054972 5 15 C4.9375 18 4.9375 18 4 21 C1.73997844 23.12305055 0.14800012 23.94533333 -2.96875 24.09375 C-6.57011941 23.82499109 -8.56966013 23.3227549 -11.5 21.125 C-13 19 -13 19 -13 16 C-11.68 16 -10.36 16 -9 16 C-8.34 16.99 -7.68 17.98 -7 19 C-3.41642759 19.25015873 -3.41642759 19.25015873 0 19 C0.33 17.68 0.66 16.36 1 15 C0.22914063 14.80664062 -0.54171875 14.61328125 -1.3359375 14.4140625 C-2.33882812 14.15367187 -3.34171875 13.89328125 -4.375 13.625 C-5.37273438 13.36976563 -6.37046875 13.11453125 -7.3984375 12.8515625 C-10 12 -10 12 -12 10 C-12.66932271 3.86454183 -12.66932271 3.86454183 -10.5 1.0625 C-6.96721413 -0.43893399 -3.72710472 -0.81184459 0 0 Z " fill="#008575" transform="translate(546,127)"/>
<path d="M0 0 C3 2.375 3 2.375 5 5 C5 5.66 5 6.32 5 7 C2.525 6.505 2.525 6.505 0 6 C0 5.34 0 4.68 0 4 C-2.64 4 -5.28 4 -8 4 C-7.88127421 5.95562177 -7.88127421 5.95562177 -7 8 C-4.75724453 9.25087782 -4.75724453 9.25087782 -2.0625 10.0625 C2.79369981 11.69054972 2.79369981 11.69054972 5 15 C4.9375 18 4.9375 18 4 21 C1.73997844 23.12305055 0.14800012 23.94533333 -2.96875 24.09375 C-6.57011941 23.82499109 -8.56966013 23.3227549 -11.5 21.125 C-13 19 -13 19 -13 16 C-11.68 16 -10.36 16 -9 16 C-8.34 16.99 -7.68 17.98 -7 19 C-3.41642759 19.25015873 -3.41642759 19.25015873 0 19 C0.33 17.68 0.66 16.36 1 15 C0.22914063 14.80664062 -0.54171875 14.61328125 -1.3359375 14.4140625 C-2.33882812 14.15367187 -3.34171875 13.89328125 -4.375 13.625 C-5.37273438 13.36976563 -6.37046875 13.11453125 -7.3984375 12.8515625 C-10 12 -10 12 -12 10 C-12.66932271 3.86454183 -12.66932271 3.86454183 -10.5 1.0625 C-6.96721413 -0.43893399 -3.72710472 -0.81184459 0 0 Z " fill="#008575" transform="translate(525,127)"/>
<path d="M0 0 C2.81266973 1.44239473 3.72684695 2.2033036 4.75 5.1875 C4.87375 6.0846875 4.87375 6.0846875 5 7 C2.525 6.505 2.525 6.505 0 6 C0 5.34 0 4.68 0 4 C-2.64 4 -5.28 4 -8 4 C-7.88127421 5.95562177 -7.88127421 5.95562177 -7 8 C-4.75724453 9.25087782 -4.75724453 9.25087782 -2.0625 10.0625 C2.79369981 11.69054972 2.79369981 11.69054972 5 15 C4.9375 18 4.9375 18 4 21 C1.73997844 23.12305055 0.14800012 23.94533333 -2.96875 24.09375 C-6.57011941 23.82499109 -8.56966013 23.3227549 -11.5 21.125 C-13 19 -13 19 -13 16 C-11.68 16 -10.36 16 -9 16 C-8.34 16.99 -7.68 17.98 -7 19 C-3.41642759 19.25015873 -3.41642759 19.25015873 0 19 C-0.11471258 17.0493713 -0.11471258 17.0493713 -1 15 C-3.27211676 13.67716143 -3.27211676 13.67716143 -6 12.8125 C-10.95364238 11.04635762 -10.95364238 11.04635762 -12 10 C-12.5789111 3.74776017 -12.5789111 3.74776017 -10.5 1.0625 C-6.94494407 -0.44839877 -3.8060358 -0.57832987 0 0 Z " fill="#008575" transform="translate(443,127)"/>
<path d="M0 0 C2.475 0.495 2.475 0.495 5 1 C5.33 0.67 5.66 0.34 6 0 C7.890625 -0.2734375 7.890625 -0.2734375 10.25 -0.375 C11.01828125 -0.42398438 11.7865625 -0.47296875 12.578125 -0.5234375 C16.38490178 0.29931748 17.72937066 1.87539055 20 5 C20.58833116 8.133392 20.47532047 11.13875331 20.3125 14.3125 C20.28994141 15.14845703 20.26738281 15.98441406 20.24414062 16.84570312 C20.1855061 18.89791149 20.09583215 20.94919202 20 23 C19.01 23 18.02 23 17 23 C16.96261719 22.04738281 16.92523438 21.09476563 16.88671875 20.11328125 C16.82097656 18.85902344 16.75523437 17.60476562 16.6875 16.3125 C16.62949219 15.07113281 16.57148438 13.82976562 16.51171875 12.55078125 C15.99089024 8.93678801 15.09845383 6.94233607 13 4 C8.65815798 4.18464366 8.65815798 4.18464366 5 6 C4.76298761 8.85877909 4.57780818 11.69883297 4.4375 14.5625 C4.39431641 15.36880859 4.35113281 16.17511719 4.30664062 17.00585938 C4.20024738 19.00368805 4.09959112 21.0018207 4 23 C2.68 23 1.36 23 0 23 C0 15.41 0 7.82 0 0 Z " fill="#008575" transform="translate(462,127)"/>
<path d="M0 0 C1.32 0 2.64 0 4 0 C4 1.98 4 3.96 4 6 C5.98 6 7.96 6 10 6 C10 6.99 10 7.98 10 9 C8.02 9 6.04 9 4 9 C4.33 14.28 4.66 19.56 5 25 C6.65 25.33 8.3 25.66 10 26 C10 26.99 10 27.98 10 29 C8.72125 29.061875 7.4425 29.12375 6.125 29.1875 C5.04605469 29.23970703 5.04605469 29.23970703 3.9453125 29.29296875 C3.30335938 29.19628906 2.66140625 29.09960938 2 29 C-0.03120707 25.95318939 -0.24659875 25.39881676 -0.1953125 21.98828125 C-0.18886719 21.23095703 -0.18242187 20.47363281 -0.17578125 19.69335938 C-0.15902344 18.90767578 -0.14226562 18.12199219 -0.125 17.3125 C-0.11597656 16.51521484 -0.10695312 15.71792969 -0.09765625 14.89648438 C-0.07411585 12.930861 -0.03824547 10.96539225 0 9 C-0.99 9 -1.98 9 -3 9 C-3 8.01 -3 7.02 -3 6 C-2.01 6 -1.02 6 0 6 C0 4.02 0 2.04 0 0 Z " fill="#008575" transform="translate(228,121)"/>
<path d="M0 0 C3.96 0 7.92 0 12 0 C13.12256131 2.24512262 13.13413762 3.51456649 13.125 6 C13.12757812 6.70125 13.13015625 7.4025 13.1328125 8.125 C13 10 13 10 12 12 C10.18757948 12.02687279 8.37504767 12.04633715 6.5625 12.0625 C5.55316406 12.07410156 4.54382813 12.08570313 3.50390625 12.09765625 C1 12 1 12 0 11 C-0.14310287 7.3308423 -0.04221662 3.67284559 0 0 Z " fill="#FF5E0E" transform="translate(63,12)"/>
<path d="M0 0 C2.475 0.495 2.475 0.495 5 1 C7.34165499 0.73128549 9.67884289 0.40961596 12 0 C11.67 1.32 11.34 2.64 11 4 C9.02 4.33 7.04 4.66 5 5 C4.67 10.94 4.34 16.88 4 23 C2.68 23 1.36 23 0 23 C0 15.41 0 7.82 0 0 Z " fill="#008575" transform="translate(24,127)"/>
<path d="M0 0 C1.32 0.33 2.64 0.66 4 1 C6.34114367 0.72686657 8.67750658 0.40197001 11 0 C11 1.32 11 2.64 11 4 C10.030625 4.28875 9.06125 4.5775 8.0625 4.875 C4.89335797 5.64214682 4.89335797 5.64214682 4 8 C3.76827173 10.54615009 3.58105471 13.07396225 3.4375 15.625 C3.39431641 16.33140625 3.35113281 17.0378125 3.30664062 17.765625 C3.20055249 19.51018537 3.09977111 21.25506697 3 23 C2.01 23 1.02 23 0 23 C0 15.41 0 7.82 0 0 Z " fill="#008575" transform="translate(355,127)"/>
<path d="M0 0 C1.32 0 2.64 0 4 0 C4 7.59 4 15.18 4 23 C2.68 23 1.36 23 0 23 C0 15.41 0 7.82 0 0 Z " fill="#008575" transform="translate(452,127)"/>
<path d="M0 0 C1.32 0 2.64 0 4 0 C4 7.59 4 15.18 4 23 C2.68 23 1.36 23 0 23 C0 15.41 0 7.82 0 0 Z " fill="#008575" transform="translate(206,127)"/>
<path d="M0 0 C1.32 0 2.64 0 4 0 C4 7.59 4 15.18 4 23 C2.68 23 1.36 23 0 23 C0 15.41 0 7.82 0 0 Z " fill="#008475" transform="translate(104,127)"/>
<path d="M0 0 C1.32 0 2.64 0 4 0 C4 7.59 4 15.18 4 23 C2.68 23 1.36 23 0 23 C0 15.41 0 7.82 0 0 Z " fill="#008475" transform="translate(39,127)"/>
<path d="M0 0 C2.64 0 5.28 0 8 0 C8 2.31 8 4.62 8 7 C5.36 7 2.72 7 0 7 C0 4.69 0 2.38 0 0 Z " fill="#FF5E0E" transform="translate(545,0)"/>
<path d="M0 0 C3.63 0 7.26 0 11 0 C11 0.66 11 1.32 11 2 C7.37 2 3.74 2 0 2 C0 1.34 0 0.68 0 0 Z " fill="#FF5E0E" transform="translate(193,31)"/>
<path d="M0 0 C2.475 0.495 2.475 0.495 5 1 C5 1.99 5 2.98 5 4 C3.68 4.33 2.36 4.66 1 5 C0.67 3.35 0.34 1.7 0 0 Z " fill="#008575" transform="translate(206,119)"/>
<path d="M0 0 C2.475 0.495 2.475 0.495 5 1 C4.34 2.32 3.68 3.64 3 5 C2.01 4.67 1.02 4.34 0 4 C0 2.68 0 1.36 0 0 Z " fill="#008575" transform="translate(452,119)"/>
<path d="M0 0 C1.32 0 2.64 0 4 0 C3.67 1.65 3.34 3.3 3 5 C1.68 4.34 0.36 3.68 -1 3 C-0.67 2.01 -0.34 1.02 0 0 Z " fill="#008474" transform="translate(104,119)"/>
<path d="M0 0 C1.32 0 2.64 0 4 0 C3.67 1.65 3.34 3.3 3 5 C1.68 4.34 0.36 3.68 -1 3 C-0.67 2.01 -0.34 1.02 0 0 Z " fill="#008474" transform="translate(39,119)"/>
</svg>
