<svg width="137" height="43" viewBox="0 0 137 43" fill="none" xmlns="http://www.w3.org/2000/svg">
<path d="M21.2711 18.4135C21.2711 23.6245 17.0479 27.8137 11.8029 27.8137C10.9855 27.8137 10.5768 27.8477 9.86154 27.7115V21.6491C10.5087 21.7853 10.9514 21.7853 11.8369 21.7853C14.0507 21.7853 15.4131 20.3208 15.4131 18.2432C15.4131 15.9954 13.9145 14.7011 11.8369 14.7011H8.19268V35H2.40274V8.94526H11.8029C17.6609 8.94526 21.2711 13.2026 21.2711 18.4135ZM39.9668 27.1665C39.9668 31.8666 37.6849 35.4087 31.6566 35.4087C26.5137 35.4087 23.4485 31.8666 23.4485 27.1665V16.37H28.6935V26.7238C28.6935 28.7332 29.5109 30.2318 31.6566 30.2318C33.7001 30.2318 34.7218 28.7332 34.7218 26.7238V16.37H39.9668V27.1665ZM52.4205 21.1723C52.2843 21.1723 51.8756 21.1723 51.8756 21.1723C49.6959 21.1723 48.7082 22.3984 48.7082 24.6803V35H43.4632V24.2375C43.4632 19.6396 46.3581 15.9954 51.8415 15.9954C51.8415 15.9954 52.2162 15.9954 52.4205 15.9954V21.1723ZM72.9703 31.8666C72.9703 37.6906 69.4963 41.7776 61.9013 41.7776C60.3006 41.7776 59.6534 41.7095 58.223 41.5392V36.2942C59.5853 36.7029 61.3564 36.9073 62.6846 36.9073C66.397 36.9073 67.7253 34.8638 67.7253 33.263V25.4296C67.6912 23.2158 66.0905 21.1382 63.9448 21.1382C61.7991 21.1382 60.0621 22.8752 60.0621 25.0209C60.0621 27.1665 61.7991 28.9035 63.9448 28.9035C65.1369 28.9035 65.7159 28.5289 66.4992 27.9158V33.6717C65.6818 33.9101 64.8303 34.0464 63.9448 34.0464C58.9723 34.0464 54.9193 29.9934 54.9193 25.0209C54.9193 20.0483 58.9723 15.9954 63.9448 15.9954C68.9173 15.9954 72.9703 20.0483 72.9703 25.0209V31.8666Z" fill="#FAFAFA"/>
<path d="M125.842 35H120.597V25.7361C120.597 23.3179 118.553 21.3425 116.135 21.3425C113.717 21.3425 111.775 23.2839 111.775 25.702C111.775 28.1202 113.717 30.0615 116.135 30.0615C117.293 30.0615 118.349 29.7209 119.132 29.176V34.9319C118.213 35.2384 117.157 35.4087 116.135 35.4087C110.788 35.4087 106.428 31.0492 106.428 25.702C106.428 20.3549 110.788 15.9954 116.135 15.9954C121.482 15.9954 125.842 20.3889 125.842 25.7361V35ZM135.585 12.0786C135.585 13.8497 134.155 15.2461 132.384 15.2461C130.613 15.2461 129.182 13.8497 129.182 12.0786C129.182 10.3076 130.613 8.87715 132.384 8.87715C134.155 8.87715 135.585 10.3076 135.585 12.0786ZM134.938 35H129.693V16.37H134.938V35Z" fill="#FAFAFA"/>
<path d="M85.5 16C80.256 16 76 20.256 76 25.5C76 30.744 80.256 35 85.5 35C90.744 35 95 30.744 95 25.5C95 20.256 90.744 16 85.5 16ZM82.9255 29.5755L79.515 26.165C79.427 26.077 79.3573 25.9726 79.3097 25.8577C79.2621 25.7428 79.2376 25.6196 79.2376 25.4952C79.2376 25.3709 79.2621 25.2477 79.3097 25.1328C79.3573 25.0179 79.427 24.9135 79.515 24.8255C79.603 24.7375 79.7074 24.6678 79.8223 24.6202C79.9372 24.5726 80.0604 24.5481 80.1848 24.5481C80.3091 24.5481 80.4323 24.5726 80.5472 24.6202C80.6621 24.6678 80.7665 24.7375 80.8545 24.8255L83.6 27.5615L90.136 21.0255C90.3136 20.8479 90.5545 20.7481 90.8057 20.7481C91.057 20.7481 91.2979 20.8479 91.4755 21.0255C91.6531 21.2031 91.7529 21.444 91.7529 21.6953C91.7529 21.9465 91.6531 22.1874 91.4755 22.365L84.265 29.5755C84.1771 29.6636 84.0727 29.7334 83.9578 29.7811C83.8429 29.8288 83.7197 29.8533 83.5952 29.8533C83.4708 29.8533 83.3476 29.8288 83.2327 29.7811C83.1178 29.7334 83.0134 29.6636 82.9255 29.5755Z" fill="#FAFAFA"/>
</svg>
