<?xml version="1.0" encoding="UTF-8"?>
<svg version="1.1" xmlns="http://www.w3.org/2000/svg" width="2061" height="546">
<path d="M0 0 C11.87651833 9.53579954 22.60467405 21.77470347 25.76318359 37.0637207 C26.64462089 40.24283724 27.21286223 41.49510017 29.88037109 43.4934082 C31.77015873 44.48380682 33.68217377 45.43259253 35.61083984 46.3449707 C52.69855146 54.63526692 66.11996843 70.48465307 72.51318359 88.1262207 C78.17350838 106.73262618 78.32884129 126.84675812 70.28662109 144.8371582 C67.25607235 150.36345297 64.59037214 153.59426057 58.63818359 155.8137207 C55.42697991 156.51508468 52.83299257 156.6481038 49.63818359 155.8137207 C46.61043032 153.80235104 44.19877508 151.37431219 41.63818359 148.8137207 C40.32135575 147.79208369 38.99238323 146.78527673 37.63818359 145.8137207 C36.88537109 146.31000977 36.13255859 146.80629883 35.35693359 147.31762695 C29.19356734 151.25948862 23.0309901 154.74722696 16.32568359 157.6887207 C15.35888672 158.11713257 15.35888672 158.11713257 14.37255859 158.55419922 C9.87252482 160.47235012 5.4065409 161.72350805 0.63818359 162.8137207 C0.75935547 163.41885498 0.88052734 164.02398926 1.00537109 164.64746094 C1.35987674 166.41879612 1.7140142 168.19020502 2.06787109 169.96166992 C2.42599781 171.75261009 2.78520897 173.54333411 3.14599609 175.33374023 C3.65026606 177.84658549 4.14481823 180.36121367 4.63818359 182.8762207 C4.80318359 183.69026367 4.96818359 184.50430664 5.13818359 185.34301758 C7.99980141 200.04234348 9.01943879 214.55572383 8.95068359 229.5012207 C8.94794937 230.74338852 8.94794937 230.74338852 8.94515991 232.01065063 C8.80399876 270.23129781 -0.08804198 310.87787187 -27.48681641 339.1262207 C-28.25251953 339.86485352 -29.01822266 340.60348633 -29.80712891 341.36450195 C-31.61131482 344.20677473 -31.40484459 345.48942026 -30.84951782 348.71940613 C-29.87776075 352.89237947 -28.39033654 356.88415062 -26.93212891 360.9074707 C-26.41221123 362.36664665 -26.41221123 362.36664665 -25.88179016 363.8553009 C-24.75612139 367.01028477 -23.62139808 370.16193249 -22.48681641 373.3137207 C-21.71275993 375.48038143 -20.93940694 377.64729361 -20.16674805 379.81445312 C-17.90608906 386.1502954 -15.63542601 392.48251588 -13.36181641 398.8137207 C-11.40662003 404.25862586 -9.45265074 409.70394284 -7.50653076 415.15209961 C-6.81218568 417.09029735 -6.11193283 419.02628676 -5.41113281 420.9621582 C-4.7969751 422.67725586 -4.7969751 422.67725586 -4.17041016 424.42700195 C-3.817771 425.40451416 -3.46513184 426.38202637 -3.10180664 427.38916016 C-2.36181641 429.8137207 -2.36181641 429.8137207 -2.36181641 432.8137207 C-0.90775391 433.10762695 -0.90775391 433.10762695 0.57568359 433.4074707 C18.93021238 437.38994811 34.91691013 445.5446523 46.39599609 460.8684082 C49.66146701 465.98225889 49.16069967 471.97517146 48.63818359 477.8137207 C47.09213977 483.27903487 43.34254462 486.09357025 38.63818359 488.8684082 C33.20204688 491.4378322 27.4523583 491.5599133 21.70068359 489.8762207 C17.18175321 488.05477084 14.81673841 484.76425426 11.75927734 481.09887695 C4.43559119 473.20871784 -6.20155392 469.85023106 -16.73681641 469.3762207 C-26.65456983 469.70255594 -36.18743116 472.83770555 -43.36181641 479.8137207 C-44.40037101 481.02795121 -45.42170665 482.25714472 -46.42431641 483.5012207 C-50.08112937 487.90889926 -53.59440602 489.50835128 -59.19384766 490.1262207 C-65.73605687 490.38955491 -71.10247038 489.93622119 -76.36181641 485.8137207 C-78.16459012 483.86003607 -79.83857612 481.82843399 -81.52587891 479.7746582 C-87.4530033 473.44398491 -96.85650549 470.34602229 -105.31103516 469.52856445 C-116.23667109 469.20681077 -125.64532501 472.13634262 -134.36181641 478.8137207 C-135.7572054 480.33951989 -137.11217495 481.90326626 -138.42431641 483.5012207 C-142.21498316 488.00596095 -145.49195175 490.06541014 -151.36181641 490.8137207 C-158.03552842 491.02867155 -163.00732834 489.80333926 -168.36181641 485.8137207 C-172.43899819 481.73653892 -174.12565279 477.74647145 -174.41650391 471.99731445 C-174.18766764 462.86020934 -168.42519776 456.78277356 -162.17431641 450.67700195 C-153.81238628 443.48743703 -143.55673493 438.83298711 -133.36181641 434.8137207 C-133.51215332 434.25883972 -133.66249023 433.70395874 -133.81738281 433.13226318 C-135.38053396 427.35891268 -136.93668211 421.58370748 -138.48876953 415.80737305 C-139.06900364 413.6516151 -139.65102414 411.49633714 -140.23486328 409.34155273 C-141.0735486 406.24497821 -141.90580323 403.14673671 -142.73681641 400.0480957 C-142.99930176 399.08442078 -143.26178711 398.12074585 -143.53222656 397.12786865 C-143.77247559 396.22723694 -144.01272461 395.32660522 -144.26025391 394.39868164 C-144.47343262 393.60814392 -144.68661133 392.8176062 -144.90625 392.00311279 C-145.36181641 389.8137207 -145.36181641 389.8137207 -145.36181641 385.8137207 C-146.01085937 385.82459717 -146.65990234 385.83547363 -147.32861328 385.84667969 C-154.55460985 385.91399069 -161.66574819 385.50565347 -168.86181641 384.8762207 C-169.93173828 384.78920898 -171.00166016 384.70219727 -172.10400391 384.61254883 C-179.97195747 383.94367368 -179.97195747 383.94367368 -183.36181641 382.8137207 C-183.50876953 383.70124023 -183.50876953 383.70124023 -183.65869141 384.60668945 C-183.80822266 385.39688477 -183.95775391 386.18708008 -184.11181641 387.0012207 C-184.25103516 387.77852539 -184.39025391 388.55583008 -184.53369141 389.35668945 C-186.32370699 394.6676319 -189.80991428 397.34086366 -194.54931641 400.0012207 C-200.67157325 403.76689455 -204.75423339 408.36839532 -209.36181641 413.8137207 C-211.25667738 415.93813683 -213.18068968 418.03476576 -215.11181641 420.1262207 C-215.86338013 420.94074707 -215.86338013 420.94074707 -216.63012695 421.77172852 C-224.14848631 429.86897183 -231.85315639 437.86151767 -240.28369141 445.0168457 C-242.44259426 446.88356622 -244.53717463 448.81247712 -246.62841797 450.75439453 C-252.67725427 456.36666763 -258.91741576 461.65649532 -265.36181641 466.8137207 C-266.49265597 467.73612446 -267.62283155 468.65934266 -268.75244141 469.58325195 C-340.26354518 527.81468866 -340.26354518 527.81468866 -380.11181641 525.6887207 C-387.77557603 524.73903291 -393.34304888 521.74499141 -398.36181641 515.8137207 C-400.55385962 509.23759106 -399.51440491 503.82479721 -396.80712891 497.6340332 C-391.35971941 487.00422333 -384.1063402 477.64388628 -376.62792969 468.38842773 C-374.78248403 466.09318583 -372.97786977 463.76694413 -371.17431641 461.4387207 C-370.62388672 460.72973633 -370.07345703 460.02075195 -369.50634766 459.2902832 C-369.12865234 458.80301758 -368.75095703 458.31575195 -368.36181641 457.8137207 C-368.94447266 457.83692383 -369.52712891 457.86012695 -370.12744141 457.8840332 C-380.20941054 458.10596334 -390.4243063 457.68271983 -398.36181641 450.8137207 C-401.43577221 447.43236932 -402.61792682 444.86531345 -402.86181641 440.3762207 C-402.5492063 434.71134673 -400.49177705 430.91907878 -396.52294922 426.99609375 C-390.8317591 421.90135175 -384.86140983 417.48064256 -378.54931641 413.1887207 C-376.50490605 411.78137128 -374.46063775 410.37381548 -372.41650391 408.96606445 C-371.39911133 408.26852051 -370.38171875 407.57097656 -369.33349609 406.85229492 C-363.29991669 402.71325549 -357.28702315 398.54901181 -351.33447266 394.29418945 C-347.85105831 391.81322668 -344.29788105 389.50398276 -340.67041016 387.23950195 C-331.58611767 381.88244608 -331.58611767 381.88244608 -325.56689453 373.67211914 C-324.91139403 369.0652942 -325.59228371 364.62379031 -326.19384766 360.04272461 C-328.91744495 323.89963847 -295.74266525 275.18323536 -278.04052734 245.62866211 C-276.46458707 242.98605138 -274.91311371 240.33085012 -273.36962891 237.66918945 C-262.7569875 219.4837715 -250.78883785 202.04298925 -237.36181641 185.8137207 C-236.90419922 185.25458984 -236.44658203 184.69545898 -235.97509766 184.11938477 C-201.00024434 141.55067631 -201.00024434 141.55067631 -176.86181641 138.8137207 C-175.70681641 138.8137207 -174.55181641 138.8137207 -173.36181641 138.8137207 C-173.28060547 137.56461914 -173.19939453 136.31551758 -173.11572266 135.02856445 C-172.24049298 126.35694104 -170.18189329 117.87314282 -168.29931641 109.3762207 C-168.09862549 108.46698853 -167.89793457 107.55775635 -167.69116211 106.62097168 C-158.67037565 65.95598082 -146.14157856 19.1922956 -109.01025391 -4.9831543 C-74.33835991 -26.49838781 -32.41266135 -25.38471918 0 0 Z M-82.36181641 -2.1862793 C-83.41755859 -1.81245117 -84.47330078 -1.43862305 -85.56103516 -1.0534668 C-109.72742021 8.29128133 -125.87733317 27.91419056 -136.28930664 51.10229492 C-147.58520686 77.2327675 -153.37188793 105.29120707 -158.79931641 133.1184082 C-159.01434814 134.1906665 -159.22937988 135.2629248 -159.45092773 136.36767578 C-159.83707395 138.30912003 -160.20544474 140.2542246 -160.55200195 142.203125 C-161.76287283 148.27374049 -161.76287283 148.27374049 -164.62353516 150.8527832 C-167.63443428 151.90938974 -170.31025142 152.33353965 -173.48681641 152.6262207 C-195.0159849 155.63254603 -214.10524668 178.31794466 -226.62280273 194.80712891 C-227.46885788 195.93718358 -228.3122788 197.06921608 -229.15283203 198.20336914 C-230.30216444 199.73426505 -231.49505566 201.23217118 -232.68994141 202.7277832 C-245.63901483 218.97844158 -256.73524877 236.7913609 -267.15332031 254.74291992 C-268.23892643 256.60314439 -269.34798676 258.44632236 -270.46728516 260.28637695 C-271.03060547 261.24415039 -271.59392578 262.20192383 -272.17431641 263.1887207 C-272.86460937 264.34500977 -272.86460937 264.34500977 -273.56884766 265.5246582 C-274.64431952 268.62922231 -274.20471577 270.67200489 -273.36181641 273.8137207 C-270.09066198 277.92602912 -267.3613274 279.44581576 -262.36181641 280.8137207 C-248.70472311 282.2836957 -234.32846477 279.35003124 -223.36181641 270.8137207 C-222.13042952 269.54401265 -220.92078009 268.25276112 -219.73681641 266.9387207 C-217.83716615 264.87585468 -216.92576927 263.92651128 -214.15478516 263.37231445 C-211.92431641 263.3762207 -211.92431641 263.3762207 -208.36181641 263.8137207 C-206.61753404 266.81361488 -206.18867791 268.74477345 -206.42431641 272.1887207 C-206.47465056 276.574983 -206.13241492 279.22824028 -203.36181641 282.8137207 C-195.74734723 288.19636271 -187.90426644 289.50425546 -178.78759766 288.3684082 C-152.12729617 283.60079005 -130.2697822 268.34913653 -110.36181641 250.8137207 C-109.8598877 250.37495605 -109.35795898 249.93619141 -108.84082031 249.48413086 C-102.88151172 244.25875612 -97.42528961 238.90257366 -92.36181641 232.8137207 C-91.02919386 231.27004933 -89.69656171 229.72638625 -88.36376953 228.18286133 C-86.44910245 225.94605216 -84.56898659 223.68176523 -82.69433594 221.41137695 C-81.47894497 219.95415481 -80.23245134 218.52301777 -78.98291016 217.0949707 C-72.7552525 209.47956613 -71.62425679 202.27720512 -70.36181641 192.8137207 C-70.02658267 190.83125934 -69.67565508 188.85129132 -69.29931641 186.8762207 C-69.09628906 185.71799805 -69.09628906 185.71799805 -68.88916016 184.53637695 C-68.71513672 183.96790039 -68.54111328 183.39942383 -68.36181641 182.8137207 C-65.56311614 181.41437057 -63.45682849 181.56106666 -60.36181641 181.8137207 C-58.67041016 182.9152832 -58.67041016 182.9152832 -57.36181641 184.8137207 C-54.62267523 216.74183503 -70.58504112 254.24892959 -85.36181641 281.8137207 C-85.67586426 282.40314453 -85.98991211 282.99256836 -86.31347656 283.59985352 C-103.8235597 316.15355546 -129.10715823 343.40644466 -158.54882812 365.44213867 C-160.85639101 367.18788178 -163.11581616 368.98966962 -165.36181641 370.8137207 C-137.01785702 379.43394666 -95.7377869 369.0915466 -70.36181641 355.8137207 C-59.31585785 349.85422644 -50.24841894 342.62501305 -41.36181641 333.8137207 C-40.67603516 333.17692383 -39.99025391 332.54012695 -39.28369141 331.8840332 C-12.96354835 307.10515978 -5.92064623 267.53565849 -4.17431641 233.1184082 C-3.87054885 217.36046638 -5.81137846 201.57859105 -8.73681641 186.1262207 C-9.032052 184.55179199 -9.032052 184.55179199 -9.33325195 182.94555664 C-11.27924158 169.85118213 -11.27924158 169.85118213 -18.35791016 159.6105957 C-19.49357422 159.26512695 -20.62923828 158.9196582 -21.79931641 158.5637207 C-23.04068359 158.12286133 -24.28205078 157.68200195 -25.56103516 157.2277832 C-26.19444824 157.00509766 -26.82786133 156.78241211 -27.48046875 156.55297852 C-36.70757696 152.9272734 -44.8947345 146.19844058 -52.36181641 139.8137207 C-53.19455078 139.12665039 -54.02728516 138.43958008 -54.88525391 137.73168945 C-73.55033434 121.79458231 -85.91326325 97.23123688 -88.36181641 72.8137207 C-89.66619225 55.09594883 -87.26661787 37.90089592 -75.48681641 23.8762207 C-71.80340958 20.0260181 -68.16816738 17.11941288 -63.36181641 14.8137207 C-62.55873047 14.4218457 -61.75564453 14.0299707 -60.92822266 13.6262207 C-48.67336931 8.61998274 -32.63786699 8.93633955 -20.28759766 13.4855957 C-4.73429766 20.54583869 3.41615151 29.56720854 10.63818359 44.8137207 C11.29818359 44.4837207 11.95818359 44.1537207 12.63818359 43.8137207 C12.07257525 31.08753294 2.57361252 21.02311362 -6.36181641 12.8137207 C-14.80983018 5.55653036 -23.85865961 0.53589206 -34.36181641 -3.1862793 C-35.28865234 -3.52530273 -36.21548828 -3.86432617 -37.17041016 -4.21362305 C-51.73287938 -8.69597173 -68.19755704 -7.23198752 -82.36181641 -2.1862793 Z M-66.11181641 33.63012695 C-75.63801102 45.41879278 -76.49913694 59.29661793 -75.36181641 73.8137207 C-73.05353065 90.43209043 -65.42335001 106.25477425 -54.36181641 118.8137207 C-53.70955078 119.6077832 -53.05728516 120.4018457 -52.38525391 121.2199707 C-44.09921011 130.98243685 -34.17190617 138.74844518 -22.36181641 143.8137207 C-22.47009766 142.95327148 -22.47009766 142.95327148 -22.58056641 142.07543945 C-25.62072786 114.24951728 -20.71448326 85.97777018 -3.29931641 63.3137207 C-0.95079888 60.07104284 -0.38270411 59.07272817 -0.04931641 54.9387207 C-2.70695504 44.17746262 -8.76991117 34.89268969 -18.18994141 29.0637207 C-34.05693757 20.60132275 -52.86909269 19.88488916 -66.11181641 33.63012695 Z M18.63037109 58.25512695 C10.76719455 66.13281121 4.56235145 75.25003475 -0.71728516 85.02856445 C-1.22811646 85.97203735 -1.22811646 85.97203735 -1.74926758 86.93457031 C-2.52983712 89.32916726 -2.33714242 90.50449294 -1.36181641 92.8137207 C1.02020336 94.3268276 3.31773587 95.61027401 5.82568359 96.8762207 C25.06733449 107.18032813 39.67349158 122.48416245 52.63818359 139.8137207 C55.47517647 138.79073795 56.46474507 138.15068698 57.86865234 135.4230957 C58.18447266 134.47950195 58.50029297 133.5359082 58.82568359 132.5637207 C59.14923828 131.63043945 59.47279297 130.6971582 59.80615234 129.7355957 C64.15775628 114.45390676 61.78790936 98.53866986 54.36474609 84.66137695 C47.24940295 72.92589018 36.94630382 63.01623798 24.63818359 56.8137207 C20.76780694 56.42493401 20.76780694 56.42493401 18.63037109 58.25512695 Z M-8.36181641 105.8137207 C-12.47043799 119.93710741 -10.83146736 134.02780933 -6.36181641 147.8137207 C-6.03181641 148.1437207 -5.70181641 148.4737207 -5.36181641 148.8137207 C7.28854012 147.85432205 18.4009531 142.00745024 28.63818359 134.8137207 C23.48769108 123.22511255 11.10367017 116.07678709 0.63818359 109.8137207 C-0.07982422 109.37801758 -0.79783203 108.94231445 -1.53759766 108.4934082 C-4.73182824 106.46591667 -4.73182824 106.46591667 -8.36181641 105.8137207 Z M-96.36181641 256.8137207 C-96.96703125 257.36286133 -96.96703125 257.36286133 -97.58447266 257.9230957 C-124.91895891 282.29779682 -154.91639176 302.29402643 -192.79736328 300.99291992 C-201.16118153 300.40847185 -208.36213368 296.57341612 -214.36181641 290.8137207 C-215.92253377 288.86835061 -217.11918186 286.98833115 -218.36181641 284.8137207 C-222.51962372 286.15816139 -226.56097859 287.67742168 -230.61181641 289.3137207 C-243.31041332 294.16696124 -258.01645308 296.47339351 -271.17431641 291.8059082 C-275.69849069 289.75387201 -279.84058947 287.33494764 -283.36181641 283.8137207 C-288.0986709 291.4538086 -289.28362154 299.6269901 -287.95556641 308.5402832 C-286.42451281 313.99010493 -284.03899436 316.69560207 -279.36181641 319.8137207 C-268.47887758 323.44136698 -256.22698166 319.96025478 -246.17431641 315.3527832 C-240.83852928 312.56101028 -240.83852928 312.56101028 -236.31494141 308.65356445 C-234.08560281 306.55352749 -233.23824953 306.2906285 -230.23681641 306.3762207 C-228.95806641 306.5205957 -227.67931641 306.6649707 -226.36181641 306.8137207 C-224.09798294 310.20947091 -224.11733692 311.63530493 -223.98681641 315.6262207 C-223.52579379 322.21566463 -221.79609985 325.56668983 -216.92431641 330.0637207 C-209.15139442 335.37205767 -199.76871872 334.81256217 -190.83056641 333.16137695 C-170.77629086 327.80283773 -152.89252494 317.46413906 -137.36181641 303.8137207 C-136.22486328 302.84112305 -136.22486328 302.84112305 -135.06494141 301.84887695 C-121.87563442 290.3192982 -109.82322505 277.86136712 -99.36181641 263.8137207 C-98.03538373 262.14155686 -96.70449604 260.47286716 -95.36181641 258.8137207 C-95.69181641 258.1537207 -96.02181641 257.4937207 -96.36181641 256.8137207 Z M-117.36181641 303.8137207 C-117.78849609 304.27520508 -118.21517578 304.73668945 -118.65478516 305.2121582 C-139.80428549 327.2774101 -171.89164471 346.35117895 -202.92431641 347.1262207 C-212.26009539 346.97472733 -221.15121924 345.11138819 -228.36181641 338.8137207 C-231.60389387 334.78634003 -234.10933418 330.4555182 -236.36181641 325.8137207 C-239.58592498 326.88344808 -242.80480834 327.96564422 -246.01806641 329.06762695 C-247.29929935 329.50387498 -248.58054955 329.94007229 -249.86181641 330.3762207 C-250.49990234 330.59729492 -251.13798828 330.81836914 -251.79541016 331.04614258 C-262.26254101 334.58869913 -274.44133938 335.65314677 -285.04150391 331.99731445 C-290.99604326 328.95989792 -295.44499833 324.12687923 -299.36181641 318.8137207 C-310.01735638 342.98372399 -310.01735638 342.98372399 -313.36181641 368.8137207 C-311.61297238 372.87103885 -310.1828907 374.26633784 -306.54931641 376.6887207 C-298.64570664 379.47823003 -291.79375722 376.92353991 -284.36181641 373.8137207 C-273.93988291 368.66210438 -263.20945069 362.10534204 -255.25244141 353.54418945 C-253.06524731 351.54227419 -252.15266025 351.29306926 -249.23681641 351.3762207 C-247.95806641 351.5205957 -246.67931641 351.6649707 -245.36181641 351.8137207 C-243.2527356 354.97734191 -243.1360327 355.52329327 -243.30712891 359.0871582 C-243.34386719 360.3246582 -243.34386719 360.3246582 -243.38134766 361.5871582 C-243.45135755 363.3140688 -243.52941402 365.04067294 -243.61572266 366.7668457 C-243.72645094 370.94846678 -243.73747251 373.18655235 -241.54150391 376.8527832 C-236.46545833 381.41940485 -228.9674319 380.27099374 -222.51513672 379.98413086 C-198.43644515 378.07858361 -174.42711791 361.7682949 -156.36181641 346.8137207 C-155.49580811 346.09998291 -155.49580811 346.09998291 -154.61230469 345.37182617 C-140.25637527 333.47248494 -128.08925253 320.28021787 -116.36181641 305.8137207 C-116.69181641 305.1537207 -117.02181641 304.4937207 -117.36181641 303.8137207 Z M-44.36181641 354.4387207 C-49.77977597 358.71274561 -55.31871972 362.45796047 -61.36181641 365.8137207 C-60.69245011 369.6102971 -59.64776499 373.11173698 -58.36816406 376.74633789 C-57.95748688 377.91815613 -57.54680969 379.08997437 -57.12368774 380.29730225 C-56.67446617 381.56841704 -56.22519532 382.83951443 -55.77587891 384.1105957 C-55.31335686 385.42699375 -54.85115299 386.74350364 -54.38925171 388.06011963 C-53.17348026 391.52316334 -51.95382499 394.98482609 -50.73321533 398.44616699 C-49.02076415 403.30443678 -47.31352476 408.16454084 -45.60580444 413.0244751 C-44.69788548 415.6082643 -43.78848367 418.19152362 -42.87783813 420.77435303 C-40.64968271 427.10337994 -38.45975614 433.4402979 -36.36181641 439.8137207 C-37.34794922 439.89750977 -38.33408203 439.98129883 -39.35009766 440.06762695 C-43.88704165 440.71739316 -47.53622764 442.62221117 -51.54931641 444.7512207 C-52.24734375 445.11151367 -52.94537109 445.47180664 -53.66455078 445.84301758 C-54.34195313 446.19299805 -55.01935547 446.54297852 -55.71728516 446.90356445 C-56.68069824 447.3982019 -56.68069824 447.3982019 -57.66357422 447.90283203 C-59.47858681 448.84273372 -59.47858681 448.84273372 -61.54541016 450.2590332 C-63.36181641 450.8137207 -63.36181641 450.8137207 -65.66650391 449.65356445 C-66.51470703 449.02579102 -67.36291016 448.39801758 -68.23681641 447.7512207 C-75.71210018 442.66762746 -83.84481118 439.90602427 -92.57788086 437.74853516 C-93.82657959 437.44004639 -95.07527832 437.13155762 -96.36181641 436.8137207 C-96.53498886 436.15195328 -96.70816132 435.49018585 -96.88658142 434.80836487 C-98.68304577 427.94602789 -100.48427575 421.08495482 -102.28833008 414.22460938 C-102.96176549 411.66113138 -103.6339682 409.09732924 -104.30493164 406.53320312 C-105.26729757 402.85632608 -106.23403164 399.18062206 -107.20166016 395.50512695 C-107.50273178 394.35097794 -107.80380341 393.19682892 -108.11399841 392.00770569 C-108.53432091 390.4161692 -108.53432091 390.4161692 -108.96313477 388.79248047 C-109.20962265 387.85316177 -109.45611053 386.91384308 -109.71006775 385.94606018 C-110.16793742 383.85108733 -110.16793742 383.85108733 -111.36181641 382.8137207 C-113.44784244 382.88003945 -115.53163318 383.01919035 -117.61181641 383.1887207 C-119.49900391 383.33954102 -119.49900391 383.33954102 -121.42431641 383.4934082 C-123.37337891 383.65196289 -123.37337891 383.65196289 -125.36181641 383.8137207 C-126.59931641 383.89879883 -127.83681641 383.98387695 -129.11181641 384.0715332 C-130.26681641 384.15145508 -131.42181641 384.23137695 -132.61181641 384.3137207 C-134.19736328 384.42200195 -134.19736328 384.42200195 -135.81494141 384.5324707 C-138.35026899 384.66363985 -138.35026899 384.66363985 -140.36181641 385.8137207 C-137.67656367 397.52605237 -134.73724637 409.14916914 -131.61181641 420.7512207 C-130.80168972 423.75958402 -129.99482971 426.76879595 -129.18994141 429.77856445 C-129.00562561 430.45862045 -128.82130981 431.13867645 -128.63140869 431.83934021 C-127.36181641 436.58815805 -127.36181641 436.58815805 -127.36181641 438.8137207 C-128.07724609 439.02125977 -128.79267578 439.22879883 -129.52978516 439.44262695 C-145.26405424 444.30742684 -159.63675885 452.37771638 -168.36181641 466.8137207 C-169.58987829 470.66164795 -169.4616892 472.47885311 -168.29931641 476.3762207 C-165.84898603 480.72358105 -163.32711186 483.83734293 -158.43994141 485.4465332 C-153.47264547 486.3514282 -149.75205409 485.34141466 -145.36181641 482.8137207 C-142.60344392 480.31511477 -142.60344392 480.31511477 -140.11181641 477.4387207 C-135.13500473 472.14809508 -130.22959837 469.13820075 -123.36181641 466.8137207 C-122.70955078 466.57137695 -122.05728516 466.3290332 -121.38525391 466.0793457 C-109.71980003 462.40596874 -96.56540302 464.56846472 -85.79931641 469.8762207 C-81.00634287 472.68648936 -77.38744188 476.56397482 -73.62353516 480.60668945 C-70.07244002 484.07192046 -67.42492337 485.11180315 -62.48681641 485.1887207 C-57.66315419 485.07538943 -55.05035946 484.07336341 -51.36181641 480.8137207 C-50.17969766 479.34405956 -48.99802823 477.873996 -47.82666016 476.39575195 C-40.79103985 468.79728203 -30.36171757 465.35285451 -20.26806641 464.57543945 C-8.03271301 464.30884345 3.15085204 466.69271884 12.63818359 474.8137207 C14.27913169 476.57858479 15.80380114 478.39678012 17.31787109 480.27075195 C20.61551338 484.12450551 24.51318761 485.4791275 29.51708984 485.94262695 C34.60784039 485.63324432 38.40560571 482.89222635 42.13818359 479.6262207 C44.3088735 475.55617714 44.58696441 472.32226828 43.63818359 467.8137207 C37.82534866 454.89387249 24.0318956 446.58907701 11.35302734 441.4934082 C7.10166026 440.04224624 3.22674482 438.86976187 -1.26171875 438.44238281 C-4.08689157 437.72119239 -5.08884972 437.22457766 -6.72067261 434.76843262 C-7.94258217 431.87154856 -8.93174479 428.96470001 -9.87744141 425.96606445 C-10.25589706 424.85809006 -10.63435272 423.75011566 -11.02427673 422.60856628 C-12.25024948 418.99881964 -13.43073483 415.37587514 -14.61181641 411.7512207 C-15.44210754 409.28309808 -16.27585708 406.81613624 -17.11303711 404.3503418 C-18.77376326 399.4524202 -20.42062844 394.55018962 -22.05761719 389.64428711 C-25.06199827 380.68348881 -28.28097033 371.80588907 -31.54931641 362.9387207 C-32.05330968 361.56248825 -32.55690592 360.18611031 -33.06005859 358.80957031 C-34.1575497 355.80980115 -35.25791377 352.81113471 -36.36181641 349.8137207 C-39.68842153 349.8137207 -41.86104498 352.42880835 -44.36181641 354.4387207 Z M-69.44628906 369.46289062 C-70.29755371 369.81971924 -71.14881836 370.17654785 -72.02587891 370.54418945 C-73.46447266 371.13103516 -73.46447266 371.13103516 -74.93212891 371.72973633 C-76.91504825 372.55510749 -78.89688697 373.38308139 -80.87744141 374.21411133 C-89.20722738 377.60426829 -97.62046586 379.80071732 -106.36181641 381.8137207 C-104.67970187 388.88996265 -102.95200129 395.9539256 -101.19213867 403.01123047 C-100.59888888 405.41326756 -100.01612518 407.81791978 -99.4440918 410.22509766 C-98.61990979 413.68523495 -97.75845426 417.13421051 -96.88916016 420.58325195 C-96.64093002 421.66145706 -96.39269989 422.73966217 -96.13694763 423.85054016 C-94.95435816 429.08505362 -94.95435816 429.08505362 -91.72073364 433.1214447 C-89.65570992 434.08551409 -89.65570992 434.08551409 -86.36181641 434.8137207 C-85.65154297 435.08692139 -84.94126953 435.36012207 -84.20947266 435.64160156 C-83.62037109 435.85179932 -83.03126953 436.06199707 -82.42431641 436.27856445 C-81.75658203 436.52155273 -81.08884766 436.76454102 -80.40087891 437.01489258 C-79.04274738 437.50532896 -77.68336582 437.99231761 -76.32275391 438.47583008 C-72.83609064 439.75135651 -69.80010612 441.11477065 -66.67431641 443.13012695 C-63.59951871 445.13157318 -63.59951871 445.13157318 -60.94384766 444.2902832 C-60.09177734 443.80301758 -59.23970703 443.31575195 -58.36181641 442.8137207 C-57.03776454 442.22593907 -55.70772012 441.6515615 -54.37353516 441.0871582 C-52.93171025 440.45530018 -51.4903846 439.82230266 -50.04931641 439.1887207 C-48.67800276 438.58661469 -47.30666319 437.98456773 -45.93530273 437.38256836 C-44.75605225 436.86484863 -43.57680176 436.34712891 -42.36181641 435.8137207 C-46.96700898 421.84297295 -51.70544078 407.92484315 -56.6159668 394.05834961 C-57.33377785 392.02728378 -58.0481874 389.99501321 -58.75952148 387.96166992 C-59.8035218 384.97753167 -60.85687583 381.99685409 -61.91259766 379.0168457 C-62.38914543 377.64692474 -62.38914543 377.64692474 -62.87532043 376.24932861 C-63.32170113 374.99971344 -63.32170113 374.99971344 -63.77709961 373.72485352 C-64.03578323 372.99099426 -64.29446686 372.25713501 -64.56098938 371.5010376 C-65.78819767 368.91534903 -66.74696059 368.62223539 -69.44628906 369.46289062 Z M-264.11181641 377.4387207 C-277.88522986 386.01659821 -292.77552238 393.23589281 -309.36181641 389.8137207 C-311.3690622 388.82834549 -313.37161894 387.83309014 -315.36181641 386.8137207 C-320.3841018 388.08507122 -324.13161194 391.53721241 -328.11181641 394.6887207 C-338.67310466 402.90572561 -349.59016001 410.55917182 -360.63549805 418.10766602 C-370.17100855 424.62529192 -379.59949144 431.26838531 -388.36181641 438.8137207 C-387.69364953 441.98399307 -387.69364953 441.98399307 -385.04931641 443.0012207 C-344.33316637 451.9725758 -289.23574954 418.64495314 -256.76586914 398.0871582 C-256.01378174 397.60504883 -255.26169434 397.12293945 -254.48681641 396.6262207 C-253.77275635 396.16860352 -253.05869629 395.71098633 -252.32299805 395.23950195 C-248.7786983 393.06943368 -248.7786983 393.06943368 -246.36181641 389.8137207 C-246.82072266 389.49661133 -247.27962891 389.17950195 -247.75244141 388.8527832 C-253.2362395 384.68233171 -255.29689763 380.30346542 -257.36181641 373.8137207 C-259.60245818 373.8137207 -262.34801826 376.31208409 -264.11181641 377.4387207 Z M-227.36181641 393.8137207 C-230.34537829 395.41994513 -232.71815772 397.23584977 -235.33056641 399.38793945 C-261.83995397 420.60228182 -298.63349765 439.98405988 -331.56494141 448.1730957 C-343.64127955 451.21757055 -349.60740218 455.76821959 -356.91943359 465.84106445 C-358.30188215 467.73175239 -359.73766902 469.55777186 -361.21337891 471.3762207 C-363.99327349 474.80812339 -366.69115572 478.29633485 -369.36181641 481.8137207 C-370.08594727 482.76625732 -370.08594727 482.76625732 -370.82470703 483.73803711 C-380.56621559 494.88219181 -380.56621559 494.88219181 -385.28369141 507.92700195 C-384.47979554 510.02464291 -384.47979554 510.02464291 -382.13525391 511.06762695 C-366.95345245 515.15174537 -349.36618048 504.79830739 -336.36181641 497.8137207 C-335.71100098 497.46825195 -335.06018555 497.1227832 -334.38964844 496.7668457 C-307.01270853 482.15490665 -281.53235386 462.96315688 -258.73291016 441.97387695 C-256.707587 440.12873081 -254.65651887 438.32517123 -252.58837891 436.52856445 C-248.40689211 432.87870923 -244.34144211 429.11669057 -240.29931641 425.3137207 C-239.6309375 424.68852539 -238.96255859 424.06333008 -238.27392578 423.41918945 C-229.85361743 415.54090786 -229.85361743 415.54090786 -222.04931641 407.0637207 C-217.58761112 401.8889575 -212.97002803 396.85771894 -208.36181641 391.8137207 C-213.32442975 389.33241403 -222.19421646 392.22705945 -227.36181641 393.8137207 Z " fill="#5AB946" transform="translate(402.36181640625,20.186279296875)"/>
<path d="M0 0 C170.06914894 0 170.06914894 0 192 21 C206.27570195 35.63438793 212.0653813 52.93261082 212 73 C211.17756129 86.78346354 206.02601928 98.88570809 198 110 C197.48953125 110.70769531 196.9790625 111.41539062 196.453125 112.14453125 C191.40438322 118.48045225 184.72298987 122.63258402 178 127 C181.09625353 129.06416902 184.1983335 130.53708387 187.5625 132.125 C202.23316808 139.31071065 214.89585523 151.26429128 220.4453125 166.91015625 C227.38352483 187.82179726 226.19898124 208.91511833 217 229 C216.58105469 229.92039062 216.16210938 230.84078125 215.73046875 231.7890625 C206.83375879 249.58248242 192.1072301 261.33401583 173.45703125 267.89453125 C153.29937726 273.79929858 130.89668594 272.28286756 110.09877777 272.20256042 C106.59282625 272.19094998 103.08690359 272.19062248 99.58093262 272.18920898 C89.40810453 272.17882124 79.23530042 272.15089928 69.0625 272.125 C46.271875 272.08375 23.48125 272.0425 0 272 C0 182.24 0 92.48 0 0 Z M55 46 C55 66.46 55 86.92 55 108 C67.14842835 108.05828728 67.14842835 108.05828728 79.296875 108.09765625 C84.26046082 108.10955628 89.22397202 108.1235486 94.1875 108.15087891 C98.19458579 108.17280172 102.20159141 108.18460907 106.2087326 108.18975449 C107.72834279 108.19341569 109.24794919 108.20056375 110.76752472 108.21146011 C125.27064443 108.31120712 139.52379592 108.03099369 150.875 97.8125 C157.39410448 90.63069696 158.64122842 82.81379149 158.3125 73.33203125 C157.50582499 64.73085895 154.52827955 58.75794257 148 53 C139.74876135 47.43866515 130.39693397 46.66959699 120.72265625 46.37890625 C119.63783463 46.34116592 118.553013 46.3034256 117.43531799 46.26454163 C104.77056879 45.86478086 92.10698852 45.89112469 79.4375 45.9375 C71.373125 45.958125 63.30875 45.97875 55 46 Z M55 154 C55 177.76 55 201.52 55 226 C71.0875 226.0309375 71.0875 226.0309375 87.5 226.0625 C90.85220703 226.071604 94.20441406 226.08070801 97.65820312 226.09008789 C100.36588501 226.09301315 103.07356734 226.09556026 105.78125 226.09765625 C106.46006226 226.10026962 107.13887451 226.102883 107.83825684 226.10557556 C135.32619187 227.05994703 135.32619187 227.05994703 158.94140625 215.14453125 C166.6366626 206.83879527 168.33664988 198.48967924 168.2109375 187.3515625 C167.61516884 177.88546053 164.10848343 170.66426748 157.11328125 164.27734375 C141.9697658 152.16848169 119.54407415 153.82664667 101.19140625 153.90234375 C100.00736206 153.90335083 98.82331787 153.90435791 97.60339355 153.90539551 C93.25641893 153.91055636 88.9094583 153.92451646 84.5625 153.9375 C74.806875 153.958125 65.05125 153.97875 55 154 Z " fill="#FFFFFF" transform="translate(1550,147)"/>
<path d="M0 0 C19.14 0 38.28 0 58 0 C66.6873087 21.60087569 75.22371314 43.25853088 83.72900391 64.93164062 C84.69042135 67.38151369 85.65184705 69.83138351 86.61328125 72.28125 C87.0827417 73.47754028 87.55220215 74.67383057 88.03588867 75.90637207 C91.84452546 85.60929571 95.66802817 95.30627297 99.5 105 C105.68881449 120.65797798 111.84614891 136.32825143 118 152 C127.26748706 175.59916652 127.26748706 175.59916652 136.5625 199.1875 C136.84481476 199.90287933 137.12712952 200.61825867 137.41799927 201.35531616 C140.97327952 210.36237192 144.54054365 219.36463737 148.11433411 228.36436462 C150.07086934 233.29151932 152.02633188 238.21909958 153.98190308 243.14663696 C155.41897696 246.76585047 156.85801146 250.38428035 158.29711914 254.00268555 C159.1760293 256.21660026 160.05485815 258.43054725 160.93359375 260.64453125 C161.34527802 261.67792633 161.75696228 262.71132141 162.18112183 263.77603149 C162.74006638 265.18590836 162.74006638 265.18590836 163.31030273 266.62426758 C163.63812241 267.44897049 163.96594208 268.2736734 164.30369568 269.12336731 C165 271 165 271 165 272 C145.2 272 125.4 272 105 272 C101.78897002 264.93573405 98.75711588 258.01788269 96.08203125 250.765625 C95.73871262 249.84336121 95.39539398 248.92109741 95.04167175 247.97088623 C94.32477326 246.04233765 93.60980703 244.11306974 92.89672852 242.18310547 C91.80926774 239.24125594 90.71466543 236.30213605 89.61914062 233.36328125 C88.91884892 231.47671906 88.21896478 229.59000552 87.51953125 227.703125 C87.19555862 226.83318909 86.871586 225.96325317 86.53779602 225.06695557 C86.08173225 223.82966705 86.08173225 223.82966705 85.61645508 222.56738281 C85.21938103 221.49463104 85.21938103 221.49463104 84.81428528 220.40020752 C83.76346622 217.30278715 82.89856211 214.14496738 82 211 C47.02 211 12.04 211 -24 211 C-24.99 214.3 -25.98 217.6 -27 221 C-27.64022557 222.90947989 -28.29604882 224.81390834 -28.97705078 226.70922852 C-29.33397003 227.70628311 -29.69088928 228.70333771 -30.05862427 229.73060608 C-30.43373138 230.76954514 -30.8088385 231.80848419 -31.1953125 232.87890625 C-31.58822479 233.97218735 -31.98113708 235.06546844 -32.38595581 236.19187927 C-33.20993243 238.48231382 -34.03523775 240.77227077 -34.86181641 243.06176758 C-36.13204669 246.5820289 -37.39634626 250.10438246 -38.66015625 253.62695312 C-39.46318879 255.85689794 -40.26656185 258.08672017 -41.0703125 260.31640625 C-41.44946808 261.37356339 -41.82862366 262.43072052 -42.2192688 263.51991272 C-42.56988373 264.48859787 -42.92049866 265.45728302 -43.28173828 266.45532227 C-43.59023712 267.31118423 -43.89873596 268.1670462 -44.21658325 269.04884338 C-45 271 -45 271 -46 272 C-47.81055025 272.09376053 -49.62477201 272.1174411 -51.43774414 272.11352539 C-53.17943626 272.11341209 -53.17943626 272.11341209 -54.95631409 272.11329651 C-56.85159096 272.10555458 -56.85159096 272.10555458 -58.78515625 272.09765625 C-60.07111191 272.0962413 -61.35706757 272.09482635 -62.68199158 272.09336853 C-66.10643443 272.08954418 -69.53083509 272.07971462 -72.95526123 272.06866455 C-76.44738189 272.05844864 -79.93950934 272.05387053 -83.43164062 272.04882812 C-90.28777778 272.03809227 -97.14388687 272.02101684 -104 272 C-102.17658964 265.6562121 -100.14313563 259.47326709 -97.7265625 253.33203125 C-97.41102921 252.52029953 -97.09549591 251.70856781 -96.770401 250.87223816 C-96.0855492 249.1112217 -95.39903793 247.35084988 -94.71102905 245.59106445 C-92.79755828 240.69552152 -90.89762812 235.79472007 -88.99609375 230.89453125 C-88.59189713 229.85378448 -88.1877005 228.81303772 -87.77125549 227.74075317 C-83.02663721 215.51294571 -78.35802009 203.25625286 -73.6875 191 C-66.82080386 172.98870786 -59.92760016 154.98795411 -53 137 C-46.09661785 119.07328034 -39.22341962 101.13528855 -32.375 83.1875 C-31.50075126 80.89696547 -30.6264838 78.60643808 -29.75219727 76.31591797 C-26.2970256 67.26309544 -22.84219363 58.21014486 -19.39111328 49.15576172 C-17.30161794 43.673964 -15.20975173 38.19307632 -13.11627197 32.71279907 C-12.34058996 30.68089617 -11.56578558 28.64865799 -10.79193115 26.61605835 C-9.72682862 23.81869115 -8.65868455 21.02250309 -7.58984375 18.2265625 C-7.28349503 17.41972519 -6.9771463 16.61288788 -6.66151428 15.78160095 C-4.60711475 10.42030171 -2.33924976 5.26331196 0 0 Z M28 67 C24.44147276 75.30250718 21.23608709 83.68093027 18.234375 92.19921875 C17.56478161 94.08592624 16.89518783 95.97263359 16.22557449 97.85933399 C15.29719034 100.47781726 14.37185887 103.09737517 13.44647217 105.71691895 C11.62546905 110.86921995 9.79793828 116.01921261 7.97184753 121.16971207 C7.3002779 123.06461709 6.62939697 124.95976486 5.95861816 126.85494995 C2.56324303 136.43961917 -0.87394702 146.00879061 -4.34698486 155.56559753 C-4.8727713 157.01776421 -4.8727713 157.01776421 -5.40917969 158.49926758 C-5.71780945 159.34846268 -6.02643921 160.19765778 -6.34442139 161.07258606 C-7.05366938 162.81847976 -7.05366938 162.81847976 -7 164 C16.43 164 39.86 164 64 164 C58.54732945 147.51865228 58.54732945 147.51865228 52.73046875 131.1796875 C52.36737106 130.19339859 52.00427338 129.20710968 51.63017273 128.19093323 C50.48569906 125.08447406 49.33672344 121.9797047 48.1875 118.875 C47.39116643 116.71632767 46.59510743 114.55755404 45.79931641 112.39868164 C43.88026166 107.19502856 41.95750904 101.99275387 40.03277588 96.79119873 C39.08690086 94.23485983 38.14166498 91.67828602 37.19677734 89.12158203 C34.47056615 81.74547455 31.7401648 74.3709375 29 67 C28.67 67 28.34 67 28 67 Z " fill="#FFFFFF" transform="translate(1896,147)"/>
<path d="M0 0 C1.24910156 0.36222656 2.49820313 0.72445312 3.78515625 1.09765625 C16.91240908 5.38618292 28.62137722 11.91421605 39 21 C39.74507812 21.59039062 40.49015625 22.18078125 41.2578125 22.7890625 C57.25446293 35.88736512 65.16722512 55.73501758 71 75 C68.15356827 76.89762115 66.45831274 77.53511654 63.20898438 78.32861328 C62.2378772 78.56871124 61.26677002 78.8088092 60.26623535 79.05618286 C59.21931519 79.30834564 58.17239502 79.56050842 57.09375 79.8203125 C56.01750366 80.08383514 54.94125732 80.34735779 53.83239746 80.61886597 C51.55676401 81.17469977 49.28041571 81.72761379 47.00341797 82.27783203 C43.51220494 83.1220487 40.02356075 83.97629202 36.53515625 84.83203125 C34.32566599 85.37038776 32.11603515 85.90816771 29.90625 86.4453125 C28.85932983 86.70152374 27.81240967 86.95773499 26.73376465 87.22171021 C25.76265747 87.45550385 24.79155029 87.68929749 23.79101562 87.93017578 C22.93624634 88.13732208 22.08147705 88.34446838 21.20080566 88.55789185 C19 89 19 89 16 89 C15.64808594 87.97261719 15.29617188 86.94523437 14.93359375 85.88671875 C9.03503051 69.12985158 1.55642707 57.14470342 -14.91625977 49.23486328 C-19.2573814 47.24354461 -23.26010803 45.59890332 -28 45 C-29.53527344 44.80277344 -29.53527344 44.80277344 -31.1015625 44.6015625 C-50.02944013 42.71297161 -66.79968667 47.52600236 -81.5625 59.5 C-89.64810754 67.07132862 -94.81462975 76.3641617 -98.375 86.75 C-98.60147217 87.40274902 -98.82794434 88.05549805 -99.0612793 88.72802734 C-103.56341922 103.0651689 -104.49455477 117.76767215 -104.39111328 132.68579102 C-104.37503039 135.43230979 -104.39106821 138.17735339 -104.41015625 140.92382812 C-104.43885218 164.71009826 -101.25442486 192.9374415 -84.13671875 211.09375 C-76.74459321 217.68855304 -68.51086856 223.07233468 -59 226 C-58.34515625 226.22300781 -57.6903125 226.44601562 -57.015625 226.67578125 C-43.24396723 230.59910236 -26.91296015 228.69974983 -14.3125 222.3125 C1.91386373 212.74429987 9.26462294 198.26127903 15 181 C15.3403125 180.00613281 15.680625 179.01226562 16.03125 177.98828125 C16.70600868 175.99836792 17.35701257 174.00040533 18 172 C24.21835224 172.63498582 29.82966948 174.40926265 35.74609375 176.37890625 C36.75720718 176.71043198 37.76832062 177.0419577 38.81007385 177.38352966 C42.02104071 178.43773081 45.229275 179.49998745 48.4375 180.5625 C50.62156903 181.28113334 52.80581206 181.99923812 54.99023438 182.71679688 C60.32885287 184.47174902 65.66525431 186.2333125 71 188 C70.37353505 193.49608136 69.45700681 198.31958325 67.4375 203.5 C67.17356445 204.18433105 66.90962891 204.86866211 66.63769531 205.57373047 C55.70388819 233.23689449 38.63787701 255.4408984 11.0625 267.8125 C-19.17357914 280.71414908 -56.37781465 281.13940208 -87 269 C-115.80105572 256.64033273 -139.15929427 233.85023342 -150.95751953 204.62841797 C-167.75076571 160.42886947 -167.07416856 106.41456692 -148 63 C-141.89368554 50.11049189 -133.73938111 39.34586272 -124 29 C-123.19175781 28.09507812 -123.19175781 28.09507812 -122.3671875 27.171875 C-109.15937316 12.96849676 -89.64626414 3.47510339 -71 -1 C-69.32744141 -1.44472656 -69.32744141 -1.44472656 -67.62109375 -1.8984375 C-46.39007955 -6.64547452 -20.82663792 -6.15045337 0 0 Z " fill="#FFFFFF" transform="translate(668,147)"/>
<path d="M0 0 C17.16 0 34.32 0 52 0 C52.33 32.01 52.66 64.02 53 97 C56.3 93.7 59.6 90.4 63 87 C82.02251818 72.43524256 102.84620931 68.39131119 126.47070312 71.3046875 C141.56451677 74.00641122 155.6473205 81.70565007 164.75 94.0625 C179.71546653 116.10423823 177.15363939 144.498901 177.10139394 169.87308502 C177.09506627 173.47381904 177.09454926 177.07455425 177.09336853 180.67529297 C177.09028259 187.46755052 177.0821068 194.25979164 177.07201904 201.05204201 C177.060772 208.79591517 177.05532598 216.5397892 177.05032361 224.28366852 C177.03992133 240.18912344 177.02161066 256.09455576 177 272 C159.84 272 142.68 272 125 272 C124.93941406 263.82347656 124.87882813 255.64695312 124.81640625 247.22265625 C124.77070238 241.35009675 124.72445079 235.47754355 124.67741489 229.60499477 C124.61671693 222.01768551 124.55726682 214.43037358 124.50268555 206.84301758 C124.45477774 200.18398499 124.40226487 193.52500267 124.34705925 186.86602592 C124.32682632 184.33740834 124.30808447 181.80877833 124.29092598 179.28013802 C125.65269399 149.52207605 125.65269399 149.52207605 117 122 C116.67 121.01 116.34 120.02 116 119 C114.16295122 117.88057418 114.16295122 117.88057418 112 117 C111.05833984 116.48759766 111.05833984 116.48759766 110.09765625 115.96484375 C100.75002855 111.24617564 89.92714573 110.73385643 80 114 C69.75464524 118.18643768 62.60511667 123.7779382 58 134 C53.97222399 145.91899228 52.86500273 157.87932624 52.79467773 170.39477539 C52.78477814 171.4982431 52.77487854 172.60171082 52.76467896 173.73861694 C52.73328385 177.35827546 52.7083941 180.97794706 52.68359375 184.59765625 C52.6630052 187.11828437 52.64200825 189.63890918 52.62062073 192.15953064 C52.57120964 198.09846561 52.52589412 204.03742274 52.48259836 209.97640461 C52.41945525 218.5974887 52.34794646 227.2185042 52.27747345 235.83953094 C52.17971116 247.89298702 52.09068601 259.94647925 52 272 C34.84 272 17.68 272 0 272 C0 182.24 0 92.48 0 0 Z " fill="#FFFFFF" transform="translate(784,147)"/>
<path d="M0 0 C14.52 0 29.04 0 44 0 C44 56.76 44 113.52 44 172 C55.22 172 66.44 172 78 172 C78 187.51 78 203.02 78 219 C66.78 219 55.56 219 44 219 C44 236.82 44 254.64 44 273 C27.5 273 11 273 -6 273 C-6 255.18 -6 237.36 -6 219 C-41.97 219 -77.94 219 -115 219 C-115 166.0179273 -115 166.0179273 -105.01464844 155.12744141 C-104.34671265 154.46665588 -103.67877686 153.80587036 -102.99060059 153.12506104 C-99.35587162 149.24481456 -96.68251195 144.71083788 -93.8515625 140.23046875 C-92.66167919 138.40830836 -91.46895844 136.58799776 -90.2734375 134.76953125 C-89.67756836 133.85768066 -89.08169922 132.94583008 -88.46777344 132.00634766 C-79.89817185 118.89762748 -71.31354091 105.82222417 -62.25878906 93.04248047 C-53.77895656 80.97813434 -45.79233652 68.57341498 -37.7265625 56.23046875 C-36.53430235 54.40986267 -35.34159737 52.58954782 -34.1484375 50.76953125 C-33.56305206 49.87503265 -32.97766663 48.98053406 -32.37454224 48.05892944 C-29.37735724 43.5066416 -26.32237795 39.01139598 -23.14794922 34.58056641 C-22.51829254 33.69962814 -21.88863586 32.81868988 -21.23989868 31.91105652 C-20.05467405 30.26313131 -18.8598344 28.62205389 -17.65292358 26.98994446 C-14.13360806 22.10278286 -11.81754495 17.48473008 -9.97991943 11.73707581 C-8.375 8.75 -8.375 8.75 0 0 Z M-7 83 C-8.3414195 84.86921677 -9.62436353 86.75218348 -10.890625 88.671875 C-11.29891037 89.28508102 -11.70719574 89.89828705 -12.12785339 90.53007507 C-13.50533258 92.60112635 -14.87765671 94.6755426 -16.25 96.75 C-17.21859935 98.20856883 -18.18743599 99.66698009 -19.15649414 101.12524414 C-25.0145367 109.94861487 -30.84275055 118.79165628 -36.66796875 127.63671875 C-37.31337616 128.6165976 -37.95878357 129.59647644 -38.62374878 130.60604858 C-41.81414832 135.4506961 -45.00229972 140.29679875 -48.18652344 145.14550781 C-49.37303609 146.94987689 -50.55955906 148.75423917 -51.74609375 150.55859375 C-52.27454391 151.3647966 -52.80299408 152.17099945 -53.34745789 153.00163269 C-56.68225155 158.06948482 -60.13157426 163.03419174 -63.68861389 167.94911194 C-65.1795697 169.87511193 -65.1795697 169.87511193 -65 172 C-45.53 172 -26.06 172 -6 172 C-6 142.63 -6 113.26 -6 83 C-6.33 83 -6.66 83 -7 83 Z " fill="#FFFFFF" transform="translate(1438,146)"/>
<path d="M0 0 C2.59504856 0.02913309 5.18805767 0.02050017 7.78320312 0.00756836 C30.07738369 0.03609385 53.051018 3.38775913 69.95898438 19.26733398 C83.95129258 34.62341492 83.25242314 55.63792052 83.29841614 75.11906242 C83.30681322 78.56471742 83.32741508 82.01012078 83.35095215 85.45570374 C83.39883575 92.77178199 83.43198216 100.08788563 83.46289062 107.40405273 C83.4987537 115.8885303 83.54090506 124.3728826 83.59883118 132.85724068 C83.61866991 136.22645463 83.62717094 139.5955688 83.63513184 142.96482849 C83.70432827 156.92713215 83.96394077 170.58809959 88.40039062 183.96655273 C88.60470703 184.60334961 88.80902344 185.24014648 89.01953125 185.89624023 C90.06617372 189.0915973 91.25422214 192.18060651 92.62304688 195.24780273 C93.96289062 198.46655273 93.96289062 198.46655273 93.96289062 201.46655273 C77.13289063 201.46655273 60.30289062 201.46655273 42.96289062 201.46655273 C40.85972878 197.26022904 39.43280517 194.16987935 38.27539062 189.77905273 C38.02402344 188.84706055 37.77265625 187.91506836 37.51367188 186.95483398 C36.96289062 184.46655273 36.96289062 184.46655273 36.96289062 181.46655273 C35.96322266 182.31926758 35.96322266 182.31926758 34.94335938 183.18920898 C14.95706888 199.93296843 -5.8033472 208.04737771 -32.03710938 206.46655273 C-48.96021854 204.74965991 -63.92158266 198.52303705 -75.45898438 185.79467773 C-86.76062648 171.09404553 -89.85167968 154.08209175 -87.60742188 136.00561523 C-84.91110605 122.25773331 -77.66055382 110.24928875 -66.47460938 101.84155273 C-48.74048049 90.15134221 -26.77617982 86.73519745 -6.33087158 82.52511597 C12.81309742 79.04408916 12.81309742 79.04408916 30.96289062 72.46655273 C31.36939335 63.56865972 31.42596877 55.77200123 25.65039062 48.59155273 C16.66035645 41.48315362 4.15843556 40.43871316 -7.03710938 41.46655273 C-16.95350323 43.15628651 -23.69917758 45.91769278 -29.64648438 54.22827148 C-31.86746992 57.80306002 -33.46865552 61.57272692 -35.03710938 65.46655273 C-44.77958727 64.14829884 -54.4624852 62.60210798 -64.13745117 60.86206055 C-66.39106743 60.45914052 -68.64662387 60.06843964 -70.90234375 59.67749023 C-72.33932635 59.42042366 -73.77618082 59.16263956 -75.21289062 58.90405273 C-76.50106689 58.67588867 -77.78924316 58.44772461 -79.11645508 58.21264648 C-80.080271 57.96643555 -81.04408691 57.72022461 -82.03710938 57.46655273 C-83.03710938 55.46655273 -83.03710938 55.46655273 -82.03320312 52.15795898 C-81.52503664 50.77742033 -81.00469146 49.40132571 -80.47460938 48.02905273 C-80.19576904 47.30621094 -79.91692871 46.58336914 -79.62963867 45.83862305 C-72.75603375 28.40559518 -61.92990426 14.81959678 -44.66210938 6.77905273 C-30.2740037 1.32735192 -15.27548231 -0.18618077 0 0 Z M24.74194336 109.4128418 C23.46932899 109.72381805 23.46932899 109.72381805 22.17100525 110.04107666 C21.25541336 110.26914001 20.33982147 110.49720337 19.39648438 110.73217773 C18.44781998 110.96684753 17.49915558 111.20151733 16.52174377 111.44329834 C14.50971729 111.94250457 12.49816768 112.44363607 10.48706055 112.9465332 C7.43854289 113.70703504 4.38739702 114.45623692 1.3359375 115.20483398 C-0.62321996 115.69242031 -2.58220975 116.18068089 -4.54101562 116.66967773 C-5.4424379 116.88964417 -6.34386017 117.1096106 -7.27259827 117.33624268 C-17.67371139 119.96409244 -26.84553591 122.6889785 -33.34960938 131.65405273 C-36.38264896 137.52897395 -36.79022956 143.85430103 -34.91210938 150.15405273 C-31.45342437 158.88531088 -26.50795821 163.36197883 -18.03710938 167.46655273 C-8.53618311 170.63352816 2.12887648 168.57539652 10.96289062 164.46655273 C21.16050197 158.63934625 27.55434939 151.77591776 30.96289062 140.46655273 C31.77468266 136.32011813 32.08144723 132.41498672 32.06054688 128.19311523 C32.05732422 127.0394043 32.05410156 125.88569336 32.05078125 124.69702148 C32.04240234 123.5072168 32.03402344 122.31741211 32.02539062 121.09155273 C32.02087891 119.87854492 32.01636719 118.66553711 32.01171875 117.41577148 C31.99997417 114.43264767 31.98354903 111.44962594 31.96289062 108.46655273 C29.26540805 108.46655273 27.33237917 108.77517558 24.74194336 109.4128418 Z " fill="#FFFFFF" transform="translate(1086.037109375,217.533447265625)"/>
<path d="M0 0 C0 22.77 0 45.54 0 69 C11.55 69 23.1 69 35 69 C35 82.86 35 96.72 35 111 C23.45 111 11.9 111 0 111 C0.10840729 123.17926218 0.22060443 135.35847365 0.33933926 147.53763962 C0.3943331 153.19385716 0.44771335 158.85008005 0.49731445 164.50634766 C0.54530783 169.9723346 0.59765937 175.43826451 0.65294075 180.90418243 C0.67320707 182.98198258 0.69194433 185.05979827 0.70907402 187.13762665 C-0.66333198 206.87339535 -0.66333198 206.87339535 6 224 C11.88943055 227.22516435 18.52190139 225.93470825 24.76171875 224.2578125 C26.47154868 223.73363106 28.17558416 223.18989231 29.87109375 222.62109375 C32 222 32 222 35 222 C36.27602833 229.56114662 37.29804267 237.12803485 38.125 244.75 C38.21249512 245.52899658 38.29999023 246.30799316 38.39013672 247.1105957 C38.94907646 252.43401876 39.07463846 257.64735596 39 263 C20.64746762 272.10064856 -3.39203644 274.29695744 -23 268 C-32.992167 264.10653683 -41.18705985 259.29282227 -46.296875 249.51953125 C-51.74486258 236.78782116 -52.16337734 223.20408256 -52.11352539 209.54003906 C-52.11367142 208.46539398 -52.11381744 207.3907489 -52.1139679 206.28353882 C-52.11327849 202.77754606 -52.10553219 199.27160832 -52.09765625 195.765625 C-52.09578861 193.31654896 -52.09436634 190.86747254 -52.09336853 188.418396 C-52.08957059 182.006988 -52.07976386 175.59560306 -52.06866455 169.1842041 C-52.05839158 162.62801424 -52.05385835 156.07182061 -52.04882812 149.515625 C-52.03813889 136.67707163 -52.02056445 123.83854135 -52 111 C-59.59 111 -67.18 111 -75 111 C-75 97.14 -75 83.28 -75 69 C-67.41 69 -59.82 69 -52 69 C-52.185625 66.30070312 -52.37125 63.60140625 -52.5625 60.8203125 C-52.6876373 58.17608658 -52.7845595 55.53220159 -52.87890625 52.88671875 C-52.95891723 51.06195213 -53.06779738 49.23819753 -53.20703125 47.41699219 C-54.29254638 32.84235521 -54.29254638 32.84235521 -50.62265015 28.29232788 C-46.90033681 25.11954257 -42.63780402 23.06536608 -38.21282959 21.04504395 C-34.7506934 19.4099951 -31.53561448 17.40038002 -28.26953125 15.41015625 C-27.02462119 14.67850979 -25.77788114 13.94996785 -24.52929688 13.22460938 C-23.91820068 12.86906982 -23.30710449 12.51353027 -22.67749023 12.1472168 C-22.06204346 11.78926025 -21.44659668 11.43130371 -20.8125 11.0625 C-18.9025968 9.94845039 -16.9930956 8.83371438 -15.08366394 7.71885681 C-13.38169511 6.72561339 -11.67879513 5.73396603 -9.97583008 4.74243164 C-8.04561802 3.61223856 -6.13007518 2.45646011 -4.2331543 1.27124023 C-2 0 -2 0 0 0 Z " fill="#FFFFFF" transform="translate(1273,153)"/>
<path d="M0 0 C1.85521403 1.13154899 3.68873378 2.2993598 5.5 3.5 C6.39589844 4.08007812 7.29179687 4.66015625 8.21484375 5.2578125 C25.44793696 17.07620354 37.56992243 32.68846127 41.9140625 53.48193359 C45.07910521 70.70868869 44.08750411 90.56649383 34.125 105.53515625 C31.04132628 109.26373289 28.15207965 110.92075517 23.3359375 111.97265625 C18.77711033 112.40347325 16.0321123 111.60869029 12.5 108.6875 C8.56205562 104.82768944 5.16333945 100.52469734 1.734375 96.21484375 C-1.42791662 92.37254886 -4.92105237 88.94801052 -8.5 85.5 C-9.30179687 84.69304687 -10.10359375 83.88609375 -10.9296875 83.0546875 C-21.39762276 72.6503871 -33.07360103 65.86656256 -46.01147461 58.87524414 C-48.54542815 57.47489485 -51.02620144 56.00365976 -53.5 54.5 C-52.95621855 49.28372612 -51.70847399 44.86473433 -49.5625 40.0625 C-49.10496338 39.03249878 -49.10496338 39.03249878 -48.63818359 37.98168945 C-42.60070211 24.84067292 -32.24474078 5.02394197 -19.0078125 -1.78125 C-12.23456857 -3.72249125 -6.24540812 -3.29270801 0 0 Z M-14.5078125 13.94140625 C-22.37098905 21.8190905 -28.57583214 30.93631405 -33.85546875 40.71484375 C-34.36630005 41.65831665 -34.36630005 41.65831665 -34.88745117 42.62084961 C-35.66802071 45.01544656 -35.47532601 46.19077223 -34.5 48.5 C-32.11798023 50.0131069 -29.82044773 51.2965533 -27.3125 52.5625 C-8.0708491 62.86660743 6.53530799 78.17044174 19.5 95.5 C22.33699288 94.47701724 23.32656148 93.83696628 24.73046875 91.109375 C25.04628906 90.16578125 25.36210937 89.2221875 25.6875 88.25 C26.01105469 87.31671875 26.33460938 86.3834375 26.66796875 85.421875 C31.01957269 70.14018606 28.64972577 54.22494915 21.2265625 40.34765625 C14.11121935 28.61216947 3.80812022 18.70251728 -8.5 12.5 C-12.37037665 12.11121331 -12.37037665 12.11121331 -14.5078125 13.94140625 Z " fill="#E82025" transform="translate(435.5,64.5)"/>
<path d="M0 0 C0.22835541 0.65192322 0.45671082 1.30384644 0.69198608 1.9755249 C2.89544735 8.26561 5.0997555 14.55539781 7.30490685 20.84489059 C8.43726394 24.07466539 9.56934578 27.30453598 10.70068359 30.53466797 C12.01580742 34.28901587 13.33195711 38.04300258 14.6484375 41.796875 C15.08460388 43.04182739 15.52077026 44.28677979 15.97015381 45.56945801 C18.24987376 52.067927 20.55426703 58.55662894 22.89550781 65.03320312 C23.36472966 66.33424378 23.83393765 67.63528944 24.3031311 68.93634033 C25.19162478 71.39927713 26.08644787 73.85960686 26.98471069 76.31903076 C27.5793663 77.9656369 27.5793663 77.9656369 28.18603516 79.64550781 C28.53735504 80.61031067 28.88867493 81.57511353 29.25064087 82.56915283 C30 85 30 85 30 88 C30.969375 88.1959375 31.93875 88.391875 32.9375 88.59375 C51.29202879 92.57622741 67.27872654 100.73093159 78.7578125 116.0546875 C82.02328342 121.16853819 81.52251608 127.16145076 81 133 C79.45395617 138.46531417 75.70436102 141.27984955 71 144.0546875 C65.56386328 146.6241115 59.81417471 146.7461926 54.0625 145.0625 C49.54356962 143.24105013 47.17855482 139.95053356 44.12109375 136.28515625 C36.79740759 128.39499713 26.16026249 125.03651036 15.625 124.5625 C5.70724658 124.88883523 -3.82561475 128.02398485 -11 135 C-12.0385546 136.21423051 -13.05989024 137.44342401 -14.0625 138.6875 C-17.71931296 143.09517856 -21.23258961 144.69463058 -26.83203125 145.3125 C-33.37424046 145.57583421 -38.74065397 145.12250049 -44 141 C-45.80277372 139.04631536 -47.47675971 137.01471329 -49.1640625 134.9609375 C-55.0911869 128.63026421 -64.49468908 125.53230159 -72.94921875 124.71484375 C-83.87485468 124.39309007 -93.28350861 127.32262192 -102 134 C-103.395389 135.52579919 -104.75035854 137.08954555 -106.0625 138.6875 C-109.85316675 143.19224025 -113.13013534 145.25168944 -119 146 C-125.67371202 146.21495085 -130.64551194 144.98961856 -136 141 C-140.07718178 136.92281822 -141.76383639 132.93275075 -142.0546875 127.18359375 C-141.82585124 118.04648863 -136.06338135 111.96905286 -129.8125 105.86328125 C-121.45056988 98.67371633 -111.19491852 94.01926641 -101 90 C-101.16286499 89.38834488 -101.32572998 88.77668976 -101.49353027 88.14649963 C-103.18190283 81.80468458 -104.86855881 75.46241483 -106.55419922 69.11987305 C-107.1842885 66.74996314 -107.81482175 64.38017122 -108.44580078 62.01049805 C-109.35044043 58.61277378 -110.25350485 55.21463429 -111.15625 51.81640625 C-111.44060913 50.74975235 -111.72496826 49.68309845 -112.01794434 48.5841217 C-112.408349 47.11270973 -112.408349 47.11270973 -112.80664062 45.61157227 C-113.03758423 44.74331314 -113.26852783 43.87505402 -113.50646973 42.98048401 C-114 41 -114 41 -114 40 C-112.02 40 -110.04 40 -108 40 C-105.97609269 47.34747264 -103.96527427 54.69843518 -101.96362305 62.05200195 C-101.28078049 64.55445828 -100.5949181 67.05609258 -99.90600586 69.55688477 C-98.91770741 73.14649289 -97.94021913 76.73889327 -96.96484375 80.33203125 C-96.65344955 81.45398392 -96.34205536 82.57593658 -96.02122498 83.73188782 C-95.74085892 84.77274033 -95.46049286 85.81359283 -95.17163086 86.88598633 C-94.92070175 87.80309891 -94.66977264 88.72021149 -94.41123962 89.66511536 C-94 92 -94 92 -95 95 C-97.265625 95.921875 -97.265625 95.921875 -100.25 96.75 C-114.45105413 101.23099691 -127.1239755 109.06081689 -135 122 C-136.24559429 125.90286211 -136.09951958 127.6793258 -134.875 131.625 C-132.86358229 135.24555188 -131.57376784 136.93515636 -128 139 C-122.08715197 140.43052775 -118.369465 140.10217336 -113 137 C-110.24162752 134.50139406 -110.24162752 134.50139406 -107.75 131.625 C-102.77318832 126.33437438 -97.86778196 123.32448005 -91 121 C-90.34773438 120.75765625 -89.69546875 120.5153125 -89.0234375 120.265625 C-77.35798362 116.59224803 -64.20358661 118.75474401 -53.4375 124.0625 C-48.64452647 126.87276865 -45.02562547 130.75025412 -41.26171875 134.79296875 C-37.71062361 138.25819976 -35.06310697 139.29808245 -30.125 139.375 C-25.30133778 139.26166873 -22.68854306 138.2596427 -19 135 C-17.81788125 133.53033885 -16.63621182 132.0602753 -15.46484375 130.58203125 C-8.42922345 122.98356132 2.00009883 119.5391338 12.09375 118.76171875 C24.3291034 118.49512275 35.51266844 120.87899814 45 129 C46.6409481 130.76486409 48.16561754 132.58305942 49.6796875 134.45703125 C52.97795469 138.3115151 56.87245913 139.65908704 61.875 140.1328125 C66.648097 139.83449394 70.4274198 137.32686454 74 134.3125 C75.65796266 130.47846135 75.79462491 127.0913332 75 123 C69.29162081 110.47502148 56.11109024 102.60943551 43.74609375 97.7109375 C38.39676542 95.89560401 38.39676542 95.89560401 32.90055847 94.64442444 C29.18559693 93.81783877 26.73500984 93.08530308 24.54527283 89.85197449 C23.29745108 86.93422559 22.29999022 84.01287504 21.3515625 80.984375 C20.7819001 79.31646912 20.7819001 79.31646912 20.20072937 77.61486816 C18.97543199 74.003505 17.80026753 70.37791799 16.625 66.75 C15.79672804 64.27974307 14.96493334 61.81066455 14.12963867 59.34277344 C12.48427235 54.47057277 10.85566904 49.59330168 9.24072266 44.7109375 C6.40596246 36.17248505 3.37538084 27.7086281 0.3125 19.25 C-0.55032827 16.86101261 -1.40758397 14.470255 -2.26171875 12.078125 C-2.60162842 11.13356445 -2.94153809 10.18900391 -3.29174805 9.21582031 C-4 7 -4 7 -4 5 C-4.99 4.505 -4.99 4.505 -6 4 C-2.25 0 -2.25 0 0 0 Z " fill="#B5B8B6" transform="translate(370,365)"/>
<path d="M0 0 C1.61996685 2.42995028 2.51425192 4.12220538 3.46118164 6.79931641 C3.73257965 7.56008484 4.00397766 8.32085327 4.28359985 9.10467529 C4.57286346 9.92864807 4.86212708 10.75262085 5.16015625 11.6015625 C5.46633881 12.46291809 5.77252136 13.32427368 6.08798218 14.21173096 C7.08344507 17.01476888 8.07313732 19.81980374 9.0625 22.625 C10.08040816 25.49984459 11.09942961 28.37429274 12.11860657 31.24868774 C12.79413423 33.15409306 13.46917381 35.05967149 14.14372253 36.96542358 C16.06518009 42.38850323 18.00945157 47.80215781 19.9921875 53.203125 C20.41363037 54.35474121 20.83507324 55.50635742 21.26928711 56.69287109 C22.02820595 58.76011209 22.79178069 60.82565191 23.56079102 62.88916016 C23.89006592 63.78940918 24.21934082 64.6896582 24.55859375 65.6171875 C24.84017334 66.37628418 25.12175293 67.13538086 25.41186523 67.91748047 C26 70 26 70 26 74 C25.10539062 74.29132813 24.21078125 74.58265625 23.2890625 74.8828125 C16.31802317 77.24612861 10.22984976 79.70093796 4.0859375 83.86328125 C2 85 2 85 -2 85 C-4.453125 83.64453125 -4.453125 83.64453125 -7.25 81.8125 C-13.3990624 78.07616934 -19.5413323 76.0036983 -26.43359375 74.04296875 C-28.19896484 73.52669922 -28.19896484 73.52669922 -30 73 C-30.86001617 72.75286255 -31.72003235 72.5057251 -32.60610962 72.25109863 C-35 71 -35 71 -36.13949585 68.76086426 C-36.38011749 67.82979858 -36.62073914 66.89873291 -36.86865234 65.93945312 C-37.29336319 64.35771301 -37.29336319 64.35771301 -37.72665405 62.74401855 C-38.01021759 61.60130493 -38.29378113 60.45859131 -38.5859375 59.28125 C-38.89197906 58.11243286 -39.19802063 56.94361572 -39.51333618 55.73937988 C-40.15653447 53.26709226 -40.78969059 50.79217361 -41.41357422 48.31494141 C-42.3724801 44.50999895 -43.36112653 40.71378778 -44.35546875 36.91796875 C-44.97571103 34.51868158 -45.5942588 32.11895558 -46.2109375 29.71875 C-46.50664642 28.57603638 -46.80235535 27.43332275 -47.10702515 26.25598145 C-47.37125275 25.20148804 -47.63548035 24.14699463 -47.90771484 23.06054688 C-48.26148697 21.66394836 -48.26148697 21.66394836 -48.62240601 20.23913574 C-49 18 -49 18 -48 16 C-46.35 16.33 -44.7 16.66 -43 17 C-42.88154724 17.59833145 -42.76309448 18.1966629 -42.64105225 18.81312561 C-41.38115943 25.08503746 -39.99864718 31.32088223 -38.54443359 37.55053711 C-38.01920329 39.87242951 -37.52477194 42.20152649 -37.06298828 44.53686523 C-34.98321486 57.41211634 -34.98321486 57.41211634 -27.83813477 67.68182373 C-22.92231968 70.19648213 -17.86668248 71.31883744 -12.4732666 72.32516479 C-9.69407258 73.08347284 -7.63074037 74.2597533 -5.18261719 75.76586914 C-2.03033766 77.76099988 -2.03033766 77.76099988 1.57421875 77.5390625 C2.37472656 77.03117187 3.17523438 76.52328125 4 76 C5.25011024 75.41070631 6.50734784 74.83640792 7.76953125 74.2734375 C9.11784689 73.64203115 10.46549131 73.00918974 11.8125 72.375 C12.85180664 71.88773438 12.85180664 71.88773438 13.91210938 71.390625 C15.60866023 70.59500115 17.30441165 69.79767301 19 69 C16.59248951 62.14900643 14.18432836 55.29824192 11.77537155 48.44775677 C10.65641501 45.26565458 9.53766977 42.08347846 8.41943359 38.90112305 C7.12913683 35.22945918 5.8380757 31.55806482 4.546875 27.88671875 C4.15191833 26.76230881 3.75696167 25.63789886 3.35003662 24.47941589 C1.19269211 18.34785776 -1.0044532 12.23552092 -3.28485107 6.14851379 C-4 4 -4 4 -4 2 C-2.68 1.34 -1.36 0.68 0 0 Z " fill="#B5B8B6" transform="translate(340,386)"/>
<path d="M0 0 C3.83084349 2.61193874 6.65161815 5.67823629 8.75 9.875 C9.2738576 15.13075165 9.41505372 19.52026095 7.0625 24.3125 C3.76634339 27.96499787 0.44047167 31.60683207 -4.640625 32.11328125 C-10.73116678 32.27136908 -14.5240193 32.13990941 -19.25 27.875 C-23.58456803 23.07183002 -24.56321307 19.46274667 -24.4609375 13.15234375 C-24.00960138 8.27958531 -21.8309493 5.18914976 -18.25 2.0625 C-12.63336126 -2.03296575 -6.4763665 -2.24181917 0 0 Z " fill="#FEFEFD" transform="translate(372.25,57.125)"/>
<path d="M0 0 C4.45850936 0.79616239 5.90783917 1.93313458 8.5 5.625 C9.125 9.125 9.125 9.125 8.5 12.625 C5.90783917 16.31686542 4.45850936 17.45383761 0 18.25 C-4.45850936 17.45383761 -5.90783917 16.31686542 -8.5 12.625 C-9.125 9.125 -9.125 9.125 -8.5 5.625 C-5.90783917 1.93313458 -4.45850936 0.79616239 0 0 Z " fill="#343533" transform="translate(364.5,63.375)"/>
</svg>
