<svg width="40" height="40" viewBox="0 0 40 40" fill="none" xmlns="http://www.w3.org/2000/svg">
<g clip-path="url(#clip0_418_361)">
<path d="M35 5H5V35H35V5Z" fill="url(#paint0_linear_418_361)"/>
<path fill-rule="evenodd" clip-rule="evenodd" d="M19.3606 15.21C21.0452 15.21 21.9679 15.5874 22.1362 15.7767C21.9679 15.966 21.0452 16.3434 19.3606 16.3434C17.676 16.3434 16.7533 15.966 16.5851 15.7767C16.7533 15.5874 17.676 15.21 19.3606 15.21ZM19.169 18.2309C19.1072 18.1992 19.0636 18.1361 19.0636 18.0613C19.0636 17.9562 19.1485 17.8705 19.2523 17.8705C19.2825 17.8705 19.31 17.8792 19.3357 17.8924L19.169 18.2309ZM21.3378 21.3466C21.3099 21.3692 21.2459 21.4131 21.1141 21.466C20.9969 21.5128 20.858 21.5551 20.7006 21.5921C20.2822 21.6904 19.7678 21.7444 19.252 21.7444C18.1238 21.7444 17.3377 21.5007 17.1684 21.3496L16.6685 16.6815C17.4349 16.9951 18.5638 17.099 19.3606 17.099C20.1441 17.099 21.2485 16.9981 22.0145 16.6967L21.7156 18.7496C21.1524 18.5373 20.4497 18.229 19.7838 17.9049C19.7161 17.6699 19.5051 17.4968 19.2523 17.4968C18.9456 17.4968 18.6963 17.7503 18.6963 18.0613C18.6963 18.3729 18.9456 18.6261 19.2523 18.6261C19.3249 18.6261 19.3941 18.611 19.4574 18.5853C20.3879 19.0447 21.0813 19.3393 21.6032 19.5211L21.3378 21.3466ZM15.8269 15.8175L16.4295 21.4437C16.472 22.4879 19.1373 22.5 19.252 22.5C19.8226 22.5 20.3965 22.4388 20.8681 22.3285C21.0612 22.2831 21.2362 22.2295 21.3877 22.1687C21.8276 21.9919 22.0584 21.7508 22.0744 21.4527L22.3253 19.7285C22.4961 19.7636 22.6357 19.7791 22.747 19.7791C23.0972 19.7791 23.1895 19.6355 23.2532 19.5366C23.3202 19.4323 23.3395 19.3042 23.3083 19.1754C23.2368 18.8792 22.8188 18.4893 22.5396 18.2577L22.8925 15.8319L22.8891 15.8315C22.8906 15.813 22.8966 15.7956 22.8966 15.7767C22.8966 14.7329 20.6738 14.4544 19.3606 14.4544C18.0475 14.4544 15.8247 14.7329 15.8247 15.7767C15.8247 15.7907 15.8295 15.8032 15.8303 15.8171L15.8269 15.8175ZM19.1883 12.5224C22.4325 12.5224 25.0718 15.2013 25.0718 18.4942C25.0718 21.7871 22.4325 24.4661 19.1883 24.4661C15.9438 24.4661 13.3045 21.7871 13.3045 18.4942C13.3045 15.2013 15.9438 12.5224 19.1883 12.5224ZM9.86941 20.6881V21.4437H13.2193V21.3991C14.2901 23.6561 16.5598 25.2216 19.1883 25.2216C22.8426 25.2216 25.8162 22.2038 25.8162 18.4942C25.8162 14.7846 22.8426 11.7668 19.1883 11.7668C16.345 11.7668 13.9216 13.5968 12.9822 16.1545H9.86941V16.9101H12.7536C12.6375 17.3963 12.5694 17.9007 12.5638 18.4213H9.125V19.1769H12.5943C12.6468 19.7017 12.7648 20.2056 12.9293 20.6881H9.86941ZM30.155 29.7631C29.7046 30.221 28.9237 30.2237 28.4737 29.7673L24.4747 25.7079C25.1183 25.2209 25.6926 24.6463 26.185 24.0036L30.1594 28.057C30.3831 28.2844 30.5063 28.5874 30.5056 28.9097C30.5052 29.2327 30.3809 29.5353 30.155 29.7631ZM30.6865 27.5236L26.6231 23.3788C27.5238 21.9711 28.0494 20.2944 28.0494 18.4942C28.0494 13.5345 24.0743 9.5 19.1883 9.5C15.6773 9.5 12.4935 11.6074 11.0765 14.8689L11.7576 15.1734C13.0555 12.1861 15.9721 10.2556 19.1883 10.2556C23.6641 10.2556 27.305 13.9512 27.305 18.4942C27.305 23.0368 23.6641 26.7328 19.1883 26.7328C16.1984 26.7328 13.459 25.0717 12.0383 22.3976L11.3832 22.7565C12.9334 25.6754 15.9244 27.4884 19.1883 27.4884C20.8967 27.4884 22.4931 26.9939 23.8476 26.1401L27.9478 30.3019C28.3118 30.6714 28.796 30.875 29.3104 30.875C29.8278 30.875 30.315 30.6699 30.6805 30.2985C31.0468 29.929 31.2493 29.4363 31.25 28.9108C31.2511 28.3861 31.0505 27.8934 30.6865 27.5236Z" fill="white"/>
</g>
<defs>
<linearGradient id="paint0_linear_418_361" x1="5" y1="3005" x2="3005" y2="5" gradientUnits="userSpaceOnUse">
<stop stop-color="#4D27A8"/>
<stop offset="1" stop-color="#A166FF"/>
</linearGradient>
<clipPath id="clip0_418_361">
<rect width="30" height="30" fill="white" transform="translate(5 5)"/>
</clipPath>
</defs>
</svg>
