<svg width="40" height="40" viewBox="0 0 40 40" fill="none" xmlns="http://www.w3.org/2000/svg">
<path d="M26.9098 25.8489L24.6874 23.6213C24.6632 23.5965 24.6355 23.5755 24.6051 23.5588C25.5504 22.3412 25.9959 20.809 25.8509 19.2743C25.7058 17.7396 24.9811 16.318 23.8244 15.299C22.6677 14.2801 21.166 13.7405 19.6253 13.7901C18.0846 13.8398 16.6207 14.475 15.5321 15.5664C14.4434 16.6578 13.8118 18.1231 13.7659 19.664C13.72 21.2048 14.2633 22.7051 15.2851 23.8594C16.3069 25.0136 17.7303 25.7348 19.2653 25.8761C20.8003 26.0174 22.3315 25.5681 23.5468 24.6198C23.5626 24.6485 23.5825 24.6748 23.6056 24.6979L25.8332 26.9255C25.8987 26.9909 25.9874 27.0276 26.0799 27.0276C26.1723 27.0276 26.261 26.9909 26.3265 26.9255L26.9098 26.3422C26.9752 26.2767 27.0119 26.188 27.0119 26.0956C27.0119 26.0031 26.9752 25.9144 26.9098 25.8489ZM19.8124 24.4083C18.911 24.4084 18.0298 24.1412 17.2803 23.6405C16.5308 23.1398 15.9466 22.428 15.6016 21.5953C15.2566 20.7625 15.1663 19.8462 15.3421 18.9621C15.518 18.078 15.952 17.2659 16.5894 16.6285C17.2268 15.9912 18.0389 15.5571 18.9229 15.3813C19.807 15.2055 20.7234 15.2957 21.5561 15.6407C22.3889 15.9857 23.1006 16.5699 23.6014 17.3195C24.1021 18.069 24.3693 18.9502 24.3692 19.8516C24.369 21.06 23.8889 22.219 23.0344 23.0735C22.1799 23.9281 21.0209 24.4082 19.8124 24.4083ZM16.8994 19.6083V21.4917C17.1895 22.0036 17.6093 22.4307 18.1171 22.7286V19.5969L16.8994 19.6083ZM19.178 18.0469V23.1364C19.5806 23.2106 19.9932 23.2106 20.3957 23.1364V18.0469H19.178ZM22.701 21.4875V20.3719H21.4843V22.7156C21.9914 22.4185 22.4113 21.9931 22.702 21.4823L22.701 21.4875Z" fill="white"/>
<g clip-path="url(#clip0_731_3720)">
<path d="M10.8749 33.6438L3.62388 21.0844C3.23638 20.4135 3.23638 19.5865 3.62388 18.9156L10.8749 6.35677C11.2619 5.68646 11.9765 5.27344 12.7499 5.2724H27.2588C28.0296 5.27605 28.7405 5.68907 29.126 6.35677L36.376 18.9156C36.7635 19.5865 36.7635 20.4135 36.376 21.0844L29.1249 33.6438C28.7379 34.3141 28.0234 34.7271 27.2499 34.7281H12.7447C11.9723 34.7255 11.2603 34.3125 10.8734 33.6438H10.8749Z" fill="#4386FA"/>
<path opacity="0.1" d="M24.5295 15.9557C24.5295 15.9557 26.5451 20.7906 23.7972 23.5312C21.0493 26.2718 16.0457 24.5177 16.0457 24.5177L26.2238 34.7239H27.2571C28.0311 34.7229 28.7457 34.3093 29.1321 33.6395L33.9321 25.3281L24.5295 15.9557Z" fill="black"/>
<path d="M26.9098 25.8489L24.6874 23.6213C24.6632 23.5965 24.6355 23.5755 24.6051 23.5588C25.5504 22.3412 25.996 20.809 25.8509 19.2743C25.7058 17.7396 24.9811 16.318 23.8244 15.299C22.6677 14.2801 21.166 13.7405 19.6253 13.7901C18.0846 13.8398 16.6207 14.475 15.5321 15.5664C14.4434 16.6578 13.8118 18.1231 13.7659 19.664C13.72 21.2048 14.2633 22.7051 15.2851 23.8594C16.3069 25.0136 17.7303 25.7348 19.2653 25.8761C20.8003 26.0174 22.3315 25.5681 23.5468 24.6198C23.5626 24.6485 23.5825 24.6748 23.6056 24.6979L25.8332 26.9255C25.8987 26.9909 25.9874 27.0276 26.0799 27.0276C26.1723 27.0276 26.261 26.9909 26.3265 26.9255L26.9098 26.3422C26.9752 26.2767 27.0119 26.188 27.0119 26.0956C27.0119 26.0031 26.9752 25.9144 26.9098 25.8489ZM19.8124 24.4083C18.911 24.4084 18.0298 24.1412 17.2803 23.6405C16.5308 23.1398 15.9466 22.428 15.6016 21.5953C15.2566 20.7625 15.1663 19.8462 15.3421 18.9621C15.518 18.078 15.952 17.2659 16.5894 16.6285C17.2268 15.9912 18.0389 15.5571 18.9229 15.3813C19.807 15.2055 20.7234 15.2957 21.5561 15.6407C22.3889 15.9857 23.1006 16.5699 23.6014 17.3195C24.1021 18.069 24.3693 18.9502 24.3692 19.8516C24.369 21.06 23.8889 22.219 23.0344 23.0735C22.1799 23.9281 21.0209 24.4082 19.8124 24.4083ZM16.8994 19.6083V21.4917C17.1895 22.0036 17.6093 22.4307 18.1171 22.7286V19.5969L16.8994 19.6083ZM19.178 18.0469V23.1364C19.5806 23.2106 19.9932 23.2106 20.3957 23.1364V18.0469H19.178ZM22.701 21.4875V20.3719H21.4843V22.7156C21.9914 22.4185 22.4114 21.9931 22.702 21.4823L22.701 21.4875Z" fill="white"/>
</g>
<defs>
<clipPath id="clip0_731_3720">
<rect width="33.3333" height="33.3333" fill="white" transform="translate(3.33325 3.33331)"/>
</clipPath>
</defs>
</svg>
