<svg width="40" height="40" viewBox="0 0 40 40" fill="none" xmlns="http://www.w3.org/2000/svg">
<g clip-path="url(#clip0_79_48)">
<path fill-rule="evenodd" clip-rule="evenodd" d="M32.6337 28.3684C31.0021 28.3229 29.7363 28.4902 28.6753 28.9365C28.3699 29.0592 27.8796 29.0592 27.8394 29.4436C28.0027 29.605 28.0223 29.869 28.1655 30.0926C28.4101 30.4985 28.8391 31.0452 29.2264 31.3288L30.532 32.2618C31.3277 32.7481 32.2254 33.0321 33.0005 33.5188C33.4496 33.8029 33.8982 34.1678 34.3472 34.4723C34.5759 34.6345 34.7144 34.8986 35.0003 34.9995V34.9381C34.8576 34.7563 34.8164 34.4927 34.6742 34.2891L34.0614 33.7015C33.4701 32.9108 32.7353 32.2209 31.9396 31.6537C31.2865 31.2074 29.8588 30.5993 29.5936 29.8495L29.5534 29.804C30.0015 29.7586 30.532 29.6009 30.9609 29.4791C31.6551 29.2973 32.2871 29.3373 33.0005 29.1551L33.9805 28.871V28.6892C33.6133 28.3243 33.348 27.8376 32.9607 27.4931C31.9203 26.601 30.7771 25.7288 29.5936 24.999C28.9612 24.5936 28.1449 24.3295 27.4717 23.9855C27.2262 23.8637 26.8187 23.8028 26.676 23.6001C26.3079 23.1548 26.1044 22.5662 25.8392 22.0386L24.1664 18.5106C23.7992 17.7198 23.5742 16.929 23.126 16.1992C21.0243 12.7521 18.7387 10.6638 15.2294 8.61552C14.4748 8.18968 13.5771 8.00653 12.6228 7.78384L11.0926 7.70204C10.7657 7.56025 10.4396 7.17486 10.1538 6.99217C8.99089 6.26229 5.99146 4.68076 5.13402 6.76493C4.58298 8.08288 5.9503 9.38038 6.41446 10.0498C6.76201 10.5161 7.21016 11.0433 7.45573 11.5704C7.59292 11.9149 7.63865 12.2803 7.78179 12.6453C8.10784 13.5374 8.41423 14.5313 8.84272 15.363C9.07137 15.7888 9.31145 16.2355 9.59727 16.6205C9.76052 16.8477 10.0463 16.9449 10.1072 17.3099C9.82134 17.7157 9.80168 18.3233 9.63842 18.831C8.90354 21.1224 9.18935 23.961 10.2297 25.648C10.5567 26.1547 11.3272 27.2704 12.3726 26.8441C13.2909 26.4792 13.086 25.3235 13.3512 24.3096C13.413 24.0664 13.3718 23.9042 13.4939 23.7415V23.7869L14.3308 25.4698C14.9632 26.4633 16.0653 27.4976 16.9831 28.1875C17.4724 28.5524 17.8602 29.1814 18.4721 29.4041V29.3427H18.4318C18.3093 29.161 18.1254 29.0792 17.9622 28.9374C17.595 28.5724 17.1871 28.1261 16.9013 27.7208C16.0447 26.5855 15.2902 25.328 14.6166 24.0305C14.2896 23.402 14.0038 22.7126 13.7395 22.084C13.616 21.8404 13.616 21.4751 13.4125 21.3542C13.1061 21.7995 12.658 22.1858 12.4325 22.733C12.0447 23.6047 12.0045 24.6795 11.8618 25.7947C11.7795 25.8152 11.8161 25.7947 11.7795 25.8402C11.1274 25.6784 10.9024 25.0085 10.6577 24.4413C10.0459 23.0016 9.94344 20.6902 10.4739 19.0273C10.6166 18.6015 11.2294 17.2631 10.9847 16.8577C10.8612 16.4723 10.4542 16.2496 10.2292 15.9451C9.96402 15.5597 9.67912 15.0735 9.49529 14.6476C9.00598 13.5115 8.76132 12.2549 8.2304 11.1192C7.98483 10.592 7.5568 10.0444 7.20971 9.55807C6.82192 9.01044 6.39434 8.62506 6.08795 7.97654C5.98597 7.7493 5.84329 7.38846 6.00655 7.14487C6.04679 6.98262 6.12911 6.91763 6.29145 6.88128C6.55668 6.65404 7.31214 6.94217 7.57737 7.06306C8.33192 7.36755 8.96436 7.65114 9.59681 8.07652C9.88262 8.27921 10.189 8.6646 10.5562 8.7664H10.9852C11.6382 8.90819 12.3722 8.81184 12.9836 8.99363C14.0651 9.33902 15.0442 9.8453 15.9222 10.3934C18.5946 12.0763 20.7988 14.469 22.2878 17.3285C22.5324 17.7948 22.6344 18.2206 22.8594 18.7074C23.2884 19.7013 23.8188 20.7147 24.2464 21.6887C24.6753 22.6417 25.0833 23.6156 25.6951 24.4064C26.0015 24.8322 27.2253 25.0549 27.7758 25.278C28.1842 25.4598 28.8162 25.6234 29.1843 25.8461C29.8776 26.2719 30.5713 26.7587 31.2239 27.2249C31.5499 27.4676 32.5706 27.9748 32.6314 28.3793L32.6337 28.3684ZM11.8266 10.7479C11.5447 10.7454 11.2637 10.7795 10.9907 10.8492V10.8947H11.0309C11.1942 11.2191 11.48 11.4423 11.6839 11.7263L12.1536 12.6998L12.1938 12.6543C12.4796 12.4517 12.6228 12.1272 12.6228 11.6409C12.5002 11.4991 12.4801 11.3568 12.3781 11.2151C12.2555 11.0124 11.9903 10.9106 11.8266 10.7488V10.7479Z" fill="#00678C"/>
</g>
<defs>
<clipPath id="clip0_79_48">
<rect width="30" height="30" fill="white" transform="translate(5 5)"/>
</clipPath>
</defs>
</svg>
