<svg width="40" height="40" viewBox="0 0 40 40" fill="none" xmlns="http://www.w3.org/2000/svg">
<g clip-path="url(#clip0_418_354)">
<path d="M35 5H5V35H35V5Z" fill="url(#paint0_linear_418_354)"/>
<path fill-rule="evenodd" clip-rule="evenodd" d="M24.0594 18.1889C23.662 18.1889 23.3391 17.8667 23.3391 17.4703C23.3391 17.074 23.662 16.7514 24.0594 16.7514C24.4564 16.7514 24.7793 17.074 24.7793 17.4703C24.7793 17.8667 24.4564 18.1889 24.0594 18.1889ZM22.2348 22.5592C21.8377 22.5592 21.5148 22.2369 21.5148 21.8406C21.5148 21.4443 21.8377 21.122 22.2348 21.122C22.6318 21.122 22.9551 21.4443 22.9551 21.8406C22.9551 22.2369 22.6318 22.5592 22.2348 22.5592ZM17.8559 21.8309C17.4592 21.8309 17.1363 21.5086 17.1363 21.1123C17.1363 20.716 17.4592 20.3933 17.8559 20.3933C18.2533 20.3933 18.5762 20.716 18.5762 21.1123C18.5762 21.5086 18.2533 21.8309 17.8559 21.8309ZM16.0316 25.837C15.6349 25.837 15.3117 25.5147 15.3117 25.1184C15.3117 24.7221 15.6349 24.3998 16.0316 24.3998C16.4291 24.3998 16.752 24.7221 16.752 25.1184C16.752 25.5147 16.4291 25.837 16.0316 25.837ZM24.0594 16.0036C23.2492 16.0036 22.5899 16.6616 22.5899 17.4703C22.5899 17.9661 22.839 18.4032 23.2177 18.669L22.5322 20.4045C22.4359 20.3847 22.3363 20.3743 22.2348 20.3743C21.5905 20.3743 21.0477 20.793 20.8503 21.3706L19.3164 21.0226C19.2688 20.2565 18.6358 19.6456 17.8559 19.6456C17.046 19.6456 16.3871 20.3036 16.3871 21.1123C16.3871 21.4903 16.5347 21.832 16.7711 22.0922L16.1017 23.6591C16.0777 23.6577 16.0556 23.652 16.0316 23.652C15.2218 23.652 14.5625 24.3097 14.5625 25.1184C14.5625 25.9267 15.2218 26.5847 16.0316 26.5847C16.8419 26.5847 17.5011 25.9267 17.5011 25.1184C17.5011 24.5995 17.2284 24.1456 16.8198 23.8846L17.4105 22.5024C17.5521 22.5476 17.6997 22.5786 17.8559 22.5786C18.4339 22.5786 18.9302 22.241 19.1695 21.7561L20.7945 22.1248C20.9275 22.7977 21.5223 23.307 22.2348 23.307C23.045 23.307 23.7043 22.6493 23.7043 21.8406C23.7043 21.4035 23.5076 21.0151 23.2027 20.7459L23.923 18.9229C23.9687 18.9273 24.0126 18.9367 24.0594 18.9367C24.8692 18.9367 25.5285 18.2787 25.5285 17.4703C25.5285 16.6616 24.8692 16.0036 24.0594 16.0036ZM20 29.7522C16.3508 29.7522 13.6242 28.6568 13.6242 27.6772V13.6818C14.8655 14.6906 17.4933 15.2237 20.0079 15.2237C22.5112 15.2237 25.1277 14.695 26.3758 13.6949V27.6772C26.3758 28.6568 23.6488 29.7522 20 29.7522ZM20.0079 10.2478C23.7605 10.2478 26.3758 11.3619 26.3758 12.362C26.3758 13.3618 23.7605 14.4759 20.0079 14.4759C16.2549 14.4759 13.6399 13.3618 13.6399 12.362C13.6399 11.3619 16.2549 10.2478 20.0079 10.2478ZM27.125 12.362C27.125 10.5031 23.4582 9.5 20.0079 9.5C16.5576 9.5 12.8907 10.5031 12.8907 12.362C12.8907 12.365 12.8915 12.3684 12.8915 12.3714H12.875V27.6772C12.875 29.5107 16.5459 30.5 20 30.5C23.4541 30.5 27.125 29.5107 27.125 27.6772V12.3714H27.1243C27.1243 12.3684 27.125 12.365 27.125 12.362Z" fill="white"/>
</g>
<defs>
<linearGradient id="paint0_linear_418_354" x1="5" y1="3005" x2="3005" y2="5" gradientUnits="userSpaceOnUse">
<stop stop-color="#4D27A8"/>
<stop offset="1" stop-color="#A166FF"/>
</linearGradient>
<clipPath id="clip0_418_354">
<rect width="30" height="30" fill="white" transform="translate(5 5)"/>
</clipPath>
</defs>
</svg>
